<svg xmlns="http://www.w3.org/2000/svg" viewBox="4024 6400 12 14">
  <defs>
    <style>
      .cls-1 {
        fill: #669ed9;
      }
    </style>
  </defs>
  <g id="Group_2384" data-name="Group 2384" transform="translate(3734 6364)">
    <rect id="Rectangle_470" data-name="Rectangle 470" class="cls-1" width="1" height="6" transform="translate(297 41)"/>
    <rect id="Rectangle_471" data-name="Rectangle 471" class="cls-1" width="1" height="6" transform="translate(294 41)"/>
    <path id="Path_1413" data-name="Path 1413" class="cls-1" d="M12,2H8.5V1.5A1.412,1.412,0,0,0,7.2,0H4.8A1.412,1.412,0,0,0,3.5,1.5V2H0V3H1v8.5A2.5,2.5,0,0,0,3.5,14h5A2.5,2.5,0,0,0,11,11.5V3h1ZM4.5,1.5c0-.286.158-.5.3-.5H7.2c.142,0,.3.214.3.5V2h-3Zm5.5,10A1.5,1.5,0,0,1,8.5,13h-5A1.5,1.5,0,0,1,2,11.5V3h8Z" transform="translate(290 36)"/>
  </g>
</svg>
