<svg xmlns="http://www.w3.org/2000/svg" viewBox="-991 312 17 16">
  <defs>
    <style>
      .cls-1 {
        fill: #f37c7c;
      }

      .cls-2, .cls-3 {
        fill: none;
      }

      .cls-2 {
        stroke: #fff;
      }

      .cls-4, .cls-5 {
        stroke: none;
      }

      .cls-5 {
        fill: #fff;
      }
    </style>
  </defs>
  <g id="Group_316" data-name="Group 316" transform="translate(-1013 -232)">
    <rect id="Rectangle_441" data-name="Rectangle 441" class="cls-1" width="17" height="16" rx="3" transform="translate(22 544)"/>
    <path id="Path_497" data-name="Path 497" class="cls-2" d="M0,0V14" transform="translate(35.45 547.05) rotate(45)"/>
    <g id="Path_496" data-name="Path 496" class="cls-3" transform="translate(26 547)">
      <path class="cls-4" d="M2,0A2,2,0,1,1,0,2,2,2,0,0,1,2,0Z"/>
      <path class="cls-5" d="M 2 3 C 2.551399946212769 3 3 2.551399946212769 3 2 C 3 1.448600053787231 2.551399946212769 1 2 1 C 1.448600053787231 1 1 1.448600053787231 1 2 C 1 2.551399946212769 1.448600053787231 3 2 3 M 2 4 C 0.8954300284385681 4 0 3.104569911956787 0 2 C 0 0.8954300284385681 0.8954300284385681 0 2 0 C 3.104569911956787 0 4 0.8954300284385681 4 2 C 4 3.104569911956787 3.104569911956787 4 2 4 Z"/>
    </g>
    <g id="Path_495" data-name="Path 495" class="cls-3" transform="translate(31 553)">
      <path class="cls-4" d="M2,0A2,2,0,1,1,0,2,2,2,0,0,1,2,0Z"/>
      <path class="cls-5" d="M 2 3 C 2.551399946212769 3 3 2.551399946212769 3 2 C 3 1.448600053787231 2.551399946212769 1 2 1 C 1.448600053787231 1 1 1.448600053787231 1 2 C 1 2.551399946212769 1.448600053787231 3 2 3 M 2 4 C 0.8954300284385681 4 0 3.104569911956787 0 2 C 0 0.8954300284385681 0.8954300284385681 0 2 0 C 3.104569911956787 0 4 0.8954300284385681 4 2 C 4 3.104569911956787 3.104569911956787 4 2 4 Z"/>
    </g>
  </g>
</svg>
