<svg id="Слой_1" data-name="Слой 1" xmlns="http://www.w3.org/2000/svg" viewBox="0 0 144 144"><defs><style>.cls-1 {fill: #eef3f6;} .cls-2 {fill: #4272a4;}</style></defs><circle class="cls-1" cx="72" cy="72.01245" r="72"/><g><path class="cls-2" d="M41.23389,62.48755h61a3.34287,3.34287,0,0,0,2.71533-1.5376,3.867,3.867,0,0,0,.561-3.46143L100.59863,43.155c-.67187-1.82275-2.44775-3.66748-4.54248-3.66748h-47.772c-2.06348,0-3.75879,1.79443-4.4707,3.48535L38.19092,57.32446a3.99522,3.99522,0,0,0,.418,3.65723A3.15918,3.15918,0,0,0,41.23389,62.48755Zm-1.18994-4.41016L45.666,43.72583c.457-1.085,1.52979-2.23828,2.61816-2.23828h47.772c1.12451,0,2.23828,1.19922,2.6582,2.3374l4.91162,14.3335a1.91366,1.91366,0,0,1-.31738,1.64746,1.40663,1.40663,0,0,1-1.07471.68164H79.41406l10.793-10.793L88.793,48.28052l-11.5,11.5.707.707H60.41406l10.793-10.793L69.793,48.28052l-11.5,11.5.707.707H41.23389a1.2254,1.2254,0,0,1-.959-.61182A1.98537,1.98537,0,0,1,40.04395,58.07739Z"/><path class="cls-2" d="M100.83154,77.48755h6.07275a4.90738,4.90738,0,1,0-2.78662-8.94727l-4.998,3.44775a3.00648,3.00648,0,0,0-1.1521,1.49951H45.64032a3.00656,3.00656,0,0,0-1.13641-1.4624l-4.999-3.44727a4.90738,4.90738,0,1,0-2.78613,8.94727H42.791a2.96093,2.96093,0,0,0,2.84766-2.0376H97.99933A2.95789,2.95789,0,0,0,100.83154,77.48755Zm-.57666-3.853,4.99854-3.44775a2.90741,2.90741,0,1,1,1.65088,5.30078h-6.07275a1.0163,1.0163,0,0,1-.57666-1.853ZM43.76172,74.81079a.985.985,0,0,1-.9707.71436H36.71875a2.91065,2.91065,0,0,1-2.90723-2.90771,2.86192,2.86192,0,0,1,1.55566-2.57373,2.86254,2.86254,0,0,1,3.002.18066l4.999,3.44727A.98444.98444,0,0,1,43.76172,74.81079Z"/><path class="cls-2" d="M45.29736,86.48755H34.624A2.81573,2.81573,0,0,0,31.81152,89.3v4.375a2.81573,2.81573,0,0,0,2.8125,2.8125h8.46045A2.06063,2.06063,0,0,0,45.00342,95.158l2.2124-5.90137a2.049,2.049,0,0,0-1.91846-2.769Zm-2.21289,8H34.624a.81313.81313,0,0,1-.8125-.8125V89.3a.81313.81313,0,0,1,.8125-.8125l10.71924.06641Z"/><path class="cls-2" d="M108.999,86.48755H98.32568a2.04932,2.04932,0,0,0-1.91895,2.76855l2.21338,5.90283a2.06,2.06,0,0,0,1.91846,1.32861H108.999a2.81573,2.81573,0,0,0,2.8125-2.8125V89.3A2.81573,2.81573,0,0,0,108.999,86.48755Zm.8125,7.1875a.81313.81313,0,0,1-.8125.8125l-8.50635-.03174-2.167-5.96826H108.999a.81313.81313,0,0,1,.8125.8125Z"/><path class="cls-2" d="M115.86133,62.96069a16.43292,16.43292,0,0,0-2.32568-2.08838c-.26221-.20605-.60254-.47412-.78027-.63379l-6.92725-19.88477-.06592-.15918a11.94008,11.94008,0,0,0-10.69092-6.707H48.92871a11.94008,11.94008,0,0,0-10.69092,6.707L31.24463,60.23853c-.17773.15967-.51807.42773-.78027.63379a16.43292,16.43292,0,0,0-2.32568,2.08838C26.36035,65.053,25,66.89917,25,69.98755v25a5.78051,5.78051,0,0,0,1.99554,4.17853l-.04144,6.33075a4.83708,4.83708,0,0,0,1.92529,3.62793,6.15088,6.15088,0,0,0,3.791,1.4126h.0459l10.99951-.10059a5.56359,5.56359,0,0,0,3.64746-1.459A4.781,4.781,0,0,0,49,105.39136l-.04553-4.96155c.65479-1.20221,1.47791-1.94226,1.90393-1.94226H93.1416c.42151,0,1.23169.72449,1.88306,1.90405L95,100.39136l-.0459,5a4.781,4.781,0,0,0,1.63672,3.58643,5.56359,5.56359,0,0,0,3.64746,1.459l10.99951.10059h.0459a6.1522,6.1522,0,0,0,3.7915-1.4126A4.839,4.839,0,0,0,117,105.48755V99.16992a5.782,5.782,0,0,0,2-4.18237v-25C119,66.89917,117.63965,65.053,115.86133,62.96069ZM46.01465,107.50122a3.53952,3.53952,0,0,1-2.31738.93555l-10.99951.10059a4.2081,4.2081,0,0,1-2.55762-.96484,2.86474,2.86474,0,0,1-1.186-2.07861l.03247-4.94977a8.31938,8.31938,0,0,0,3.7019.94342H46.964L47,105.40991A2.81088,2.81088,0,0,1,46.01465,107.50122Zm6.00159-12.01367,2.39246-6.23682c.36475-.8667,1.22314-1.76318,2.02783-1.76318H87.07959c.85352,0,1.73633.96338,2.07422,1.88037l2.43378,6.11963Zm41.75061.06757-2.74536-6.90253a4.62464,4.62464,0,0,0-3.94189-3.165H56.43652c-1.7959,0-3.26562,1.54834-3.8833,3.0166l-2.74933,7.16632a6.46545,6.46545,0,0,0-3.19061,2.81708H32.68848c-2.04736,0-4.68848-1.69727-4.68848-3.5v-25c0-2.01123.77637-3.145,2.4248-5.08447a14.2934,14.2934,0,0,1,1.895-1.67285,5.26168,5.26168,0,0,0,1.60156-1.5874l7.0542-20.21729a8.92388,8.92388,0,0,1,7.95313-4.938H95.07129a8.92388,8.92388,0,0,1,7.95313,4.938l6.98682,20.05566.06738.16162a5.26168,5.26168,0,0,0,1.60156,1.5874,14.2934,14.2934,0,0,1,1.895,1.67285C115.22363,66.84253,116,67.97632,116,69.98755v25c0,1.80273-2.64111,3.5-4.68848,3.5H97.38672A6.04948,6.04948,0,0,0,93.76685,95.55511ZM115,105.47827a2.86426,2.86426,0,0,1-1.186,2.09424,4.18289,4.18289,0,0,1-2.53027.96484h-.02734l-10.99951-.10059a3.53952,3.53952,0,0,1-2.31738-.93555,2.81088,2.81088,0,0,1-.98535-2.09131l.036-3.92236h14.32141A8.315,8.315,0,0,0,115,100.5509Z"/></g></svg>
