<svg xmlns="http://www.w3.org/2000/svg" xmlns:xlink= "http://www.w3.org/1999/xlink" viewBox="1219.3 1444 96 96"><defs><style>.cls-1{fill:#eef3f6}.cls-2{fill:#fff}.cls-3{fill:#c5d1d9}</style></defs><path class="cls-1" d="M1267.3 1539.5a46.466 46.466 0 0 1-29.1-10 46.986 46.986 0 0 1-18.4-37.5 47.484 47.484 0 1 1 47.5 47.5z"/><path class="cls-2" d="M1267.3 1445a46.99 46.99 0 0 1 27.5 85.1 46.995 46.995 0 1 1-27.5-85.1m0-1a47.99 47.99 0 1 0 48 48 48.012 48.012 0 0 0-48-48z"/><path class="cls-3" d="M1288.1 1473.1h-6.9v-2h1v-1h-1v-1h1a2.006 2.006 0 0 0 2-2v-4a2.006 2.006 0 0 0-2-2h-28.7a2.006 2.006 0 0 0-2 2v4a2.006 2.006 0 0 0 2 2h1v1h-1v2h1v1h-7.9a2 2 0 0 0 0 4v45.6h17.8v-6.9h5.9v6.9h17.8v-45.6a2.006 2.006 0 0 0 2-2 2.149 2.149 0 0 0-2-2zm-11.9-3.9h4v1h-4zm0 2h4v2h-4zm-20.8-2h13.9v1h-13.9zm0 2.9h13.9v1h-13.9zm2.9 38.7h-5.9v-4h5.9zm0-7.9h-5.9v-4h5.9zm0-8h-5.9v-4h5.9zm0-7.9h-5.9v-4h5.9zm15.9 23.8h-13.9v-4h13.9zm0-7.9h-13.9v-4h13.9zm0-8h-13.9v-4h13.9zm0-7.9h-13.9v-4h13.9zm1-16.8h-1v1h1v2h-5v-1h1v-2h-1v-1h5zm6.9 40.6h-5.9v-4h5.9zm0-7.9h-5.9v-4h5.9zm0-8h-5.9v-4h5.9zm0-7.9h-5.9v-4h5.9z"/></svg>

