<svg xmlns="http://www.w3.org/2000/svg" viewBox="-1447 -176 20 16"><defs><style>.cls-1 {fill: #fff;}</style></defs><g id="Group_138" data-name="Group 138" transform="translate(-3038 -216.104)"><path id="Path_230" data-name="Path 230" class="cls-1" d="M729.826,51h-10.87V50h-4.348v1h-.435A2.354,2.354,0,0,0,712,53.5v10a2.354,2.354,0,0,0,2.174,2.5h15.652A2.354,2.354,0,0,0,732,63.5v-10A2.354,2.354,0,0,0,729.826,51Zm1.3,12.5a1.412,1.412,0,0,1-1.3,1.5H714.174a1.412,1.412,0,0,1-1.3-1.5v-10a1.412,1.412,0,0,1,1.3-1.5h15.652a1.412,1.412,0,0,1,1.3,1.5Z" transform="translate(879 -9.896)"/><path id="Path_231" data-name="Path 231" class="cls-1" d="M725,53.5a5,5,0,1,0,5,5,5,5,0,0,0-5-5Zm0,9.048a4.048,4.048,0,1,1,4.048-4.048A4.048,4.048,0,0,1,725,62.548Z" transform="translate(878.196 -9.941)"/></g></svg>