<svg xmlns="http://www.w3.org/2000/svg" viewBox="0 0 40 40">
  <defs>
    <style>
      .cls-1 {
        fill: #c8c8c8;
      }

      .cls-2 {
        fill: #4272a4;
      }
    </style>
  </defs>
  <g id="Group_132" data-name="Group 132" transform="translate(-974 -129)">
    <circle id="Ellipse_7" data-name="Ellipse 7" class="cls-1" cx="20" cy="20" r="20" transform="translate(974 129)"/>
    <path id="Subtraction_2" data-name="Subtraction 2" class="cls-2" d="M47.047,31.851a3.185,3.185,0,0,1-3.11-2.542H33.022a3.173,3.173,0,0,1-6.218,0H24.2a1.906,1.906,0,0,1-1.9-1.9V24.232a1.965,1.965,0,0,1,1.847-1.9c2.244-.22,6.594-1.244,7.089-1.9l1.015-1.059.024-.008L34.3,17.217a2.535,2.535,0,0,1,1.34-.577l2.978-.017h2.718v-.016L42.6,16.6v.017h2.241a2.52,2.52,0,0,1,1.986.965l2.488,2.6a.629.629,0,0,0,.5.247h2.3a1.906,1.906,0,0,1,1.9,1.9v5.077a1.906,1.906,0,0,1-1.9,1.9H50.157A3.183,3.183,0,0,1,47.047,31.851ZM36.608,19.157a3.2,3.2,0,0,0-3.184,3.176v.69a3.2,3.2,0,0,0,3.184,3.184h3.874v1.568L44.4,25.423,40.483,23.07v1.569H36.608a1.618,1.618,0,0,1-1.616-1.616V22.34a1.617,1.617,0,0,1,1.616-1.615h9.363V19.157Z" transform="translate(955.838 125.542)"/>
  </g>
</svg>
