<svg id="Слой_1" data-name="Слой 1" xmlns="http://www.w3.org/2000/svg" viewBox="0 0 144 144"><defs><style>.cls-1 {fill: #eef3f6;} .cls-2 {fill: #4272a4;}</style></defs><circle class="cls-1" cx="72" cy="72.01245" r="72"/><g><path class="cls-2" d="M56.3846,54.51245h-7v7h7Zm-2,5h-3v-3h3Z"/><rect class="cls-2" x="59.3846" y="56.51245" width="27" height="2"/><path class="cls-2" d="M56.3846,65.51245h-7v7h7Zm-2,5h-3v-3h3Z"/><rect class="cls-2" x="59.3846" y="67.51245" width="27" height="2"/><path class="cls-2" d="M56.3846,76.51245h-7v7h7Zm-2,5h-3v-3h3Z"/><path class="cls-2" d="M52.8846,90.51245a4.5,4.5,0,1,0,4.5,4.5A4.5,4.5,0,0,0,52.8846,90.51245Zm0,7a2.5,2.5,0,1,1,2.5-2.5A2.50286,2.50286,0,0,1,52.8846,97.51245Z"/><path class="cls-2" d="M115.99983,56.79907a4.94608,4.94608,0,0,0-1.293-3.37549h-.00049a4.82488,4.82488,0,0,0-3.499-1.5625,5.32281,5.32281,0,0,0-3.90039,1.55469l-5.92236,5.9223V50.47241a1.49976,1.49976,0,0,0-.43945-1.06055l-15.46-15.46a1.49976,1.49976,0,0,0-1.06055-.43945h-39.54a4.50492,4.50492,0,0,0-4.5,4.5v68a4.50492,4.50492,0,0,0,4.5,4.5h52a4.50492,4.50492,0,0,0,4.5-4.5v-32.5h-.03271L114.54231,60.322A4.91142,4.91142,0,0,0,115.99983,56.79907ZM74.4601,90.95074l2.45258,2.45258-4.55444,2.45239Zm4.01947,1.19135L75.651,89.31348l29.699-29.69849,2.82861,2.82861Zm7.905-53.04858L96.80354,49.51245H87.8846a1.50164,1.50164,0,0,1-1.5-1.5Zm12,66.91895a1.50164,1.50164,0,0,1-1.5,1.5h-52a1.50164,1.50164,0,0,1-1.5-1.5v-68a1.50164,1.50164,0,0,1,1.5-1.5h38.5v11.5a4.50492,4.50492,0,0,0,4.5,4.5h10.5V62.338L82.20992,78.51245H59.3846v2H80.20992L72.47444,88.2478c-.02735.02686-.05322.05518-.07812.08447a1.5854,1.5854,0,0,0-.248.397l-4.20264,9.80713a1.52875,1.52875,0,0,0,1.42676,2.12451,1.52182,1.52182,0,0,0,.71973-.17773l9.09375-4.89648v-.00049a1.54385,1.54385,0,0,0,.3584-.26611L98.3846,76.47974Zm14.03662-47.81152-2.82861,2.82861L106.764,58.20093l2.66406-2.66406a2.34808,2.34808,0,0,1,1.7085-.67676,1.854,1.854,0,0,1,1.35059.582,1.97061,1.97061,0,0,1,.5127,1.35693A1.94776,1.94776,0,0,1,112.42122,58.20093Z"/></g></svg>
