<svg xmlns="http://www.w3.org/2000/svg" viewBox="3157 -969.518 1366 341.533">
  <defs>
    <style>
      .cls-1 {
        fill: #e3e3e3;
      }

      .cls-2 {
        fill: #b5b5b5;
      }

      .cls-3 {
        fill: #d5d5d5;
      }

      .cls-4 {
        fill: #d9d6d6;
      }

      .cls-5 {
        fill: silver;
      }
    </style>
  </defs>
  <g id="map-index" transform="translate(3157 -969.518)">
    <path id="фон" class="cls-1" d="M0,0H1366V341.5H0Z" transform="translate(0.002 0.007)"/>
    <g id="сооружения" transform="translate(0 0.004)">
      <path id="Path_394" data-name="Path 394" class="cls-2" d="M12,327.629v-8.182c0-.711,7.649,0,7.649,0L32.1,313.4l5.514-19.209-12.094-3.913,1.823-9.426-5.914-.357L25.7,255.772h3.38l.534,12.2,11.205,5.411,4.624-8.894,7.293,13.873,11.383-4.624s2.134,6.937,3.913,7.47,12.984-1.067,14.229-1.779a30.394,30.394,0,0,0,7.115-7.647c2.313-3.558-.889-10.85-.889-10.85l-6.226,3.023-4.269-10.672-3.023,1.245-4.8-11.739-3.913,1.067L61.624,232.65l-12.273-9.783-16.008,5.87-1.6-3.557-14.407-.355,1.6-13.7,13.56-4.683,94.768,68.814s-20.239,42.8-24.489,52.367Zm164.813-80.973L165.941,262,183.016,274l6.4-5.2Zm54.694,71.7v3.735l6.736,3.2v-3.936Z" transform="translate(0.808 13.873)"/>
      <path id="Path_395" data-name="Path 395" class="cls-2" d="M31.05,247.127c.267.8,4.4,12.273,4.4,12.273l-5.2,3.2Zm37.356-77.3H81.34v21.936H68.406Zm6.467-23.953,15-16.275,8.537,8.137S84.676,154.682,84.41,154.282,74.873,145.878,74.873,145.878ZM39.022,113.332l2.254-2.751,4.574,3.746L43.6,117.078Zm3.231-3.946,2.254-2.751,4.574,3.746-2.254,2.753Zm2.834-3.461,2.254-2.751,4.573,3.744-2.252,2.753Zm2.755-3.365L50.1,99.808l4.573,3.746-2.254,2.751Zm2.662-3.249,2.252-2.751,4.574,3.746-2.254,2.751ZM53.216,96l2.254-2.751,4.573,3.744-2.254,2.753Zm-8.228,22.126,2.254-2.75,4.573,3.746-2.254,2.751Zm3.231-3.944,2.254-2.753,4.573,3.746-2.254,2.753Zm2.834-3.462,2.252-2.751,4.575,3.746-2.252,2.751Zm2.755-3.364,2.254-2.753,4.573,3.746L58.384,111.1Zm2.662-3.249,2.252-2.753L63.3,105.1l-2.252,2.753Zm2.711-3.313,2.254-2.751,4.573,3.746-2.252,2.751ZM162.848,80.646a18.608,18.608,0,0,1,2.935,2l.667-12.273h2.134l-3.468-28.147-5.469.934,3.6,24.145Zm-6.536-18.809L153.376,44.9l-1.6-23.478,5.6-18.542h-1.868l-5.736,18.142.934,23.345,2.869,12.94-1.668,14.407,4.576,3.985-.174-13.857Zm85.642,19.076c2.246-.8,5.2.133,5.336,3.068s1.2,5.6,0,5.336-5.6-3.3-6-4.386S241.175,81.191,241.953,80.913Zm34.995,92.311,5.513,3.29H290.6v-3.29H276.949Zm16.719,3.29,2.224,2.373,8-4.005v-1.658H293.666v2.862m-89.377,79.222,2.224-1.512,4,4.714-1.957,1.823-4.269-5.024Zm246.253.177s14.318,6.937,14.14,7.293-3.2,5.336-3.2,5.336l-3.867.978-7.873,16.72-5.78-2.757,3.889-6.848-1.4-3.113-3.647-2.045Zm-5.691,41.887-11.294,19.832-2.668-1.424,11.916-19.831,2.046,1.423Zm-11.828-6.314-4.536,2.312-4.092,6.76,4.314,2.312,5.469-10.494-1.156-.889Zm-9.6,11.828-3.113,5.958,8.982,5.692,1.6-3.558-2.668-1.6,1.067-2.8,1.6.578.711-1.423ZM414.7,256.91l-4.269-2.313-3.2,4.98,4.536,2.49,2.935-5.158Zm.712-12.539-2.4,3.824,5.069,2.757,2.045-3.29Zm12.539,7.321,4.8,2.906-2.4,4.535-4.8-3.113Zm9.96-6.787-6.136-3.024L430,245.437l6.048,2.668Zm-12.806-6.315-1.779,3.29-5.87-3.29,2.046-3.2Zm-22.055-10.227-1.334,2.223-6.759-3.468,1.512-2.49,6.58,3.735Zm-13.517,3.645,8.448,4.536-1.868,3.2-6.58-3.869ZM386.868,242.5l6.892,3.824-3.447,3.824-5.757-5.158Zm-1.112,34.372,2.535,3-3.735,3.268-2.467-3.134Zm-8.671,7.47,2.8,3.135-3.735,3.068-2.734-3.1,3.668-3.1Zm230.156-53.4,7.292,3.913-4.269,9.426-7.737-3.735Zm100.492,54.693,4.447,2.134,2.4-4.091-1.868-1.156,1.868-3.825,5.514,2.668-1.779,3.735-1.6-.711-2.4,4.624,3.824,1.956,6.937-12.983-9.96-5.869Zm72.48-5.513,8.359-8,5.514,5.336-8.359,8.359Zm-30.237-25.969c0-.267,6.4-4.979,6.4-4.979l6.67,8.359-9.161,3.824Zm-1.067-2.134,5.958-4.269-5.958-7.292-4,4.269,4,7.292Zm-4.892-9.248,3.558-4.536-8.182-10.85,5.514-4.8-19.743-24.367-8.716,7.826,19.031,23.833-3.468,3.024,3.38,4,2.938-2.13,5.688,8Zm21.077-35.04,4-3.023,3.913,5.158,3.2-1.956,5.247,6.937-6.4,5.648-9.961-12.764Zm173.329-59.851-10-2.134-2.268,8.137-14.407-1.868-1.956,7.07-14.052-2.668-1.767,6.688-11.974-1.968-2.361,11.848,6.23,1.041,1.334-6.766,13.073,1.83,9.619-4.369,19.329-8.3.534-3.068,8.671-5.469Zm54.96,28.28c-.089.267-3.29,18.587-3.29,18.587l-2.224-.534v-2.4l-8.092-1.69-1.067,7.2,14.052,2.491,2.223-13.163-2.313-.889,1.868-9.6Zm-16.1,13.962-.979,6.937L956.3,194.3l-.445-4.981s2.224.267,2.313,0,.089-2.845.089-2.845Zm-18.5-12.895h3.647v7.115h-3.647Zm33.794-19.831-1.512,8.893-6.047-1.067,1.823-8.537Zm5.247-25.612,7.47,1.6-4.092,21.966h-2.757l3.557-19.654-4.8-1.067Z" transform="translate(2.034 0.196)"/>
      <path id="Path_396" data-name="Path 396" class="cls-2" d="M948.207,131.352,947.5,134.2l-10.316-2.846-5.159,26.591-6.225-1.067.8-4.981,3.913.445.534-3.647-8.982-2.045-.712,4-8.181-1.6-3.38,24.1h-2.4v11.117l-3.906.687-5.33-62.05H902.5l45.711,8.449Zm-100.582,75.5,1.423,4,6.493-2.757-1.957-4.09ZM726.5,259.264l2.535-5.541,5.648-1.734,4.82,2.855-13,4.42m41.479-14.1,1.075-5.448,6.937-2.935,6.209,3.547-14.22,4.834m48.171-16.376,1.594-5.746,6.536-2.668,5.325,3.839-13.457,4.575M843.087,0l-15.2,77.729,12.628,2.668-1.423,7.827h2.668l-.712,3.557,4.269,1.067-1.067,9.6,49.624,9.071L917.257,0H843.088ZM990.479,22.945,975.154,19.21l-5.514,21.7L985.292,43.4l1.067-3.735-2.668-1.424L986,29.17l2.845.356,1.629-6.581ZM963.964,210.019l3.986-6.053,7.871,2.4v5.978l-11.857-2.326m62.1,12.187,4.048-5.968,7.337,1.734v6.467l-11.385-2.234m6-124.825,11.739,3.29-2.757,10.316-12.184-2.134.979-4.669,7.115,1.556.889-3.023-4.09-.979-.267,1.067-3.025-.822Zm8.858-39.219,2.89,9.338-7.47-4.135ZM1030.252,47.89c.667,0,6.8,4.669,6.8,4.669l-5.069,3.2-2.4-3.935Zm-4.461-14.47,9.129,2.465.667-2.465s10.805,1.53,16.141,7.933,10.539,10.538,12.806,10.472c1.868-5.136,4.8-21.411,4.8-21.411l-41.155-9.3-2.39,12.3m43.541,20.206-1.457,9.738,25.068,2.134,1.334-6.537Zm31.62-21.21-4.141,21.21-2.535-.8,1.468-6.67-8.4-2.268,2.534-13.073,11.072,1.6Zm17.47.534-1.868,9.272,3.2.6,1.734-9.071Zm34.95,44.822,5.6.8-2.8,14.14-5.736-1.2ZM1120.824,137l5.736,1.334-2.134,9.471-5.869-1.467Zm30.948-1.067c6.048,1.067,2.967,10.732,2.268,13.473-.8,3.135-2.135,5.537-6.356,4.827-3.263-.549-3.65-3.888-2.716-9.026s1.6-10.192,6.8-9.274Zm-51.32,56.638,7.562,2.369-1.423,3.735h-2.358V200.5l1.651,1.734-.862,2.846-6.819-1.814,2.254-10.693m-9.908,71.424,3.735,1.067-2.774,13.473-4.3-1.2Zm-4.141,20.276,4.335,1.2-2.167,9.738,22.377,4-.8,4-26.813-4.8Zm-3.063,17.875,18.542,2.935-.8,3.2-4.469-.867.334-2.035-.967-.167-.935,5.169-6.9-1.334,1.035-5.236-2.2-.4-.5,2.1-3.768-.864.633-2.5Zm20.362,3.424,12.139,2-.4,1.6-2.8-.489-.309,1.7,2.755.523-.445,2.045-11.827-2.568.889-4.813Zm34.4,5.247,9.272,1.268-.934,5.8-9.272-1.467Zm50.627,30.706,1.554-7.85,9.338,1.778-1.188,6.072Zm1.814-47.159,8.36,1.868-1.69,9.6-8.626-1.868Z" transform="translate(48.811 0.003)"/>
      <rect id="Rectangle_46" data-name="Rectangle 46" class="cls-2" width="9.515" height="23.3" rx="3.51" transform="matrix(0.256, -0.967, 0.967, 0.256, 1278.436, 300.577)"/>
      <path id="Path_397" data-name="Path 397" class="cls-2" d="M1346.178,336.937l8.964-10.843,9.472.224v7.78l-5.022,6.048-13.412-3.209m-17.024,4.276c-.679-3.087-2.038-8.223-2.038-8.223l-4.167.13,1.688,8.092ZM1366,115.354l-14.541-3.319s2.4-9.2,2.4-9.6l12.131,2.446Zm0-96.7-10.405-1.734,1.868-12.673,4.4.8-.534,4.135s-2-.462-2.435,2.468c-.5,3.4,6.537,3.635,6.894,1.3.477-3.112-1.19-3.535-1.19-3.535l.6-3.569.8.107ZM0,316.807,9.125,324.9l.747-24.769c-.352.527-6.037,6.273-9.871,10.128Zm529.859-62.747c1.245.89,29.348,14.585,29.348,14.585L548,291.767,530.924,281.1l-6.4,8.181-3.557-1.338-4.092,6-4.664-2.886a10.449,10.449,0,0,0,1.107-3.116,8.382,8.382,0,0,0,0-3.287Zm31.482,15.3-11.561,23.478,6.937,1.956,6.937-2.49,17.075,8.359,8.893-17.253ZM617.232,43.736l5.87,6.937-4.936,5.2H612.03l-4.135-4.269ZM586.8,59.744l-2.07,5.181,12.689,13.93-2.391-8.292L586.8,59.741m-29.551-33.33-2.755,6.475,3.38,3.291,5.084-3.324-5.709-6.442M541.457,8.593l-1.284,5.653L544,18.835l2.916-4.085-5.455-6.158" transform="translate(0.002 0.289)"/>
      <path id="Path_398" data-name="Path 398" class="cls-2" d="M549.948,9.6l-5.076,3.84,6.839,7.716,2.775-3.285L549.95,9.6Zm10.786,165.471-5.362-2.726-1.779,4.269,8.36,8.716,2.668-4.8-3.888-5.457M266.9,243.387l-7.142-2.471-3.2,7.737,6.727,2.5,3.616-7.766M9.38,0,16.045,5.2,20.31,0,9.382,0ZM678.49,19.121l3.877,2.038,6.4-5.777-3.479-2.341-6.8,6.08m552.762,250.343-1.419,9.071-17.253-2.49,2.135-10.316,16.541,3.735Zm-106.227,35.142-5.287-1.393-2.668,11.139,5.6,1.439,2.358-11.184m-6.531-5.8-1.424,5.514-3.912-1.112,1.6-5.291Zm-13.34,9.6,6.047,1.968-1.244,3.97,3.2,1.438,2.668-7.374,1.245.845-2.668,11.248-11.916-3.911,2.668-8.182Z" transform="translate(0.632 0.003)"/>
    </g>
    <g id="река" transform="translate(29.652 0.004)">
      <path id="Path_399" data-name="Path 399" class="cls-3" d="M164.108,0c-.416.539-.845,1.14-1.349,1.9-.187.28-.128,1.809-.313,2.1-.238.374-1.5.764-1.74,1.157a51.7,51.7,0,0,0-5.83,14.051c-2.268,8.8.667,34.683,2.268,45.622s-1.259,18.85-2,22.277-21.477,26.946-23.211,28.947S110.055,136.333,108.188,139s-10.272,30.415-11.606,35.084-3.468,34.15-3.869,36.818-12.806,26.146-13.34,28.28,4.134,9.2,7.6,14.007,2.8,13.34,3.335,16.453,4.135,13.829,2.935,17.163c-1.093,3.036-55.675,46.849-65.463,54.691h5.133c11.528-9.118,61.464-48.751,63-52.29,1.734-4-.534-10.405-1.868-17.609s-2.134-16.141-2.4-18.943-6.937-6.937-8.271-11.472,10.939-25.212,12.273-29.614,3.2-29.614,4-34.683,9.6-32.416,11.072-35.884,16.942-16.675,24.145-23.878,11.339-13.74,20.677-25.346,5.069-27.08,4.269-38.285-2.8-26.146-.667-36.551a26.7,26.7,0,0,1,3.778-9.407c.291-.459.13-2.046.424-2.465.16-.224,1.387-.213,1.545-.427A24.023,24.023,0,0,1,169.15,0Zm787.42,16.675c-1.734-.4-1.467,2.935-1.868,3.735a6.894,6.894,0,0,1-4.632,3.2c-2.365.267-3.239,1.734-5.106,4.536s-3.468,3.6-4.4,3.6-1.868,2.268-4.135,3.335-1.467-1.067-1.334-7.337,2.587-9.948,1.334-11.872c-2.387-3.667-8.271,3.068-9.738,3.335s-2.535-2-3.868-2.268-1.734,1.734-3.469,1.734-4.269-4.669-5.736-5.069-1.868,2.935-3.735,3.6-3.068-4.269-5.2-6.4-2.268-3.869.4-6.136,14.407-3.335,16.808-3.335,3.468,5.736,5.469,5.469,2-2,5.469-3.468,6.136-.133,5.87-1.467C933.539,1.3,932.249.6,930.812,0h-5.726c-1.171.964-2.729,2.063-3.839,2.138-1.142.075-2.109-1.108-2.73-2.138h-4.371a49.182,49.182,0,0,1-5.838,1.07C900.17,2.135,896.7,4.8,896.168,7.6s2.935,4.8,4,6.8.8,8.137,3.735,8.4,4.4-4,5.736-4.8,3.335,1.6,3.869,2.134,3.2,0,4.669,0,1.868,2,2.8,2.935,1.6-.667,4.936,1.734,2,10,2.268,11.739,2.535,1.067,3.468.934,4.4-5.736,6.27-3.068-1.289,5.336-2.134,8.137-.512,5.976-.133,15.474c.133,3.335-4.135,18.942-4.936,20.543s-11.072-4.135-12.806-4.135-2,1.868-8.137,1.334-6-1.868-6.136-3.468-1.868-.4-5.069,1.334-3.468,2.668-3.6,8.182-.8,8.893.534,8.626,1.2-4.536,2.534-7.07,3.735-1.6,4.669-.4,2.8,6.937,4,6.8-.134-3.335,0-5.6,8.137-6,9.338-6.937,4.4-.4,5.469.267,8.537,7.337,9.525,11.205.88,4.669,3.015,6.136,3.6.267,2.134-1.067-4.669-5.6-5.069-8.671.8-2.8,1.467-4,.667-2.268,1.334-7.337a60.891,60.891,0,0,1,3.191-12.406c1.345-3.735.144-11.472.011-15.474s1.067-4.4,2.4-5.736,1.334-3.468,1.334-6.136,2.8-5.87,5.6-7.07,4.269,1.6,5.069,1.067S952.475,16.894,951.529,16.675Z" transform="translate(-27.783 0.003)"/>
    </g>
    <g id="вспомогательные_дороги" data-name="вспомогательные дороги" transform="translate(0 0)">
      <path id="Path_400" data-name="Path 400" class="cls-4" d="M63.879,240.5l10.907,7.918a74.83,74.83,0,0,0,1.969,9.034c.937,2.675,4.93,11.186,5.1,11.547l.213.461h5.446a.8.8,0,0,0,0-1.6H83.088c-.859-1.842-4.034-8.684-4.824-10.936a80.175,80.175,0,0,1-1.953-9.085l-.051-.325L64.119,238.7,54.29,242.43l-14.14,5.2a.8.8,0,0,0,.552,1.5l10.672-3.927c3.786,9.706,9.288,24.681,9.2,26.887-.073,1.772-5.968,4.025-9.928,4.991a.8.8,0,1,0,.38,1.556c1.836-.448,11-2.86,11.149-6.48.131-3.17-7.9-23.918-9.293-27.507l1.974-.726Zm100.774-161c.181.021.427.035.713.049,1.63.08,3.394.277,3.707,1.606.438,1.871.134,7.46-.019,9.457a.8.8,0,0,0,.736.859c.021,0,.043,0,.064,0a.8.8,0,0,0,.8-.74c.025-.3.569-7.451-.017-9.944-.615-2.615-3.7-2.768-5.187-2.841a4.011,4.011,0,0,0-.5-.011,10.6,10.6,0,0,1-1.695-3.853.8.8,0,1,0-1.541.432c.614,2.181,1.622,4.815,2.939,4.979Zm-1.323,5.938L132.5,126.378a.8.8,0,0,0,1.277.96L164.607,86.4a.8.8,0,0,0-1.281-.963Zm53.24,205.223a.8.8,0,0,0,1.128-.09l6.873-8.07c4.426,1.932,10.68,4.832,15.135,6.947a.8.8,0,1,0,.686-1.446c-5.405-2.567-11.513-5.405-15.8-7.231l-.005,0c-2.845-1.21-4.9-1.98-5.385-1.913-.869.124-2.705,1.844-8.543,8-1.057,1.116-2.149,2.267-2.425,2.508a.8.8,0,0,0,.408,1.491c.433,0,.433,0,3.178-2.9,2.145-2.262,6.546-6.9,7.609-7.5a29.723,29.723,0,0,1,3.6,1.379l-6.553,7.694a.8.8,0,0,0,.09,1.128ZM414.484,99.029c-2.685-.995-6.738-9.479-8.073-12.664a.8.8,0,1,0-1.476.619c.519,1.238,5.176,12.132,8.994,13.546,3.628,1.345,36.738,1.562,40.5,1.583h.005a.8.8,0,1,0,0-1.6c-10.149-.053-37.108-.427-39.955-1.481Z" transform="translate(2.664 4.945)"/>
      <path id="Path_401" data-name="Path 401" class="cls-4" d="M218.376,312.009a16.561,16.561,0,0,0,5.2,1.27,2.448,2.448,0,0,0,1.759-.537c1.276-1.277,10.018-21.8,10.676-23.54.928-2.461.141-10.525.048-11.436a.8.8,0,1,0-1.593.163c.242,2.372.722,8.922.048,10.707-.982,2.6-9.293,21.781-10.3,22.966-.457.333-2.958-.181-5.247-1.083a.8.8,0,1,0-.587,1.491Zm526.1-48.185a.8.8,0,1,0-1.459.659,94.021,94.021,0,0,1,3.583,8.957c.681,2.748,1.05,6.478.047,8.7-1.052,2.34-4.639,3.968-4.624,3.968-3.869,1.178-7.8,1.8-8.383,1.369-.64-.715-3.086-6.87-5.784-14.023l2.732-1.639,5.5-2.491a.8.8,0,0,0-.66-1.458l-5.588,2.532-2.561,1.537c-1.811-4.834-3.685-9.97-5.165-14.108a.8.8,0,0,0-1.509.54c1.274,3.558,3.262,9.062,5.268,14.412l-4.925,2.956a.8.8,0,1,0,.824,1.373l4.674-2.809c2.718,7.193,5.347,13.738,6.145,14.388a3.4,3.4,0,0,0,2.078.488,32.3,32.3,0,0,0,7.908-1.569c.171-.077,4.215-1.9,5.528-4.809,1.47-3.272.406-8.288.046-9.747a92.479,92.479,0,0,0-3.679-9.231ZM640.614,170.851l-.009,0c-.005,0-.008.011-.013.016a22.527,22.527,0,0,0-2.062,2.2c-3.705-1.9-7.517-4.034-7.974-4.581-1.065-1.279-64.789-32.28-65.322-32.464a.792.792,0,0,0-1,.489.809.809,0,0,0,.472,1.024c.466.179,62.11,30.169,64.677,32.034a9.92,9.92,0,0,0,1.705,1.23c-2.945,5.808-7.456,14.556-8.1,15.4a.8.8,0,0,0,1,1.245c.208-.139.7-.473,8.481-15.831,1.69.971,3.675,2.017,5.056,2.73-7.472,10.018-13.553,28.853-13.852,29.794a.8.8,0,0,0,1.524.488c.075-.231,6.421-19.892,13.841-29.621a.8.8,0,0,0,.694-.434.784.784,0,0,0,.06-.514c.406-.491.815-.954,1.227-1.377,4.261,5.5,10.58,13.937,10.907,15.1-.064,1.971-10.341,20.593-16.8,31.868a.8.8,0,0,0,1.387.8c6.574-11.467,17.516-31,16.976-32.98-.512-1.878-8.692-12.522-11.288-15.869.185-.156.368-.315.553-.451,9.119-6.783,15.517-12.52,15.581-12.578a.8.8,0,1,0-1.072-1.189c-.064.057-6.409,5.748-15.463,12.484a14.962,14.962,0,0,0-1.179.992ZM571.8,57.557a.8.8,0,0,0-1.131-.051l-61.833,56.445a.8.8,0,1,0,1.078,1.181L571.755,58.69a.8.8,0,0,0,.05-1.131Zm-77.34-27.576c1.989,2.844,22.347,24.158,26.093,28.074L502.8,74.1c-2.1-1.487-10.021-3.8-12.224-3.984a2.372,2.372,0,0,0-1.03.085,33.036,33.036,0,0,1-5.019-5.119.8.8,0,0,0-1.227,1.028c2.16,2.583,5,5.677,6.239,5.741a1.024,1.024,0,0,0,.615-.154c1.43-.131,9.537,2.384,11.445,3.49l-14.727,13.3a.8.8,0,0,0,1.075,1.187l61.784-55.821a.8.8,0,1,0-1.075-1.188l-26.91,24.314c-1.008-1.054-3.362-3.517-6.28-6.589l7.756-6.906a.8.8,0,1,0-1.067-1.2l-7.79,6.939c-7.332-7.726-17.29-18.311-18.59-20.167-2.132-3.05-12.774-15.4-13.226-15.92a.8.8,0,1,0-1.212,1.046c.111.128,11.041,12.806,13.128,15.791Zm280.8,15.03a.8.8,0,0,0,.032-1.6c-.776-.032-19.023-.788-20.623-.788a.8.8,0,1,0,0,1.6c1.565,0,20.367.779,20.557.788Zm45.5,75.3a.832.832,0,0,0-.6.992.765.765,0,0,0,.942.569c1.259-.131,17.235,2.551,27.01,4.243a.827.827,0,0,0,.139.011.8.8,0,0,0,.136-1.59c-9.854-1.7-26.552-4.512-27.627-4.226ZM938.074,187.6l9.8-2.312,29.136,5.816,7.1-36.215-13.361-3.422,3.327-17.459,8.971,1.766,2.4-8.9a.8.8,0,0,0-1.547-.416l-2.006,7.454-9.085-1.79-3.88,20.375-1.945,8.63-18.891-5.752a.8.8,0,1,0-.466,1.531l20.543,6.254,2.279-10.121,11.8,3.023L979.93,167.9l-9.516-2.09a.8.8,0,0,0-.344,1.563l9.551,2.1-3.874,19.754-27.9-5.571-10.135,2.393a.8.8,0,0,0,.367,1.558Zm206.378,90.459a.8.8,0,0,0,.925-.651c.3-1.718,1.16-7.438-.194-8.943-1.293-1.439-10.689-4.709-13.791-4.514a1.827,1.827,0,0,0-1.414.635c-.95,1.366-2.8,12.312-3.522,16.8l-10.288-2.132a.8.8,0,1,0-.326,1.569l10.4,2.156c-.171,1.985-.487,6.6.136,7.965.384.847,1.731,1.843,12.891,2.941l.561.058a1.7,1.7,0,0,0,.192.013c.66,0,1.9-.611,3.212-8.143a.8.8,0,0,0-1.576-.273c-.486,2.8-1.331,6.065-1.875,6.787l-.358-.034c-9.882-.973-11.4-1.839-11.59-2.012-.4-.875-.2-5.1.064-7.84,1.193-7.46,2.745-15.659,3.345-16.866,1.6-.534,11.742,2.849,12.742,3.959.562.625.354,4.434-.192,7.6a.8.8,0,0,0,.651.926Z" transform="translate(14.639 0.872)"/>
      <path id="Path_402" data-name="Path 402" class="cls-4" d="M1344.516,5V3.376l-12.057-2.19L1332.682,0h-1.628c-.057.3-.117.608-.171.9l-4.958-.9h-8.958l13.612,2.472c-.856,4.507-1.574,8.343-2.174,11.595L1297.478,8.05,1298.915,0h-1.624l-6.839,38.486-1.59-.281L1295.711,0h-1.627l-.314,1.753L1285.564,0h-4.638c-.93,8.778-2.287,18.388-3.02,19.941a54.289,54.289,0,0,1-8.937-1.352l2.316-12.081L1274.845.4a.779.779,0,0,0,.1-.4h-1.715l-3.106,5.334c-3.2-.606-18.488-3.49-29.6-5.334h-10.75a.792.792,0,0,0,.285.085c.664.062,1.529.168,2.54.306l-1.558,9.533-18.67-3.583-.091.868c-.092.878-.893,8.6-.893,9.509,0,.886,0,1.253,17.609,4.324l1.006.175h.006c7.765,1.345,16.237,2.705,16.883,2.705.7,0,1.864,0,2.2-9.845l.021-.683-16.5-3.17,1.572-9.608c5.3.782,13.457,2.211,20.693,3.522l-4.93,27.192-20.714-3.66c-1.085-.229-12.411-2.611-24.951-5.174,3.486-15.745,4.453-20.8,4.7-22.5h-1.592c-.484,2.939-2.91,14.179-4.681,22.178-6.849-1.4-13.941-2.819-19.839-3.957L1186.882,0h-1.638L1181.3,17.92c-5.885-1.124-10.341-1.91-11.752-2a.827.827,0,0,0-.85.747.8.8,0,0,0,.747.851c1.409.091,6.113.928,12.294,2.116h.005c5.293,1.019,11.671,2.294,18,3.579l-4.934,23.1-34.95-6.088a.8.8,0,0,0-.274,1.577l8.043,1.4c-.6,2.533-2.412,10.16-2.991,12.011-.243.785-4.007.526-7.737-.531a.8.8,0,1,0-.437,1.54,25.294,25.294,0,0,0,6.232,1.056c1.686,0,3.1-.392,3.472-1.588.61-1.953,2.465-9.769,3.044-12.214l25.266,4.4-6.065,28.394-34.555-7.409a.8.8,0,1,0-.335,1.564l34.555,7.409-3.756,17.59-34.577-7.084h0l0,0-8.156-1.585,5.9-23.912,7.274,1.693a.815.815,0,0,0,.182.021.8.8,0,0,0,.181-1.579l-7.3-1.7c.836-4.48,1.7-9.231,2.454-13.6l7.745,1.5a.8.8,0,0,0,.3-1.571l-7.78-1.508c1.305-7.705,2.181-13.884,1.777-14.61-.208-.378-.85-1.511-19.487-4.488l3.2-16.748a.8.8,0,1,0-1.571-.3l-3.357,17.581v0l-5.49,28.75h-2.1l-27.291-5.851,1.651-9.236c10.357,2.288,14.026,2.76,15.4,2.76.63,0,.779-.1.875-.165l.322-.242.057-.338c.13-.779,2.22-13.233,2.337-13.945l2.011-8.593.037.009.146-.8c2.451-13.316,1.778-13.45.925-13.619a.8.8,0,0,0-.811,1.246c.117,1.091-.654,6.35-1.542,11.28-4.544-.931-10.045-2.079-15.184-3.18l2.073-11.609a.8.8,0,1,0-1.575-.282l-2.066,11.553c-7.246-1.563-13.468-2.977-14.742-3.454-.28-1.21-.137-6.661.178-11.515a.8.8,0,0,0-.043-.309h-1.5a.761.761,0,0,0-.056.2c-.76,11.691-.03,12.484.21,12.742.174.19.638.681,15.666,3.922l-1.676,9.383v0l-.339,1.9-42.64-9.192a.8.8,0,0,0-.338,1.565l42.7,9.2-1.848,10.341v0L1089.9,76.716l-18.462-3.586-25.079-4.875-21.653-4.549c1.018-4.525,6.086-27.207,7.2-34.777,1.283-8.719-2.538-14.194-4.93-16.68-1.11-1.156-12.137-3.781-24.044-6.339-.008,0-.013-.005-.021-.007h-.017c-3.234-.694-6.528-1.383-9.711-2.036L994.034,0h-1.639l-.773,3.547C983.788,1.949,976.881.608,973.685,0h-2.807a7.894,7.894,0,0,0-1.223,2.31,10.242,10.242,0,0,1-1.507,2.864c-1.2.434-10.557-1.368-18.911-3.357a.8.8,0,0,0-.372,1.558c8.437,2.006,18.786,4.181,20.175,3.116a9.186,9.186,0,0,0,2.09-3.564,14.618,14.618,0,0,1,.761-1.646c1.88.309,10,1.882,19.391,3.81l-8.715,39.971-2.042,9.363-42.3-8.687a.8.8,0,1,0-.322,1.569l42.28,8.684-7.02,32.2L932.73,80.012a.811.811,0,0,0-.943.626.8.8,0,0,0,.626.943l40.414,8.172-7.691,35.277a.8.8,0,1,0,1.564.342l7.865-36.081v0l7.188-32.972,41.82,8.787h0l22.47,4.722,24.332,4.728-1.851,10.488c-8.433-.806-9.16.072-9.4.366-.677.848-1.956,6.037-2.636,8.943l-.021,0-.16.8,0,.017v0l-2.672,13.119v0L1053,111.2l-14.256-3.532a.8.8,0,1,0-.384,1.553l14.3,3.545-1.242,5.672,0,0v0c-1.067,4.866-2.131,9.733-2.22,10.176-.192.96-.314,1.662,28.846,7.613l-9.472,47.415-86.269-18.839c1.626-7.8,2.817-13.354,3.041-14a.8.8,0,0,0-1.419-.733c-.541.943-8.388,39.607-11.736,56.187a.8.8,0,0,0,.626.942.83.83,0,0,0,.16.017.8.8,0,0,0,.783-.642c2.508-12.427,5.784-28.5,8.217-40.205l101.041,22.065-.009.032.809.142c.163.028,16.364,2.845,17.929,3.193.309.068.456.293.63.847-1.511,7.274-2.561,12.6-2.493,13.07.2,1.377,1.936,3.778,2.284,4.245a.8.8,0,1,0,1.287-.953,13.517,13.517,0,0,1-1.98-3.441c.015-.566.838-4.728,2.085-10.736.043.03.071.069.117.1,1.106.587,18.875,4.755,22.426,5.585a.821.821,0,0,0,.184.021.8.8,0,0,0,.182-1.579c-8.021-1.874-21.1-5.008-22.035-5.441-.166-.088-.3-.557-.4-.933v-.006c2.29-10.96,5.685-26.7,8.3-38.7a.8.8,0,1,0-1.563-.341c-1.964,9-5.453,25.068-7.954,37.013a2.18,2.18,0,0,0-.722-.306c-1.413-.314-13.838-2.483-17.192-3.068l7.478-37.217a.8.8,0,1,0-1.569-.317l-7.481,37.223-13.194-2.881,9.631-48.219v0l.386-1.934c21.479,4.83,25.866,5.507,26.919,5.507a.681.681,0,0,0,.363-.064c.418-.209,1.05-.526,3.492-14.706,2.168.443,8.361,1.707,14.556,2.967,3.844.779,7.687,1.555,10.57,2.129,5.585,1.113,5.588,1.112,5.755.3a.8.8,0,0,0-.76-.96c-1.147-.162-18.107-3.607-29.832-6.008l.329-1.662,3.084-15.594,5.859,3.116c-.361,1.451-.7,2.8-.979,3.876a42.94,42.94,0,0,0-1.139,4.841.782.782,0,0,0,.762.779h.038a.821.821,0,0,0,.8-.742c.032-.323.547-2.344,1.091-4.482,3.692-14.492,3.707-16.082,2.822-16.674a58.615,58.615,0,0,0-6.873-2.74l1.921-9.719,30.5,5.927,35.347,7.243h0l25.383,5.2L1197.443,159.3c-1.74-.462-5.878-1.569-7.8-2.116-2.613-.747-17.907-1.627-18.716-1.627h-.011a.8.8,0,0,0,.015,1.6c.659,0,15.908.889,18.274,1.564,1.957.56,6.185,1.689,7.891,2.143l-1.857,8.307L1142.3,159.5a.8.8,0,0,0-.288,1.574l17.413,3.18-5.254,28.811,13.943,3.25L1164.43,214.8l-22.7-4.984a.8.8,0,1,0-.345,1.564l22.742,4.991-4.529,23.98-40.284-7.632a.8.8,0,1,0-.3,1.573l7.161,1.357-5.811,27.483.715.2c2.76.8,15.425,4.386,20.148,4.386a3.906,3.906,0,0,0,1.359-.177c2.971-1.187,3.94-9.653,4.1-11.337a.8.8,0,1,0-1.592-.156c-.368,3.789-1.576,9.4-3.1,10.007-1.619.643-12.272-1.921-19.753-4.055l5.51-26.061,43.837,8.308-8.106,38.141v0l-4.016,18.892c-3.041-.651-7.094-1.526-7.458-1.633a.8.8,0,0,0-.5,1.521c.354.12,5.1,1.14,7.624,1.679l-.9,4.258a.792.792,0,0,0,0,.339l-11.852-1.9c-.63-.6-2.871-.86-6.681-.765a43.965,43.965,0,0,1,1.21-5.037,1.944,1.944,0,0,0-.149-1.7,4.326,4.326,0,0,0-2.6-1.586l2.777-13.762a.8.8,0,0,0-1.569-.316l-3.106,15.359.833.125a4,4,0,0,1,2.284,1,.354.354,0,0,1,.015.342,54.852,54.852,0,0,0-1.46,6.266l-.174.977.99-.037a33.833,33.833,0,0,1,6.307.222c-.064,1.366-.017,4.73.011,6.429l-41.334-6.582a.8.8,0,0,0-.252,1.579l24.535,3.908-4.863,27.251-25.1-5.564a.8.8,0,1,0-.347,1.563l28.312,6.277h7.4l-8.7-1.93,4.882-27.345,32.037,5.1-2.892,16.968v.012l-1.227,7.2h1.624l1.043-6.126,11.1,2.008-.743,4.117h1.626l5.274-29.3,13.933,1.786-1.964,16.463-11.451-1.483a.8.8,0,1,0-.207,1.587l11.5,1.491-.709,9.455h1.605l.694-9.248,14.973,1.94-.552,7.308h1.606l.6-7.913,2.909-17.162,2.451.314,18.285,2.345a.811.811,0,0,0,.9-.694.8.8,0,0,0-.691-.894l-17.487-2.241,8.121-61.462,22.867,4.333a16.685,16.685,0,0,0-1.932,3.821c-.534,2.266-9.244,52.855-9.615,55.008a.8.8,0,0,0,.654.924.813.813,0,0,0,.137.011.8.8,0,0,0,.79-.664c.09-.526,9.071-52.694,9.594-54.912a19.209,19.209,0,0,1,2.06-3.867l60.032,11.376-12.457,61.121-1.409,10.559h1.614l1.373-10.293,1.032-5.071c2.973.386,13.884,1.764,18.392,1.764.181,0,.35,0,.508-.006,3.6-.1,18.445-.6,24.94-.819l-.017,1.34a.8.8,0,0,0,.79.811h.011a.8.8,0,0,0,.8-.79c0-.085.009-.626.018-1.416l1.462-.049a.8.8,0,1,0-.027-1.6h-.026l-1.391.048c.028-2.9.049-7.014-.037-8.382-.053-.807-.12-1.912-13.254-5.325-4.973-1.295-9.976-2.429-11.828-2.842l1.366-7.449,26.117,6.211v-1.643l-25.828-6.144,4.913-26.793,20.915,3.964v-1.63l-20.639-3.912,6.289-37.963c1.369.091,2.529.136,3.463.136,1.656,0,2.631-.139,2.913-.419,1.014-1,2.148-5.693,2.657-8,1.766.384,3.546.779,5.317,1.174v-1.643c-28.44-6.405-29.187-5.13-29.508-4.576-.779,1.355-3.618,18.414-4.486,23.713l-29.5-8.609,9.923-47.013,32.933,6.017c-.322,3.742-1.1,13.236-.774,14.7.122.544.44,1.942,21.413,5.9V213.25c-9.46-1.816-18.519-3.881-19.875-4.781-.149-1.5.38-8.777.817-13.887l3.34.611a.785.785,0,0,0,.555.419.808.808,0,0,0,.143.013.8.8,0,0,0,.53-.208l14.489,2.647v-1.626l-14.034-2.566,1.7-9.421c4.1,1.067,9.2,2.384,12.331,3.159v-1.649c-4.093-1.019-11.451-2.928-17.157-4.426.526-3.485,1.11-7.367,1.676-11.173l9.391,1.86h0l6.086,1.206V171.8l-4.995-.989,1.513-7.72a30.943,30.943,0,0,0,3.481.915v-1.633a32.854,32.854,0,0,1-3.817-1.089l-.878-.317-1.87,9.53-3.607-.715c.338-2.511,1.19-8.87,1.19-9.5,0-.464-.011-1.229-4.642-2.551.32-2.226.572-4.047.729-5.27l12.9,3.095v-1.646l-12.719-3.054v-.025c0-1.1,2.319-17.038,3.956-28.017l8.761,2.017v-1.643l-10.09-2.322-.006.043-32.133-5.723c-3.206-.6-19.318-3.889-23.012-4.644l4.681-26.351c26.349,6.435,33.467,7.646,35.537,7.646.712,0,.826-.142.924-.265.4-.5,2-8.762,3.946-19.543l20.151,4.22V74.608l-19.867-4.162c1.325-7.364,2.79-15.733,4.143-23.563l15.724,2.781V48.037l-52.49-9.272L1297.2,9.627l30.918,6.016c-.384,2.1-.715,3.929-1,5.539-3.116-.562-14.42-2.6-15.175-2.755a.8.8,0,1,0-.314,1.569c.779.156,12.07,2.2,15.214,2.764-1.624,9.31-1.462,9.733-1.393,9.912.326.814,1.377.87,3.12.96,1.544.082,4.13.218,4.439,1.133.845,2.487,7.539,5.333,11.5,6.183V39.315c-3.784-.877-9.458-3.511-9.989-5.069-.658-1.942-3.549-2.094-5.87-2.215-.553-.03-1.261-.066-1.659-.134.109-1.214.72-4.886,1.563-9.637l0-.006v-.009c.386-2.177.822-4.578,1.281-7.075l0-.009V15.15c.747-4.071,1.555-8.391,2.313-12.393ZM1229.473,19.508c-7.371-1.289-14.666-2.66-16.46-3.255.1-1.363.472-5.109.771-8.01l17,3.262Zm17.995-4.8a37.217,37.217,0,0,1-.877,7.584c-1.669-.194-8.463-1.286-15.542-2.511l1.305-7.975Zm-145.3,2.5c4.023.86,8.994,1.9,15.143,3.157l-1.834,7.833-14.834-2.465Zm-1.8,10.1,14.8,2.463L1113.042,42.4c-1.846-.085-8.58-1.387-14.883-2.775ZM992.854,5.417c2.945.606,5.987,1.243,8.975,1.883-1.956,9.878-4.344,20.62-5.01,21.608-.64.473-4.589-.085-8.818-1.227Zm1.313,51.873L982.1,54.754l1.872-8.583c4.478.947,9.372,2.191,10.256,2.748a56.244,56.244,0,0,1-.059,8.37Zm28.979,6.089-27.395-5.757c.2-3.43.4-8.582-.141-9.546-.176-.314-.706-1.252-11.3-3.47l3.351-15.357a34.773,34.773,0,0,0,7.9,1.392,3.255,3.255,0,0,0,2.48-.7c1.133-1.4,4.212-16.518,5.357-22.306,11.23,2.423,21.362,4.813,22.436,5.725.16.168.331.355.5.553-1.7,1.8-6.76,7.227-7.417,8.705-.768,1.731-4.29,18.854-4.322,19.023a.8.8,0,0,0,.63.941.771.771,0,0,0,.156.016.8.8,0,0,0,.784-.645c.4-2.013,3.6-17.3,4.215-18.684.44-.992,4.258-5.223,6.956-8.087a18.007,18.007,0,0,1,2.991,13.515c-1.108,7.528-6.179,30.216-7.182,34.683Zm123.117-2.46-6.318-1.47,2.482-13.29,6.265,1.214c-.793,4.61-1.678,9.509-2.429,13.545Zm-13.728-32.34c8.166,1.311,16.851,2.993,18.353,3.743.043,1.334-.822,6.969-1.927,13.475l-7.812-1.515-2.766,14.806-11.177-2.6ZM1071.95,74.86l17.658,3.431-4.7,23.553-7.364-1.94c1.074-4.179,2.01-9.032.925-10.115-1-1-6.335-3.442-8.38-4.357Zm-11.609,11.618c.873-.32,5.069-.144,8.639.213,2.914,1.291,7.66,3.537,8.308,4.173.365.724-.352,4.89-1.3,8.63l-17.948-4.734a66.894,66.894,0,0,1,2.3-8.281Zm-2.636,9.847,18.654,4.923h0l8.228,2.171-2.1,10.533-27.122-6.121Zm20.643,38.336c-9.818-2.008-24.716-5.232-27.473-6.273.3-1.373,1.093-5.021,1.924-8.815l27.317,6.237Zm-25.207-16.65,1.889-8.614,27.142,6.126-1.742,8.719Zm56.5,4.66-.019,0-.139.816c-1.031,6.03-2.326,12.651-2.886,14.263-2.652-.314-16.808-3.39-26.137-5.485l3.273-16.387,26.089,5.888Zm.491-2.479-26.085-5.888,3.814-19.1,25.979,6.252Zm12.649-22.53c.074,1.174-.907,5.521-1.9,9.587l-5.93-3.152,1.741-8.8c2.2.777,5.133,1.868,6.092,2.367Zm-8.632,2.226-25.975-6.25,3.005-15.039,26.178,5.087Zm3.516-17.774-26.189-5.09,4.467-25,26.549,5.694Zm1.571.305,4.852-24.524h2.092l19.741,4.591-5.912,23.969ZM1278.654,21.4c.5-.2,1.654-.67,3.78-20.434l11.056,2.362-6.2,34.6-20.968-3.705,2.367-14.055C1271.794,20.818,1277.438,21.9,1278.654,21.4Zm-22.2-16.976c6.069,1.1,11.237,2.077,13.137,2.436l-2.184,11.392-.017,0-2.642,15.693-13.218-2.334Zm-26.769,24.951,35.58,6.286h.005L1287,39.5l-9.11,50.83c-3.024.019-9.146.046-9.8,0-1.061-.075-1.409,1.254-1.951,3.678-.263,1.163-.749,3.332-1.133,3.652a9.044,9.044,0,0,1-3.18-.068c-1.7-.2-2.608-.292-3.165.126-.261.2-.944.734-2.318,10.446l-11.405-1.345-12.977-2.262c2.569-11.419,2.4-11.9,2.316-12.155a.8.8,0,0,0-1.547.386c-.025.8-1.192,6.344-2.348,11.494L1212.1,101.1l7.479-30.509,30.009,6.258c-1.459,5.126-3.082,10.57-3.394,11.154a.8.8,0,1,0,1.39.8c.486-.843,2.76-8.755,3.575-11.622l19.2,4a.81.81,0,0,0,.164.017.8.8,0,0,0,.162-1.584l-50.729-10.579.669-2.729Zm47.924,62.558-3.287,18.345-16.385-1.929a73.158,73.158,0,0,1,1.737-9.325,13.868,13.868,0,0,1,1.966.155c1.953.235,3.3.352,4.151-.124.918-.51,1.334-2.115,1.914-4.7a20.744,20.744,0,0,1,.636-2.417c1.569.036,6.972.009,9.269-.005Zm-76.286-68.4c12.1,2.465,23.687,4.888,26.79,5.539l-5.418,22.1-26.3-4.58ZM1185.9,95.753l3.922-18.359,6.245-29.237,26.249,4.572-3.049,12.437c-3.687-.848-12.409-2.8-13.593-2.607a.781.781,0,0,0-.64.888.821.821,0,0,0,.889.692c.776-.085,7.069,1.224,12.962,2.583l-2.352,9.591-13.071-2.22a.8.8,0,0,0-.269,1.579l12.958,2.2L1213.615,88.2l-12.755-2.54a.8.8,0,0,0-.313,1.569l12.687,2.527-2.708,11.047Zm25.841,6.9,32.976,5.746,12.206,1.441h.006l17.111,2.017-.019.107h.243l.619,5.413-1.516,10.789,0,0v0l-4.023,28.611-21.261-3.72a.8.8,0,1,0-.278,1.576l13.551,2.371-.852,12.646a3.831,3.831,0,0,0-.082,1.985.744.744,0,0,0,.03.094c.011.018.011.043.021.059a.58.58,0,0,0,.1.149.3.3,0,0,0,.053.051l.035.029a.777.777,0,0,0,.227.144,23.947,23.947,0,0,0,5.076,1.475l-2.725,7.94-1.9-.346h-.007l-19.542-3.571c.768-4.774,2.684-16.729,2.684-17.389a.882.882,0,0,0-.519-.794c-1.214-.651-10.245-2.324-14.072-3.015-12.832-2.316-13.225-2.052-13.511-1.861a.8.8,0,0,0,.624,1.445c2.038-.06,22.526,3.717,25.817,4.7-.294,2.175-1.619,10.533-2.6,16.621l-43.4-7.929Zm52.606,62.414a21.434,21.434,0,0,1,3.829.027l-.331,2.342,24.649,2.672-1.123,6.5c-10.568-1.718-26.744-4.572-29.353-5.613l.082-1.232a17.682,17.682,0,0,1,2.246-4.7Zm-1.932.05.526-7.833,6.179,1.082-.72,5.136c-1.967-.143-4.147-.2-4.82.149a4.519,4.519,0,0,0-1.163,1.466Zm7.246.907,1.038-7.383,23.077,4.037-1.01,5.85Zm1.261-8.969,2.436-17.333,23.614,4.445-2.412,13.969v0l-.512,2.965Zm24.567,5.115v-.006l.5-2.9,15.8,3.386-1.737,8.8-15.7-2.7Zm.774-4.489,1.422-8.239c2.43.547,10.391,2.672,15.886,4.168l-1.473,7.465Zm1.692-9.807.582-3.372,16.072,3.861-.726,3.674c-4.607-1.254-13.069-3.537-15.928-4.162Zm.814-14.122-1.526,8.836-23.662-4.452,1.259-8.947,24.112,3.5-.184,1.061Zm-102.337,37.249,63.439,11.592a30.1,30.1,0,0,0-3.775,8.448c-.644,3.18-1.665,9.854-2.042,12.342-6.168-2.372-17.226-4.194-21.435-4.834l-2.382-.574v0l-.683-.162-.053-.011,0,0c-19.466-4.621-20.5-3.76-20.842-3.477-1.126.939-2.322,7.463-2.939,11.3l-2.3,9.028c-.4,1.435-2.342,8.673-1.78,10.736.44,1.615,7.556,3.184,21.12,4.668-3.3,18.375-3.2,18.671-3.143,18.853.09.267.384,1.663.644,2.933l-43.45-8.233Zm51.664,52.495-18.3-3.561c.5-2.942.988-5.805,1.435-8.447l14.631,2.2a.772.772,0,0,0,.121.009.8.8,0,0,0,.117-1.592l-14.6-2.2c.7-4.119,1.274-7.566,1.624-9.661,8.194,1.276,16.865,3.193,21.066,4.818a.776.776,0,0,0,.39.19.767.767,0,0,0,.1.009c1.209.5,1.957.978,2.077,1.387.126,1.147-1.684,14.46-2.839,22.5l-2.159,8.463a29.533,29.533,0,0,1-6.417-.408,28.507,28.507,0,0,1-2.732-4.061c-.194-.4-.7-1.445-14.479-3.561.461-2.65.931-5.376,1.392-8.068l18.26,3.554a.822.822,0,0,0,.155.015.8.8,0,0,0,.154-1.587Zm-42.925-9.255,1.921-7.534,19.267,3.532c-.53,2.9-1.021,5.583-1.473,8.064Zm19.429,5.637c-.584,3.208-1.1,6.059-1.558,8.593-9.05-1-18.691-2.575-19.882-3.6-.245-1.321.776-5.953,1.6-9.075Zm-17.182-14.74c.7-4.147,1.686-8.678,2.212-9.516,1.535-.181,10.472,1.609,18.758,3.558-.624,3.392-1.2,6.542-1.742,9.485ZM1194.85,170.72l-19.62,72.59-1.689-.32,19.946-72.518Zm-38.83,21.125L1161,164.535l12.974,2.371-5.546,27.83Zm5.151,48.8,4.674-24.759,3.984-20,0,0v0l5.717-28.69,16.357,2.988-19.94,72.508Zm11.987,3.9,1.737.329-7.673,37.4-2-.374Zm-13.366,62.9.958-4.508a.781.781,0,0,0,.227-1.067l3.91-18.4,2.015.374-4.966,24.2-2.241-.359a.788.788,0,0,0,.1-.24Zm11.779,28.366-11.111-2.012,3.031-17.8-16.808-2.676c-.037-2.035-.066-4.731-.037-6.109l15.754,2.519c1.32.369,10.486,1.789,13.465,2.244Zm34.445-3.2L1191,330.658l1.964-16.467,15.826,2.03Zm6.236-17.555-35.334-4.53c-4.383-.667-11.184-1.74-13.409-2.175l4.968-24.214,46.719,8.641Zm3.152-23.868-46.607-8.616,7.671-37.394,43.917,8.321Zm6.328-40.119c-.2-.956-.427-2.038-.555-2.508.213-2.14,5.272-29.982,8.77-49l1.608.388c-3.236,19.345-8.137,47.959-8.7,49.419a10.924,10.924,0,0,1-1.125,1.7Zm24.005,5.6-22.955-4.351a13.474,13.474,0,0,0,1.509-2.239c.322-.646,1.85-9.045,3.572-18.915,6,.928,12.374,2.18,13.368,2.8a30.131,30.131,0,0,0,2.983,4.38c.211.232.83.911,7.278.878a88.678,88.678,0,0,1-1.644,10.515,39.62,39.62,0,0,1-3.223,5.537q-.455.711-.889,1.4Zm1.693.32c.181-.288.365-.573.544-.854a38.35,38.35,0,0,0,3.4-5.894c.8-2.405,1.734-10.992,1.81-11.69l2.094-8.225,23.87,6.1-5.6,25.506Zm93.1,60.291c.071,1.451.05,5.411.023,8.193-6.456.217-21.395.717-25,.82-.466.011-1.046,0-1.7-.027l2.9-15.821c10.934,2.414,22.5,5.547,23.777,6.835Zm-28.291,8.9c-5.037-.337-12.689-1.289-15.22-1.614l11.1-54.444,13.919,2.639Zm4.08-104.977c1.843-.2,11.116,1.519,21.317,3.7-.683,3.087-1.625,6.414-2.153,7.122-1.473.395-11.579-.576-20.989-1.793.792-4.4,1.494-8,1.825-9.026Zm-4.357,23.852c.63-3.869,1.465-8.83,2.25-13.248q8.954,1.163,14.356,1.594l-6.257,37.782-13.914-2.636Zm-1.686.442-3.453,22.752-31.709-6.008,5.574-25.38Zm-30.8-10.625-23.886-6.111c1.191-8.279,3.016-21.461,2.721-22.477-.224-.779-1.238-1.532-2.74-2.244.306-2.038,1.412-9.325,2.09-12.673.63-3.116,3.073-7.148,3.9-8.455l27.809,5.08Zm10.2-48.45-24.848-4.54,2.707-7.886c4.424.939,11.675,2.279,23.561,4.2Zm1.574.288,2.826-16.368,15.661,2.691-3.25,16.459Zm39.385-2.657-1.725,9.536-3.283-.6c.233-1.529.8-5.233,1.494-9.857.879.231,2.1.549,3.514.918Zm-4.853-2.753a.785.785,0,0,0-.484.526.8.8,0,0,0,.281.832c-.529,3.494-1.048,6.911-1.526,10.044l-15.992-2.922,8.1-41.033,13.905,3.34c-.518,4.037-2.426,16.891-4.284,29.213Zm8.136-20.757c-.114,1.19-.7,5.667-1.142,8.932l-3.5-.694c.5-3.385.985-6.646,1.389-9.445a18.733,18.733,0,0,1,3.253,1.206Zm-3.693-10.064-31.418-7.545,1.385-8.023,31.141,7.135c-.563,4-1.008,7.3-1.108,8.434Zm-26.94-33.488,30.9,5.5c-.208,1.4-.608,4.1-1.08,7.3l-30.855-6.814Zm29.59,14.39c-.429,2.921-.894,6.121-1.315,9.075l-31.1-7.125,1.516-8.772ZM1301.713,116.7l-2.489,14.418-24.161-3.511,1.4-10,2.369-5.526c3.42.7,18.969,3.877,22.875,4.621Zm-25.837-4.736h1.267l-1,2.337Zm1.808-1.59-1.75-.011,12.651-70.584,1.59.282Zm41.524-20.046c-3.2-.189-22.5-4.68-34.965-7.721L1287.5,64.3l35.3,7.4c-1.657,9.185-3.089,16.794-3.586,18.635Zm-21.628-25.553a76.937,76.937,0,0,1,1.4-9.66,123.072,123.072,0,0,1,15.982.971c.005,1.555-.485,7.006-1.027,12.115Zm29.632-18.172c-1.245,7.193-2.758,15.8-4.144,23.51l-7.561-1.583c1.358-12.719,1.046-13.2.856-13.485-.216-.323-.566-.432-1.273-.555-2.079-.355-16.018-1.537-17.125-.709-.288.217-.953.745-1.959,10.661l-8.239-1.725,3.976-22.382ZM1069.918,341.5l2.525-9.393a.8.8,0,1,0-1.547-.416l-2.636,9.81Zm-402.048,0a106.99,106.99,0,0,1,4.608-9.837c2.021.546,12.312,5.347,21.675,9.837h3.7C673,329.45,672.219,329.891,671.794,330.133c-.733.416-2.638,4.242-5.665,11.366ZM638.9,312.023a.8.8,0,0,0-1.072.366L623.6,341.5h1.782l13.887-28.406a.8.8,0,0,0-.367-1.07ZM342,341.524l5.455-6.723a.8.8,0,1,0-1.243-1.011l-6.273,7.734Zm-21.8-2.779,5.555,2.779h3.579l-8.42-4.21a.8.8,0,1,0-.715,1.43Z" transform="translate(21.482 0.007)"/>
      <path id="Path_403" data-name="Path 403" class="cls-4" d="M1126.058,292.656c-2.263-.438-7.4-1.435-14.41-2.792l2.227-27.414a.775.775,0,0,0,.1-1.172l2.825-34.787a.8.8,0,1,0-1.594-.128l-2.8,34.432-39.72-8.121,2.355-12.169,17.606,3.458-.815,7.99a.8.8,0,0,0,.715.877.72.72,0,0,0,.082,0,.8.8,0,0,0,.8-.719l.889-8.719,2.726-20.74a.8.8,0,0,0-1.587-.209l-2.618,19.922-17.491-3.436,3.823-19.735a.8.8,0,1,0-1.572-.3l-3.82,19.732L1035.2,231.05l2.907-14.789a.8.8,0,1,0-1.571-.309l-3.063,15.574-2.487,12.663c-3.292-.568-17.278-3.186-27.253-5.066l2.5-14.164.747-.331-.6-.529,3.271-18.555a.8.8,0,1,0-1.577-.277l-3.077,17.461a20.146,20.146,0,0,1-5.227-10.8l-.011-.085c-.15-1.219-.041-6.424.015-8.359a.8.8,0,0,0-.777-.822.79.79,0,0,0-.822.776c-.022.651-.164,5.822-.05,8.006-18.157,5.788-51.161,16.221-56.6,17.63L937.786,215.4l.046-.018-4.909-14.212a.8.8,0,0,0-1.513.523l4.394,12.721-22.031,8c-1.887-5.98-4.313-13.427-4.752-13.675l-.395.7.014.039-.722.323c.261.587,2.568,7.483,4.388,13.148l-53.4,19.383L854.7,227.8c0-.013-.014-.021-.017-.032a.345.345,0,0,0-.008-.038c-.075-.192-7.617-19.344-8.132-23.117-.424-3.1,2.416-18.566,3.548-24.274l.88-3.821,23.329,5.656,3.169-6.83L948.3,146.222a.8.8,0,1,0-.608-1.483L915.9,157.812a.764.764,0,0,0-.029-.19c-.032-.09-3.2-9.007-3.527-10.149a113.785,113.785,0,0,1,2.238-12.134c19.131,3.628,23.521,4.177,24.654,4.177a.833.833,0,0,0,.429-.066c1.4-.7,1.686-6,1.686-6.051,0-.839-.017-1.567-25.132-5.291.63-2.639,1.171-4.7,1.459-5.413,2.191-.352,16.154,2.5,28.56,5.449a.8.8,0,0,0,.369-1.558c-29.038-6.91-29.9-5.441-30.225-4.888a63.458,63.458,0,0,0-1.807,6.649.787.787,0,0,0-.118.309.751.751,0,0,0,.007.149c-.4,1.67-.826,3.5-1.241,5.354a.764.764,0,0,0-.041.1.733.733,0,0,0,0,.077c-1.1,4.912-2.108,9.9-2.363,12.241-9.778-2.877-10.316-2.028-10.623-1.5l-.272.446a13.02,13.02,0,0,0-1.654,3.3l-19.423-3.234c1.733-8.36,3.654-17.413,4.162-18.761a15.362,15.362,0,0,1,4.792-2.743,7.663,7.663,0,0,0,.424,2.149c1.185,2.958,6.321,3.655,10.708,3.655a37.56,37.56,0,0,0,6.652-.525c.537-.179,1.534-.512,4.852-23.1a.8.8,0,0,0-1.584-.235c-1.133,7.716-2.551,16.159-3.452,20-1.733-.384-12.091-2.676-16.066-3.359-.015-5.53,1.99-15.683,2.951-19.892a.8.8,0,1,0-1.558-.356c-.365,1.59-2.983,13.293-2.985,20.078-1.556.12-4.3,2.011-5.835,3.161-.446.335-.857,1.413-4.8,20.447l0,.011v.009c-.5,2.412-1.05,5.094-1.67,8.115-.832,4.069-1.573,7.676-1.868,9-4.794-.338-40.591-6.922-72.256-12.913l4.223-21.382v0l1.4-7.062,21.041,4.309a.809.809,0,0,0,.162.017.8.8,0,0,0,.16-1.585l-21.05-4.314,3.048-15.335,19.284,3.817a.8.8,0,1,0,.312-1.571l-19.284-3.818,3.183-16.018a.8.8,0,0,0-1.571-.312l-3.34,16.8-3.357,16.9-1.5,7.574-44.5,36.258-33.822-42.374c2.286-1.919,9.709-8.367,17.895-15.547,8.356,8.839,20.348,21.687,22.194,24.092-1.277,1.449-7.325,6.662-11.568,10.2a.8.8,0,1,0,1.025,1.229c12.294-10.245,12.294-10.981,12.294-11.419,0-.389-.011-1.121-22.745-25.153,4.984-4.375,10.149-8.934,14.539-12.846l13.468,15.2c-1.287,1.348-2.166,2.305-2.407,2.655-1.49,2.153,5.106,9.524,10.9,15.328a.8.8,0,0,0,1.131-1.131c-5.371-5.379-10.949-12.027-10.719-13.286,1.131-1.636,19.512-19.874,26.5-26.765a.8.8,0,0,0-1.123-1.14c-.811.8-16.064,15.848-23.168,23.182L760.521,91.711l2.088-1.868a18.663,18.663,0,0,0,6.826-1.948c2.2-1.369,9.457-5.635,10.441-6.211l6.771-1.419a.8.8,0,0,0-.329-1.564l-6.865,1.435-8.431,1a13.679,13.679,0,0,0,.19-3.316,11.1,11.1,0,0,1,.024-1.639c.772-1.209,9.148-8,16.738-13.859A.8.8,0,0,0,787,61.05c-7.751,5.982-17.047,13.393-17.316,14.738a10.117,10.117,0,0,0-.068,2.072c.035,1.308.08,2.938-.473,3.767-.416.55-4.593,4.35-10.258,9.406-.005.005-.013.006-.019.011l-.014.021c-4.474,3.991-9.867,8.762-15.069,13.334l-7.438-10.149L759.931,72.94a.8.8,0,1,0-1.074-1.19l-41.487,37.485a.8.8,0,0,0,1.074,1.189L735.15,95.329l7.428,10.128c-8.879,7.8-16.933,14.793-18.494,16.014-3.033,2.373-48.292,38.024-48.749,38.383a.8.8,0,1,0,.99,1.259c.123-.1,3.479-2.743,8.377-6.6,1.082,2.679,4.061,9.954,5.193,11.654.493.736,4.3,4.941,9,10.046L692.8,181.66a.8.8,0,1,0,1.067,1.193l6.111-5.462c7.118,7.72,15.78,16.987,18.2,19.569-4.751,3.5-6.83,5.037-7.75,5.784a.789.789,0,0,0-.208-.622.8.8,0,0,0-1.133-.029c-.064.062-3.276,3.112-6.809,6.418-10.106-12.7-25.644-32.645-26.8-35.226.48-.939,3.319-3.778,5.859-6.03a.8.8,0,0,0-1.064-1.2c-1.406,1.249-6.022,5.443-6.407,6.984-.111.445-.435,1.806,27.238,36.566-3.314,3.092-6.634,6.145-7.7,6.974-2.252,1.75-16.207,14.928-17.017,16.384-.143.256-.537,1.092-1.345,2.809-.683,1.459-1.846,3.929-3.135,6.593-2.956-1.236-29.444-12.341-39.224-17.331-2.252-1.147-5.94-2.953-10.335-5.076l0,0h-.006c-6.108-2.951-13.575-6.51-20.465-9.782h-.005c-4.945-2.348-9.578-4.54-13.2-6.252h0c-3.272-1.547-5.714-2.7-6.79-3.2a18,18,0,0,0,1.146-3.359c-.018-1.425-2.787-3.022-13.472-7.769-2.2-.977-4.689-2.081-5.122-2.4a.8.8,0,0,0-1.259.982c.277.416.973.765,5.731,2.879,3.808,1.69,11.657,5.176,12.511,6.405a21.954,21.954,0,0,1-1.191,3.314c-.008.016-.021.025-.028.039a.745.745,0,0,0-.018.075c-2.761,6.666-9.274,20.281-10.763,22.176a42.317,42.317,0,0,1-4.735-2.275c-5.621-2.933-8.407-4.229-9.664-3.458-1.51.931-3.244,4.045-4,5.5l-13.062-6.382-11.9-5.709,13.116-26.026,11.37,5.9a.8.8,0,0,0,.736-1.421l-43.3-22.449c1.942-4.021,3.834-7.938,5.565-11.517L534.641,166.3a.8.8,0,0,0,.747-1.417l-21.162-11.1,7.406-15.3c.328-.423.944-1.8,1.814-7.057l16.8,1,.049,0a.8.8,0,1,0,.047-1.6L485.97,127.6c.672-4.35,1.3-7.435,1.547-8.345,1.277-.537,7.711-.459,19.138.224,1.54.094,2.292.139,2.57.139,1.467,0,7.1-5.838,11.568-10.736a.8.8,0,0,0-1.185-1.078c-1.733,1.9-3.583,3.853-5.243,5.539l-21.8-24.054a.8.8,0,0,0-1.185,1.075l21.856,24.115a23.872,23.872,0,0,1-4.013,3.539c-.239,0-1.224-.059-2.472-.133-18.673-1.121-20.319-.459-20.7.683a85.774,85.774,0,0,0-1.689,8.939l-71.128-4.22h-.006l-24.949-1.48c.519-9.7.933-16.875,1.064-17.722a.8.8,0,0,0-1.293-.839c-.249.22-.448.406-1.862,27.578H381.5l-10.384,5.475v9.861l14.135,3.187c-.368,7.361-.79,15.9-1.273,25.815v0c-.969,20.415-2.757,51.524-3.708,53.551-1.056,1.928-22.735,11.209-25.274,11.321-1.229-.1-4.52-.3-6.056-.4l4.93-67.385a.8.8,0,1,0-1.6-.117L347.3,240.088c-1.3,1.7-10.768,14.25-15.163,24.541a42.267,42.267,0,0,0-3.246,13.85.771.771,0,0,0-.007.107c-.079,1.227-.111,2.391-.107,3.463a78.607,78.607,0,0,1-24.981-11.9v0l-.576-.419-.014-.011-6.222-4.533c-4.947-3.767-18.135-14.015-19.739-16.2a27.509,27.509,0,0,1-3.3-6.6.8.8,0,0,0-1.061-.69l-.384.135-.121.386c-.238.765,1.966,5.523,3.575,7.712,1.865,2.543,16.1,13.5,19.4,16.025l-16.632,20.407c-5.139-3.528-11.707-8.3-17.816-12.91a.8.8,0,1,0-.963,1.277c22.112,16.682,26.789,18.654,28.026,18.654a.683.683,0,0,0,.433-.128c1.569-1.046,11.564-16.968,14.541-21.744a80.281,80.281,0,0,0,25.863,12.2c.048,1.424.139,2.657.213,3.639.056.722.1,1.325.114,1.793.077,2.844-16.366,36.929-19.542,42.256a20.451,20.451,0,0,1-5.251,6.038h2.5a23.991,23.991,0,0,0,4.13-5.219c2.508-4.2,19.867-39.432,19.768-43.12-.013-.489-.061-1.117-.117-1.872-.075-.967-.158-2.126-.209-3.426a.79.79,0,0,0-.035-1.3c-.009-.6-.011-1.219,0-1.868l24.329,28.192a.794.794,0,0,0,.732,1.11.809.809,0,0,0,.2-.035l23.745,27.514H381.5l-24.6-28.5,32.144-28.43,5.339,5.338a.8.8,0,0,0,1.131-1.131l-6.4-6.4-33.258,29.414L330.495,278.3a40.37,40.37,0,0,1,3.119-13.048c4.215-9.874,13.23-21.92,14.849-24.048,1.27.075,5.093.31,6.4.418l.056,0c1.355,0,9.893-3.244,16.982-6.488.139,1.116.348,2.833.456,3.9a8.08,8.08,0,0,0,1.579,2.512.782.782,0,0,0,.171.22c3.093,3.9,9.611,10.8,14.09,15.445-2.367,2.207-4.987,4.634-7.766,7.2l0,0,0,0c-2.589,2.386-5.31,4.885-8.094,7.435-10.416-12.078-10.746-12.088-11.131-12.088-.941,0-4.691,3.4-4.758,4.58-.077,1.387,6.3,7.609,7.09,7.766.352.072,1.071.21,4.162-3.148,1.089,1.253,2.254,2.6,3.447,3.978-7.431,6.8-15.19,13.852-21.819,19.845l-.264.238v.355a4.369,4.369,0,0,0,2.39,2.973.5.5,0,0,0,.139.023c.363,0,1.259-.544,6.491-5.226l2.705,3.177c-3.133,2.794-3.314,3.258-3.383,3.433a1.32,1.32,0,0,0,.2,1.15c.518.875,2.254,2.643,3.429,2.8a1.121,1.121,0,0,0,.141.011c1.189,0,2.855-1.878,4.085-3.52l17.083-14.672-.009-.011,7.694-6.864c5.309,6.113,5.72,6.12,6.062,6.12.963,0,2.663-1.729,3.409-2.919a3.308,3.308,0,0,0,.514-3.3,15.466,15.466,0,0,0-1.992-2.817,11.132,11.132,0,0,1-1.255-1.708c.709-1.005,5.142-5.521,8.51-8.854,2.033,2.156,9.188,9.726,12.518,12.909,1.073,1.024,6.713,4.144,14.413,8.172-.742.8-1.508,1.59-2.271,2.373a47.091,47.091,0,0,0-5.136,5.852c-2.728,4.01-6.326,11.9-5.611,14.044a6.072,6.072,0,0,0,2.13,1.979l-10.038,19.6c-1.054-.666-2.028-1.284-2.843-1.8a62.594,62.594,0,0,0-5.489-3.356.784.784,0,0,0-.984.483.816.816,0,0,0,.456,1.027c.369.157,2.8,1.7,5.159,3.2,1.321.84,2.522,1.6,3.642,2.3l.005.005h0c8.937,5.62,11.779,7.126,12.9,7.126a.811.811,0,0,0,.758-.457c.034-.053.96-1.626,2.258-3.908l9.037,4.676h3.483l-11.73-6.07c3.4-6.03,8.371-15.216,7.88-16.546l-.207-.446-.381-.115a112.306,112.306,0,0,1-12.461-6.638c-.021-.011-.034-.032-.057-.043s-.018,0-.027-.009a8.137,8.137,0,0,1-1.979-1.513c-.373-1.124,2.212-7.924,5.417-12.635a46.064,46.064,0,0,1,4.959-5.637c.875-.9,1.75-1.806,2.593-2.723,9.846,5.125,22.614,11.529,33.58,16.972-2.217,4.414-13.579,27.034-14.189,28.3a.8.8,0,1,0,1.441.7c.6-1.234,12.006-23.948,14.183-28.28,11.638,5.773,20.933,10.314,21.95,10.811a.8.8,0,1,0,.7-1.439c-3.978-1.942-8.576-4.2-13.484-6.617L499.9,262.114c4.465,2.156,8.813,4.263,12.778,6.193a.8.8,0,0,0,.7-1.439c-20.652-10.048-55.462-26.84-57.391-26.84h-.028c-.813.092-1.927.217-18.569,36.594l-.745,1.624a20.916,20.916,0,0,1-3.344,4.8c-7.86-4.1-13.418-7.164-14.407-8.111-3.833-3.66-12.831-13.244-13.011-13.436l-7.1-8.246c2.491-2.412,4.258-4.179,4.52-4.593.3-.48.907-1.576,1.669-3.016,2.629,1.729,4.728,3.1,6.4,4.189-5.173,4.149-4.72,4.8-4.343,5.332.038.056,3.994,5.53,5.651,5.669,1,.078,1.806-1.078,3.287-3.31.37-.555.889-1.334,1.212-1.726,2.761,1.691,14.486,8.642,16.68,8.642a.539.539,0,0,0,.235-.043c.291-.146.974-.487,5.8-11.694l.286-.662-.035-.021L443.427,243l.224.11.126-1.134c.249-2.249,8.627-20.17,14.2-31.669l0,0,10.463-21.947c.336-.621,4.529-8.341,8.057-14.994l21.621,10.121c-5.16,10.712-9.37,19.5-10.068,21.084-1.814,4.124-3.817,4.354-5.939,4.6-2.622.3-4.22,7.7-4.784,10.869a.8.8,0,0,0,.648.928.816.816,0,0,0,.139.013.8.8,0,0,0,.79-.66c.873-4.9,2.49-9.455,3.388-9.56,2.245-.256,5.039-.576,7.223-5.539.379-.86,1.84-3.941,3.942-8.332l8.05,3.858-12.6,24.7a.8.8,0,1,0,1.427.726l12.62-24.733,34.312,16.451,13.771,6.729,21.519,10.517-12.635,25.575-13.137,27.434c-.209.3-1.483,1.985-2.847,1.277a22.3,22.3,0,0,1-3.02-2.527c-3.078-2.822-6.567-6.017-9.146-5.6-2.6.425-4.375,2.834-5.8,4.77a14.52,14.52,0,0,1-1.537,1.889c-.366.335-.762.732-1.176,1.147-1.349,1.352-3.029,3.034-4.237,3.034-2.649,0-4.5-.368-5.517-1.095a.8.8,0,0,0-.934,1.3c1.308.939,3.418,1.394,6.451,1.394,1.873,0,3.731-1.861,5.37-3.5.395-.4.774-.776,1.124-1.1a15.339,15.339,0,0,0,1.745-2.118c1.318-1.791,2.811-3.82,4.767-4.138,1.821-.292,5.421,3.009,7.807,5.2a21.042,21.042,0,0,0,3.365,2.767c2.191,1.142,4.2-.715,4.948-1.855l13.212-27.576,12.635-25.574,29.6,14.468-13.677,24.62-30.288,62.487h1.779l29.924-61.741,13.7-24.652,1.946.95h0L627.722,262.1v0l27.75,13.561L643.78,301.315l-1.9,4.013c-5.108-2.761-18.313-9.807-20.059-9.807-2.913,0-14.456,27.106-14.49,27.381a1.329,1.329,0,0,0,.39,1.014c1.956,2.215,16.938,9.49,18.014,9.49,1.014,0,1.716-1.244,3.784-5.835.438-.973.854-1.9,1.2-2.579.877-1.736,3.385-2.279,4.134-2.406,1.083.537,3.377,2,3.607,3.724.2,1.479-3.159,7.022-5.987,11.1h1.945c2.239-3.292,5.923-9.1,5.627-11.312-.31-2.326-2.76-3.988-4.009-4.693l6.926-14.614.011-.021,2.262-4.778,11.679-25.619,10.074,4.923c5.27,2.719,11.205,5.806,17.188,8.939l-6.348,15.681c-7.5-4.17-18.114-10.083-18.59-10.386l-.448.662.768.224-1.544-.425c-.16.615-.16.615,3.415,2.618,1.823,1.021,4.255,2.378,6.686,3.733l9.108,5.069-3.49,8.623a.8.8,0,1,0,1.484.6l5.608-13.852c3.692,2.145,7.921,4.482,8.806,4.482,1.252,0,2.326-1.86,2.857-2.967a.8.8,0,0,0-1.445-.692,6.226,6.226,0,0,1-1.425,2.044,80.767,80.767,0,0,1-8.187-4.369l4.171-10.3c4.728,2.479,9.448,4.973,13.863,7.326l-11.24,24.785a.8.8,0,1,0,1.458.662l3.954-8.721c2.508,1.323,10.565,5.628,12.4,7.316a.8.8,0,1,0,1.084-1.177c-2.017-1.857-10.365-6.307-12.817-7.6l2.458-5.421,22.123,11.43a.8.8,0,0,0,.736-1.424l-22.2-11.465,3.461-7.63c11.346,6.062,20.362,11.049,21.571,12.17.366,1.587,2.7,5.165,4.747,7.677-2.467,5.395-5.162,11.2-7.464,16.108L691.7,322.275a.8.8,0,0,0-.662,1.457l30.088,13.677h3.868l-3.806-1.729c1.614-3.444,4.407-9.431,7.161-15.442a10.967,10.967,0,0,0,.916.884l.011.011c1.95,1.618,13.375,8.225,16.207,9.854l-2.8,6.422h1.746l2.792-6.4c3.239-5.709,7.008-11.947,7.72-12.522a49.4,49.4,0,0,1,4.493-2.326c-2.529,2.206-5.221,4.6-5.61,5.115-.015.021-.245.456-.617,1.171a.792.792,0,0,0-.221.425c-1.761,3.408-5.777,11.333-6.931,14.537h1.669c1.229-2.9,4.785-10.234,6.494-13.55l13.479,1.539a.785.785,0,0,0,.091.005.8.8,0,0,0,.09-1.6l-12.84-1.466c.026-.041.049-.079.067-.1.47-.614,6.11-5.524,9.647-8.559,1.967-.559,22.152-6.326,42.213-12.355,3.579-1.076,6.857-2.07,9.869-2.992l4.432,15.947c-2.156.177-3.921.275-4.682.275-1.793,0-40.353,10.4-48.066,12.481a.8.8,0,0,0,.419,1.544c18.286-4.941,46.068-12.33,47.646-12.425.843,0,2.778-.107,5.12-.3l2.273,8.182-51.208,13.376H779.1l45.3-11.833,3.29,11.833h1.661l-.512-1.844,51.022-15.2,4.937,17.041h7.033l31.151-9.257c1.174,4.841,1.948,7.63,2.482,9.257h1.673c-.624-1.889-1.686-5.882-2.619-9.713l15.636-4.645c.754,2.81,1.721,6.311,2.654,9.387-4.3,1.515-10.518,3.72-13.875,4.973H933.6c3.052-1.1,6.7-2.39,9.676-3.441.416,1.319.813,2.494,1.172,3.441h1.682c-.964-2.476-2.828-8.794-4.445-14.816l22.948-6.819,5.307,17.488L958.6,337.408h4.663l7.152-2.615.793,2.615h1.673l-6.7-22.089,27.3-8.009c6.719,25.374,7.705,25.719,8.18,25.877a.666.666,0,0,0,.206.025c1.473,0,8.423-2.273,20.663-6.759,1.185,4.593,2.26,8.692,2.856,10.955h1.654c-1.476-5.59-3.463-13.226-5.129-19.866,4.984-1.575,9.043-2.828,9.875-3.007,1.641-.347,16.616,3.084,26.156,5.443l-1.927,14.124c-3.329-.411-13.655-.88-19.184-1.11a36.43,36.43,0,0,0-.09-5.866c2.406-.766,4.935-1.513,5.381-1.545a.8.8,0,0,0-.011-1.6,54.557,54.557,0,0,0-6.47,1.817l-.613.2.061.64c.144,1.483.43,5.613.035,6.873-.294.7-3.447,2.414-6.782,3.9h3.754a14.793,14.793,0,0,0,4.2-2.837c6.681.277,16.792.776,19.473,1.088-.085.491-.2,1.142-.309,1.748h1.626c.083-.466.165-.941.235-1.336,1.014.313,2.7.8,4.6,1.336h5.94c-4.365-1.211-8.724-2.441-10.288-2.93l2.041-14.966,2.171-10.629,15.5,2.988a128.6,128.6,0,0,0-4.73,25.538h1.6a127.526,127.526,0,0,1,4.711-25.234l41.417,7.987a.8.8,0,0,0,.3-1.572l-41.151-7.937c1.278-4.223,4.6-19.49,5.635-24.3,14.849,2.869,29.073,5.624,40.679,7.874a.8.8,0,0,0,.305-1.572ZM915.848,129.673c8.518,1.267,21.466,3.359,23.879,4.175a17.63,17.63,0,0,1-.806,4.1c-2.207-.145-15.335-2.531-24-4.173.312-1.413.625-2.8.928-4.1Zm-10.864-2.113c-.043.128-.085.249-.123.333-2.213.476-13.782,1.16-15.151-2.262a5.354,5.354,0,0,1-.294-1.345c3.214.584,10.608,2.174,15.566,3.274ZM770.19,82.845l5.706-.674c-2.566,1.515-5.923,3.5-7.307,4.367a12.429,12.429,0,0,1-3.793,1.334C767.526,85.4,769.482,83.592,770.19,82.845ZM287.65,291.805c-.948-.222-3.783-1.964-7.593-4.541l16.587-20.353,5.01,3.652c-4.87,7.812-12.5,19.718-14.006,21.243Zm76.135-21.344a43.205,43.205,0,0,1-5.691-6.062,15.77,15.77,0,0,1,2.985-2.873c.811.824,2.9,3.18,5.56,6.229a21.906,21.906,0,0,1-2.854,2.7Zm70.423,45.069c-.611,2.105-5.064,10.362-8.06,15.711-.011.021-.032.032-.043.053s-.005.032-.013.046c-1.025,1.829-1.873,3.308-2.329,4.066-1.54-.5-6.745-3.685-11.131-6.439L422.661,309.4a124.962,124.962,0,0,0,11.547,6.136Zm42.207-10.768c-2.508-1.238-5.087-2.514-7.7-3.81a.319.319,0,0,0-.03-.025c-.011-.005-.026,0-.037-.011-4.3-2.131-8.679-4.317-12.977-6.474L468.688,267.6l21.1,10.878Zm22.039-43.338-7.946,15.624-21.122-10.89,7.338-15.133C483.452,254.213,491.074,257.865,498.455,261.425ZM438.1,278.919l.745-1.626c12.814-28.009,16.424-34.459,17.4-35.6,1.676.534,9.274,4.034,19.035,8.648l-21.04,43.387c-7.037-3.535-13.786-6.964-19.476-9.919a21.625,21.625,0,0,0,3.337-4.888Zm99.643-94.937-6.649,13.186L500.255,182.73c2.252-4.676,4.658-9.663,7.017-14.546Zm-52.007-54.8,36.1,2.142a39.383,39.383,0,0,1-1.345,5.963c-2.687.174-22.163-.971-35.572-1.842.253-2.244.531-4.352.811-6.264Zm-.987,7.857c22.641,1.473,31.207,1.823,34.515,1.823.153,0,.278,0,.409,0-1.788,3.692-7.236,14.947-13.126,27.144l-23.094-11.974c-.009,0-.016,0-.024-.005.286-2.185.438-3.846.452-4.013l.077-.87h-.049c.128-4.171.443-8.3.843-12.1Zm-.615-7.951c-.312,2.151-.619,4.531-.892,7.049v0c-.448,4.109-.8,8.573-.939,13h-29.07c1.037-10.656,1.871-20.29,2-21.768ZM372.716,144.875v-7.613l9.181-4.841h4.212c-.227,4.4-.485,9.464-.777,15.3Zm3.227,96.67a77.354,77.354,0,0,0,10.474-4.742,6.552,6.552,0,0,0,2.27,3.016c1.373.856,9.2,4.047,11.764,5.085-.188.361-.348.662-.463.871-.419.7-4.571,4.7-10.618,10.354-5.161-5.357-10.584-11.216-13.425-14.583Zm29.4-6.164c-.8,1.543-1.758,3.406-2.916,5.674l-1.238,2.423c-3.394-1.371-10.5-4.3-11.657-5.016a5.441,5.441,0,0,1-1.763-2.588,3.724,3.724,0,0,0,.731-.736c.9-1.355,1.107-4.362,1.2-7.943,2.894,1.512,10.712,5.6,15.645,8.187Zm-15.606-9.909a19.309,19.309,0,0,1,.153-2.607c.139-.6,2.044-.547,3.066-.519a12.286,12.286,0,0,0,1.641-.021,1.889,1.889,0,0,0,1.352-.775,2.6,2.6,0,0,0,.438-1.2l14.473,6.684a11.632,11.632,0,0,1-1.56,1.526c-.416.29-1.21,1.584-3.214,5.4l-8.038-4.207c-4.962-2.6-7.216-3.778-8.311-4.284Zm-.429,32.9.86.89c-2.227,2.106-4.651,4.382-7.165,6.734l-.891-.948c2.527-2.331,4.954-4.581,7.2-6.675Zm-8.372,7.758.9.957c-2.481,2.321-5.033,4.7-7.556,7.036l-.9-1.048c2.524-2.311,5.073-4.653,7.559-6.944ZM357.65,289.386a.059.059,0,0,1-.021.011.253.253,0,0,1-.017.025c-2.988,2.7-5.154,4.6-5.981,5.24a5.049,5.049,0,0,1-.85-1.027c2.746-2.483,11.743-10.629,21.408-19.472q.452.525.907,1.057c-2.572,2.385-5.1,4.714-7.463,6.888,0,0-.011.005-.016.011s-.006.011-.011.015c-2.977,2.734-5.7,5.219-7.956,7.257Zm3.588,10.747a6.19,6.19,0,0,1-2.2-1.925c.466-.52,1.693-1.673,2.79-2.654l1.814,2.128a11.084,11.084,0,0,1-2.4,2.449Zm3.516-3.607-5.485-6.435c1.807-1.629,4.057-3.68,6.845-6.243L368.993,287a25.011,25.011,0,0,0-2.651,2.967c-.171.3-.658,1.153,1.718,3.719Zm4.525-3.887a8.712,8.712,0,0,1-1.471-1.991,31.984,31.984,0,0,1,2.262-2.463L372,290.3Zm3.94-3.383-5.929-6.493c2.008-1.85,4.279-3.951,6.849-6.334,2.057,2.39,4.105,4.781,5.941,6.931Zm8.066-6.947q-3.343-3.917-5.966-6.974l2.164-2.012c.672-.624,2.732-2.54,5.406-5.042,2.473,2.945,4.471,5.3,6.083,7.171ZM404.191,262c-4.087,4.037-8.751,8.772-9.007,9.613-.274.888.508,1.839,1.59,3.156a14.4,14.4,0,0,1,1.788,2.5,1.39,1.39,0,0,1-.093,1.113,7.211,7.211,0,0,1-2.284,2.7c-1.52-1.407-7.876-8.829-12.125-13.887,2.213-2.07,4.734-4.439,7.214-6.78l.7.722a.8.8,0,1,0,1.153-1.11l-.687-.711c1.839-1.739,3.615-3.43,5.184-4.939Zm-2.246-14.2c-.277.4-2.042,2.16-4.76,4.779-.011.009-.023.011-.035.021a.454.454,0,0,0-.043.055c-1.629,1.569-3.592,3.438-5.778,5.507l-.854-.883c6.067-5.681,10.475-9.943,10.907-10.725s1.377-2.631,2.469-4.77c.892-1.748,2.127-4.165,3.276-6.369v0a58.027,58.027,0,0,1,3.082-5.528,6.594,6.594,0,0,0,.744-.63c-.827,2.929-7.778,16.6-9.01,18.548Zm10.586-18.242a12.862,12.862,0,0,1,.59-1.494l13.683,6.751c-1.19,2.354-2.551,5.037-3.863,7.606l-12.8-7.15a45.521,45.521,0,0,0,2.39-5.714Zm-6.825,14.666c1.161-2.241,2.532-4.973,3.748-7.506l12.756,7.129c-1.906,3.718-3.6,6.979-4.322,8.271-1.9-1.17-7.837-5.041-12.182-7.895Zm27.7,18.584a163.41,163.41,0,0,1-15.627-8.436.92.92,0,0,0-.758-.312c-.685.048-1.153.7-2.4,2.58a17.641,17.641,0,0,1-1.9,2.546,28.494,28.494,0,0,1-4.173-4.629,34.415,34.415,0,0,1,4.224-3.8c4.994,3.236,5.158,3.238,5.384,3.238.518,0,.694-.007,5.464-9.359l14.5,8.1c-1.878,4.325-3.97,8.858-4.72,10.07Zm5.31-11.574L424.349,243.2c1.078-2.117,2.361-4.653,3.892-7.684l13.733,6.774Zm17.8-41.612v0c-1.336,2.759-12.2,25.25-14.076,31.119L413.787,226.6c3.214-6.913,11.664-23.416,15.284-30.413a.8.8,0,0,0-1.422-.736c-.546,1.057-11.419,22.083-15.318,30.5l-15.865-7.326a60.579,60.579,0,0,1,3.386-11.07c1.586-3.308,3.436-7.36,4.178-9,2.95,1.413,4.573,2,5.441,2a1.234,1.234,0,0,0,.434-.068c1.5-.563,4.667-6.866,6.419-10.574a.8.8,0,0,0-1.447-.683c-2.006,4.245-4.65,9.1-5.512,9.737-1.448-.047-9.263-4.162-11.856-5.528-1.391-.73-2.07-1.089-2.339-1.2a1.137,1.137,0,0,0-.973.05c-1.148.6-2.014,3.81-2.428,5.675a.8.8,0,0,0,1.562.347,17.532,17.532,0,0,1,1.5-4.461c.4.2,1.124.581,1.935,1.006,2.31,1.217,4.226,2.2,5.827,3-.726,1.6-2.588,5.683-4.181,9.007a59.8,59.8,0,0,0-3.431,11.074l-.518-.239.306,1.54v0a2.215,2.215,0,0,1-.114,1.366.3.3,0,0,1-.239.124,11.324,11.324,0,0,1-1.409.011c-1.793-.051-4.243-.121-4.674,1.761a23.916,23.916,0,0,0-.2,3.586c-.055,2.76-.139,6.932-.954,8.155a3.213,3.213,0,0,1-.784.7c-.021.015-.043.027-.062.043-2.171,1.5-7.662,3.821-11.453,5.246a6.775,6.775,0,0,1-.921-1.355c-.128-1.259-.395-3.419-.523-4.45,4.247-2.006,7.691-3.92,8.253-4.962,1.383-2.564,3.49-45.624,3.9-54.234.573-11.739,1.732-35.068,2.623-51.836l24.132,1.43-.969,14.535h-6.6l-.947,19.305,4.247,3.4-10.037,18.878a.8.8,0,1,0,1.413.75l10.661-20.049-4.644-3.717.832-16.964h6.566l1.069-16.04,39.7,2.354c-.531,6.164-1.281,14.471-2.084,22.656v.011c-1.347,13.727-2.836,27.1-3.665,29.427-1.68,4.7-9.917,20.938-10,21.1a.8.8,0,0,0,1.427.726c.323-.638,7.582-14.949,9.775-20.486l17.549,7.69Zm10.84-22.648-17.765-7.785c.918-3.8,2.307-16.525,3.479-28.444H482.2c-.26,2.519-1.11,9.829-2.514,12.915-1.569,3.45-10.448,19.86-12.322,23.314Zm9.875-15.02c1.8-3.408,3.324-6.354,3.906-7.63a37.651,37.651,0,0,0,2.052-8.621l22.652,11.743c-2.367,4.9-4.784,9.91-7.046,14.6Zm16.9,23.493c1.563-3.263,3.42-7.125,5.419-11.276L530.371,198.6,524.6,210.051Zm140.3,125.584c-1.124.206-4,.947-5.154,3.238-.352.7-.779,1.648-1.229,2.645a33.076,33.076,0,0,1-2.454,4.838c-2.414-.775-15.156-7.189-16.634-8.831.9-2.952,10.9-23.922,12.986-25.772,1.7.412,10.9,5.122,19.241,9.629Zm400.446-88.413,38.581,7.577-2.354,12.159-38.557-7.882Zm35.921,21.308-5.232,27.035c-5.8-1.118-11.677-2.25-17.461-3.362,1.562-4.928,5.224-23.015,6.04-27.079Zm-38.531-7.878,20.308,4.151c-1.7,8.473-4.818,23.425-6.048,27.1-6.462-1.24-12.785-2.455-18.746-3.593,1.171-7,2.639-16.021,4.486-27.654Zm13.691,32.771c-1.537,4.64-5.019,20.514-5.832,24.255l-18.844-3.634c.367-.295.722-.555,1.017-.768.333-.243.6-.444.776-.6.2-.184.721-.651,4.444-22.8,5.805,1.112,12.01,2.3,18.439,3.538ZM1026.2,273.4c-10.414-1.99-19.61-3.737-26.334-4.994l3.618-25.282,27.207,2.687c-1.339,8.433-2.981,18.56-4.49,27.589ZM879.752,277.65l19.415-5.846,5.261,19.515c-6.534,1.968-13.1,3.943-19.478,5.861Zm3.665,19.988c-2.638.8-5.243,1.577-7.795,2.342L870,280.586l8.217-2.476Zm17.284-26.3,20.813-6.268,5.624,19.407q-6.185,1.861-13.041,3.927c-2.693.811-5.411,1.627-8.136,2.449Zm22.343-6.729,11.636-3.506.893-.029,5.6,19.175q-5.862,1.761-12.509,3.763Zm14.185-3.588,5.944-.192,4.4-1.313,5.229,17.241-10.091,3.031Zm16.042,17.267,5.16,17-10.29,3.066-4.976-17.029c3.476-1.046,6.86-2.062,10.106-3.037Zm-4.162-19.227,37.245-11.084c.284,2.857.854,12.18,1.21,18.548-2.956.745-13.561,3.877-33.224,9.775Zm-6.194.174-2.27.075,61.367-18.479,0,.819Zm58.922-15.866L998.3,268.11c-4.548-.848-7.748-1.43-9.135-1.652-.254-4.555-.9-15.747-1.259-18.936Zm10.714-.965-8.95-.884,0-.8c2.714.512,5.805,1.094,8.949,1.684Zm-14.243-29.344a22.171,22.171,0,0,0,5.806,11.077c-3.7,1.649-15.57,6.983-17.56,8.384-1.537,1.084-13.169,2.97-20.14,3.906a.8.8,0,1,0,.214,1.585c1.885-.252,18.486-2.516,20.85-4.183,1.611-1.134,11.137-5.485,16.985-8.092l-2.359,13.4-53.439,16.091-6.723-24.616c7.033-1.846,49.368-15.316,56.369-17.547ZM947.13,255.689l-11.3,3.4-1.5.45-.026.007-11.637,3.5c-.66-3.346-3.034-15.389-4.754-24.051,5.812-2.211,18.85-7.08,22.461-8.034Zm-10.856-39.744,3.685,13.486c-4.266,1.142-18.6,6.555-22.357,7.98-.779-3.906-1.371-6.867-1.523-7.559-.015-.067-.79-2.615-1.825-5.912ZM912.8,224.468c.872,2.747,1.558,4.992,1.718,5.727.48,2.2,5.658,28.459,6.62,33.323L869.555,279.05,859.36,243.868Zm-11.506-78.107.156-.252c1.124-.075,5.587,1.011,9.48,2.164.416,1.286,1.537,4.493,2.39,6.915-6.1-2.51-12.343-5.192-13.517-5.9a11.1,11.1,0,0,1,1.492-2.926ZM803.539,130.8l-3.795,19.22c-5.56-1.052-10.973-2.083-16.046-3.054Zm-92.082,56.616c-2.084-2.241-4.277-4.6-6.422-6.915a3.922,3.922,0,0,1,2.825.188,15.2,15.2,0,0,1,3.848,4.563,5.967,5.967,0,0,1-.251,2.163Zm1.294,1.389c.347-1.187.837-3.23.427-4.183a16.4,16.4,0,0,0-4.42-5.261c-1.626-1.1-3.874-.5-4.954-.208l-.014,0c-6.367-6.881-12.006-13.045-12.556-13.873-.969-1.451-3.714-8.053-5.214-11.795,12.768-10.056,34.11-26.865,38.435-30.262l33.813,42.369-38.808,30.4c-1.784-1.906-4.13-4.416-6.713-7.19Zm-41.539,55.01c-2.234,4.565-4.66,9.271-5.624,10.205-1.171-.429-5.609-2.67-11.632-5.809l4.877-9.644c6.077,2.6,11.022,4.68,12.379,5.247Zm-13.852-5.88-4.824,9.536c-4.141-2.164-8.917-4.689-13.845-7.31l4.124-8.6c4.688,2.106,9.875,4.365,14.546,6.371Zm-24.641-11.086c2.284,1.14,5.293,2.544,8.636,4.055l-4.077,8.5c-2.724-1.451-5.479-2.924-8.185-4.373Zm-10.346-5.1c3.666,1.772,6.781,3.3,8.913,4.375l-3.607,8.146c-3.137-1.683-6.192-3.326-9.028-4.856Zm-20.426-9.767c2.953,1.4,5.992,2.847,8.978,4.273l-3.23,8.385-4.016-2.02c.558-1.255.692-1.913.527-2.351-.388-1.037-2.8-2.766-4.277-3.751Zm.722,8.778a5.7,5.7,0,0,1-.418,1.142l-8.9-4.474a10.6,10.6,0,0,1,1.245-1.763,32.734,32.734,0,0,1,3.914,1.839,21.185,21.185,0,0,1,4.157,3.255Zm-13.981-15.053c3.337,1.576,7.438,3.516,11.809,5.59l-1.964,4.412a22.364,22.364,0,0,0-3.845-1.675c-.491-.107-.992-.21-2.775,2.675l-6.9-3.472Zm2.409,12.382c-1.056,1.844-2.462,4.5-4.363,8.324-3.642-1.937-5.513-2.9-6.508-3.36l4.085-8.377ZM573.251,233.7l-20.8-10.163c.931-1.8,2.412-4.237,3.354-4.82.935-.256,5.613,2.179,8.128,3.492,4.143,2.16,5.274,2.683,6.022,2.433,1.462-.486,8.1-14.688,11.314-22.435l5.97,2.815Zm12.966,5.342c-.292.288-.5.5-.659.674l-10.869-5.312,4.838-9.917c1.185.568,3.9,1.98,6.5,3.358l-.508,1.033-.254.517c-.5,1,.416,2,1.481,3.159.825.9,1.852,2.017,1.9,2.852.073,1.174-1.555,2.775-2.429,3.635Zm.851,1.412.273-.271c1.2-1.185,3.022-2.974,2.9-4.875-.086-1.4-1.274-2.693-2.322-3.833a8.224,8.224,0,0,1-1.179-1.462l.211-.429c2.647-5.4,4.407-8.723,5.579-10.773l9.02,4.536c-.64,1.27-1.427,2.723-2.015,3.81a29.918,29.918,0,0,0-2.38,4.834c-.242,1.156.8,2.192,1.9,3.29.717.712,1.7,1.686,1.686,2.237-.021,1-2.131,4.933-3.814,7.756Zm19.877,9.715-8.569-4.188c1.217-2.045,3.936-6.794,3.97-8.431.028-1.236-1.082-2.337-2.156-3.4-.527-.526-1.509-1.5-1.465-1.825a41.021,41.021,0,0,1,2.22-4.4c.865-1.6,1.534-2.853,2.038-3.855l5.566,2.8,3.821-9.917c2.99,1.43,5.891,2.819,8.557,4.105l-4.055,8.356-.021.046-.309.64,0,0Zm1.439.7,9.568-20.014c2.558,1.38,5.652,3.047,9.037,4.866l-9.757,19.47Zm19.287,9.425-9-4.4,9.729-19.417c2.627,1.409,5.395,2.89,8.189,4.38Zm38.81,18.967-9.628-4.706L629.109,261,638,241.616c13.282,7.07,26.669,14.06,27.687,14.06.457,0,.96-.249,2.038-1.907a110.683,110.683,0,0,1,9.521,5.816l-4.215,8.456-.021-.011-3.76,8.191Zm24.346-.779L705,285.39l-2.8,6.538L688.14,284.89Zm-4.121,5.683L670.978,276.3l2.8-6.112,15.6,7.6Zm21.12-1.321c8.409,4.478,20.266,10.879,22.672,12.381l-3.334,6.667-22.352-12Zm-2.2,1.067-14.183-6.907,2.863-6.819,14.29,6.782Zm-15.624-7.609-15.533-7.564,4.025-8.079c2.793,2.034,10.906,6.772,14.386,8.785Zm-5.214,12.424c-4.954-2.588-10.53-5.483-16.817-8.727l2.138-2.35,15.971,7.993Zm15.322,8.079c-3.944-2.1-8.541-4.531-13.9-7.335l1.3-3.108,14.055,7.033Zm1.417.758,2.65-6.2,22.242,11.946-3.492,6.407c-1.857-1.347-7.006-4.455-21.4-12.155Zm26.4,19.715a28.428,28.428,0,0,1-3.89-6.254l4.557-8.36-.025-.013,3.095-6.19c1.43,1.846,3.045,4.261,3.047,5.105-.134.915-3.123,7.684-6.784,15.711Zm26.048-.082c-1.153.854-5.833,8.94-7.78,12.356-4.3-2.468-11.295-6.565-14.475-8.648l25.925-5.663a35.653,35.653,0,0,0-3.671,1.956Zm10.183-5.018L730,319.646c-.288-.27-.605-.605-.936-.982,3.767-8.251,7.248-16.127,7.248-17.043,0-2.06-3.758-6.627-4.188-7.143l0,0c-.005-.006-.013-.011-.018-.016-.822-.867-14.849-8.4-23.649-13.084l2.218-5.186L694.271,268.4c-6.976-4.023-14.74-8.706-15.4-9.464l-.023-.025c-.011-.014-.023-.026-.035-.038-1.078-1.286-8.089-5.263-10.25-6.473,1.529-2.65,3.927-7.409,7.937-15.944.653-1.392,1.17-2.492,1.288-2.7.657-1.06,12.373-12.31,15.976-15.389,9.43,12.475,26.552,35.15,27.048,35.889a.8.8,0,0,0,1.334-.883c-.558-.846-23.472-31.165-27.144-36.025,3.131-2.668,12.71-11.736,14.8-13.716l.67.091.028-.021.525.6c.359-.315,5.478-4.107,8.831-6.578l.726-.534-.019-.021L741.963,180.4c1.606,2.113,4.189,5.5,6.9,9.042-1.294,1.128-3.871,3.61-3.871,5.5,0,2.042,3.762,7.048,5.784,8.578a2.6,2.6,0,0,0,1.451.63,1.215,1.215,0,0,0,.333-.047c1.17-.331,3.682-2.391,4.941-3.47,1.193,1.513,2.006,2.512,2.186,2.663.463.384,1.227,1.057,2.14,1.881-4.215,3.682-18.246,16.013-19.028,17.711-1.257,2.721,13.884,20.266,14.069,20.372a6.322,6.322,0,0,0,2.689.344c1.12,0,2.589-.062,4.467-.164.751-.041,1.352-.075,1.643-.075.9,0,2.6-1.261,7.931-5.872,1.128-.975,2.1-1.819,2.555-2.158.173-.128.5-.363.932-.68,13.427-9.725,15.14-12.373,14.992-13.785-.275-2.627-12.629-18.69-15.1-21.883a.8.8,0,0,0-1.266.982c7.134,9.21,14.612,19.607,14.776,21.058-.021.573-1.338,2.79-12.6,11.062-3.012-4.971-6.066-10.3-6.229-11.1a2.985,2.985,0,0,1,.568-1.451,6.011,6.011,0,0,0,1.035-4.047c-.484-3.065-12.431-13.329-12.531-13.412-.5-.48-5.109-6.446-10.145-13.023v0h0c-2.5-3.266-5.1-6.675-7.358-9.643l16.042-12.567.011.011,9.607-7.827c9.857,12.719,24.236,31.4,25.072,32.82a.8.8,0,0,0,1.547-.288c0-.358-.013-.818-25.378-33.544l11.95-9.738c1.63.312,8.662,1.656,18.142,3.45h0c8.027,1.519,17.8,3.357,27.536,5.163,13.382,2.483,24.06,4.418,31.738,5.747,9.248,1.6,12.865,2.169,14.345,2.169.941,0,1.018-.229,1.131-.566.117-.356.651-2.942,2.036-9.7.438-2.14.965-4.706,1.522-7.4l20.293,3.38c1.379.875,6.482,3.116,15.208,6.685l.336.945a.8.8,0,0,0,.131.232L876.28,174.1l-2.881,6.208-22.089-5.355,2.335-11.434a.8.8,0,0,0-1.569-.32l-2.488,12.187-.9,3.9-32.713-4.525a.8.8,0,1,0-.22,1.587l15.218,2.1c.555,2.561,2.828,13.1,3.146,14.371a1.43,1.43,0,0,0,.694.894,3.548,3.548,0,0,0,1.729.342,17.322,17.322,0,0,0,4.081-.658.8.8,0,0,0-.427-1.544c-1.937.534-4.05.761-4.543.5-.35-1.444-2.3-10.48-2.991-13.671l15.692,2.17c-.765,3.944-3.891,20.387-3.4,23.978.536,3.931,7.794,22.379,8.217,23.455l14.847,51.225-18.3,5.51c-1.9-.1-9.408,1.547-43.717,11.652-21.171,6.234-42.463,12.75-42.677,12.815a.8.8,0,0,0,.47,1.53c28.033-8.58,68.55-20.633,81.645-23.721-12.486,4.816-53.075,16.853-81.277,24.887ZM749.832,190.716c2.409,3.144,4.832,6.292,6.676,8.655a24.763,24.763,0,0,1-4.307,3.165c-1.2-.379-5.613-6-5.613-7.594,0-.975,1.734-2.888,3.244-4.226Zm20.248,30.573c.256,1.355,4.872,9.055,6.5,11.75l-.443.32c-.446.324-.776.563-.953.7-.5.374-1.443,1.192-2.641,2.228-1.98,1.712-6.1,5.276-6.883,5.482-.309,0-.939.032-1.732.075a39.917,39.917,0,0,1-6.229.06c-1.315-1.025-13.092-16.038-13.41-18.414,1.039-1.553,11.737-11.125,18.716-17.22,3.593,3.319,8.45,8.105,8.666,9.479a4.58,4.58,0,0,1-.852,3.014,3.794,3.794,0,0,0-.744,2.531Zm48.279,76.576c28.092-8.631,31.525-10.576,32.105-11.394l18-5.419,5.621,19.393c-23.064,6.919-41.551,12.409-43.236,12.7-2.393.413-5.34.752-7.966,1Zm10.049,36.16-5.09-18.316c2.578-.243,5.429-.576,7.8-.987,1.769-.306,19.943-5.7,43.41-12.74l4.883,16.851Zm47.653-32.5c12.017-3.6,25.324-7.613,38.493-11.579,9.151-2.757,18.379-5.536,27.069-8.149l4.976,17.027-65.653,19.554Zm10.382,35.82-5.05-17.427,77.5-23.083,5.285,17.413Zm79.267-23.551-5.3-17.452a.781.781,0,0,0-.444-1.465L954.8,277.839c18.715-5.613,32.62-9.743,33.57-9.882.459.032,4.288.726,10.48,1.885h.008c6.68,1.252,16.117,3.045,27.08,5.142-1.907,11.363-3.556,20.654-4.034,21.995-.139.113-.325.245-.541.4a18.493,18.493,0,0,0-2.182,1.789l-5.6.715-3.938-19.193a.8.8,0,1,0-1.569.32l3.938,19.2Zm29.3-6.928,18.089-5.306,4.677-.6a4.92,4.92,0,0,0-.662,2.7c.071,1.249,1.331,6.614,2.874,12.812-8.007,2.536-17.672,5.658-20.49,6.571-1.476-5.046-3.194-11.306-4.487-16.181Zm27.113,18.035c-7.006,2.564-17.66,6.318-19.828,6.71a66.145,66.145,0,0,1-2.344-7.031c2.713-.875,12.408-4.008,20.426-6.549C1020.951,320.3,1021.544,322.637,1022.127,324.9Zm36.084-6.5c-5.528-1.366-24.359-5.938-26.765-5.429-.868.187-4.937,1.441-9.925,3.017-1.554-6.234-2.741-11.3-2.8-12.417a4,4,0,0,1,1.142-2.775l40.354,7.783Zm2.318-11.39-18.825-3.631c1.635-7.545,4.624-20.764,5.842-24.257,5.784,1.113,11.733,2.258,17.723,3.413Zm17.337,3.344-15.766-3.042,4.738-24.474c5.562,1.072,11.147,2.149,16.659,3.214-1.853,8.589-4.722,21.415-5.631,24.3Zm-10.723-29.087,5.231-27.017,39.895,8.156-2.207,27.154c-11.218-2.172-26.722-5.17-42.919-8.292ZM213.749,327.548a.8.8,0,0,0-1.078.341l-4.93,9.545h1.8l4.55-8.809a.8.8,0,0,0-.344-1.078Zm-52.8,8.527c.64.015,1.379.043,2.126.082l-.615,1.252h1.784l.559-1.14a12.7,12.7,0,0,1,2.775.406c.352.155.911.427,1.521.734h3.5c-.911-.476-3.372-1.754-4.37-2.2a10.743,10.743,0,0,0-2.668-.483l11.464-23.355a.8.8,0,0,0-1.437-.7l-11.746,23.926c-1.137-.068-2.174-.1-2.687-.115l-26.395-12.337a.8.8,0,0,0-.677,1.451l26.7,12.478Zm-20.806-43.2a.8.8,0,0,0-1.054.411L119.7,337.405h1.748l19.11-43.473a.8.8,0,0,0-.41-1.054ZM28.24,277.07l11.84,6,3.762-13.086,2.5,6.446,1.1,2.132c-.709,1.542-5.482,11.957-6.617,15.233a82.348,82.348,0,0,1-4.986,9.324l-.662-.726v1.848c-1.659,2.807-3.2,5.322-3.835,6.36l-10.362-2.78a.8.8,0,1,0-.416,1.547l11.515,3.089.313-.508c.128-.206,1.291-2.092,2.787-4.58v4.657L23.908,337.432H25.66l11.118-25.068v-5.837L52.6,323.919a50.575,50.575,0,0,1-1.486,6.644c-.552,1.323-1.59,5.278-2,6.87h1.654c.451-1.74,1.355-5.13,1.825-6.254a57,57,0,0,0,1.651-7.38l.064-.384-17.339-19.06a87.111,87.111,0,0,0,5.368-10.042c.939-2.711,4.586-10.768,6.038-13.948l4.491,8.687.238.117c.171.081,16.947,8.274,19.557,9.8,1.876,1.1,4.978,6.888,6.32,9.637a31.688,31.688,0,0,0-5.171,6.309L63.118,337.433H64.89L68,330.87l12.068,6.563h4.593l15.38-30.749c3.22,2.128,8.288,8.341,8.641,12.3.337,3.776-1.3,15.394-1.75,18.447h1.618c.5-3.422,2.074-14.684,1.726-18.59-.416-4.674-5.969-11.347-9.515-13.6l14.42-28.825a.8.8,0,1,0-1.432-.717l-14.46,28.91c-4.648-1.286-15.147.566-18.508,2.634-.175.107-.347.227-.52.348-1.187-2.405-4.412-8.6-6.794-10-2.522-1.477-17.278-8.7-19.425-9.746L47.8,275.771l-14.43-37.277v0l-5.714-14.759a.8.8,0,0,0-1.492.576l5.023,12.977-3.957-1.727-7.214-.669-1.55,30.018,9.778.8Zm53.378,31.54c2.869-1.766,12.789-3.543,16.947-2.551L82.988,337.2l-14.3-7.776,6.524-13.74c.03-.05,3.144-5.067,6.406-7.075ZM20.143,263.439l1.384-26.811,5.18.45L32,239.385l10.891,28.128-3.81,13.25-9.236-4.674V264.237Z" transform="translate(1.243 4.098)"/>
      <path id="Path_404" data-name="Path 404" class="cls-4" d="M26.137,214.124a.8.8,0,0,0-1.125.132l-7.1,9-2.166,16.453c-.009.107-.181,2.618-.452,6.5L0,233.079v2.111L15.154,248.2c-.224,3.238-.5,7.161-.79,11.334l-6.531,8.477L0,260.873v2.166l6.855,6.241L0,278.177V280.8l8.042-10.439,5.233,4.767c-.581,8.267-1.084,15.37-1.268,17.753-.107,1.377-.286,4.169-.507,7.758L0,289.969v2.183L11.376,302.7c-.425,6.974-.96,16.171-1.409,23.953L0,317.853v2.137l9.85,8.7c-.347,6.056-.625,10.966-.732,12.835h1.6c.352-6.2,2.4-42.234,2.881-48.521.528-6.862,3.7-52.725,3.732-53.138L19.441,223.9l6.83-8.651a.8.8,0,0,0-.133-1.124ZM13.417,273.092l-4.395-4,5.144-6.676c-.249,3.543-.5,7.185-.747,10.678Zm-4.679-71.6a.8.8,0,0,0-1.129.077c-3.874,4.439-6.2,7.132-7.609,8.779v2.469c1.695-2.009,5.875-6.826,8.815-10.2a.8.8,0,0,0-.077-1.129ZM4.087,113.954c-.3-.24-2.209-2.239-4.087-4.226v2.326c1.451,1.53,2.836,2.96,3.122,3.175a.781.781,0,0,0,.47.158.8.8,0,0,0,.5-1.434ZM79.759,0,69.324,12.245a.8.8,0,1,0,1.22,1.037L81.864,0Zm48.356,0L112.841,18.374c-2.924-3.362-7.688-8.813-11.211-12.687L106.336,0H104.26l-3.72,4.495A29.653,29.653,0,0,0,97.2,1.151C96.1.6,95.425,1.6,95.063,2.13c-.484.715-.76,1.018-1.313.943C93.1,2.988,91.2,1.713,88.972,0H86.378c2.563,2.06,5.818,4.482,7.164,4.664a2.9,2.9,0,0,0,2.849-1.635c.066-.1.155-.228.232-.329.459.41,1.511,1.526,2.892,3.037L84.187,24.257a.8.8,0,0,0,1.234,1.021L100.6,6.933c3.279,3.628,7.818,8.791,11.209,12.692L98.541,35.853a.8.8,0,0,0,1.24,1.014l13.688-16.744v0L130.2,0Z" transform="translate(0.002 0.007)"/>
      <path id="Path_405" data-name="Path 405" class="cls-4" d="M226.782,325.043,175.3,293.175,90.531,234.1a60.026,60.026,0,0,1,3.319-9.124c.619-1.343,1.438-2.79,2.3-4.322,2.2-3.9,4.7-8.31,4.962-12.909.354-6.177,3.376-31.717,4.242-35.014.079-.3.171-.666.272-1.085.637-2.591,1.821-7.387,3.938-10.54l13.123,13.231a.8.8,0,0,0,1.138-1.128l-13.262-13.37a4.941,4.941,0,0,1,3.622-1.808c4.546,0,14.61,6.017,21.269,10,2.415,1.444,4.5,2.689,5.934,3.43.982.507,2.1,1,3.284,1.473l-10.364,17.507a.8.8,0,1,0,1.377.814l10.505-17.744c5.35,1.942,11.619,3.334,14.282,3.2a70.888,70.888,0,0,1,10.45,1.054c-1.116,12.027-2.65,30.772-2.4,34.014.352,4.555,5.311,33.133,5.523,34.347a.8.8,0,0,0,.788.664.783.783,0,0,0,.139-.011.8.8,0,0,0,.651-.926c-.053-.3-5.157-29.719-5.507-34.2-.249-3.221,1.281-21.905,2.385-33.789a.779.779,0,0,0,.128-1.355c.444-4.706.8-8.095.907-8.544.2-.85,2.235-5.032,4.026-8.721,1.7-3.5,3.3-6.8,3.888-8.3.985-2.535,16.541-22.491,22.454-29.967a.8.8,0,0,0-1.256-.993c-2.191,2.769-21.438,27.16-22.69,30.38-.561,1.444-2.225,4.87-3.833,8.183a92.665,92.665,0,0,0-4.144,9.045c-.11.451-.466,3.846-.912,8.574a70.96,70.96,0,0,0-10.683-1.057c-3.274.177-12.906-2.3-18.268-5.069-1.387-.715-3.453-1.953-5.846-3.383-7.218-4.315-17.1-10.224-22.091-10.224a6.407,6.407,0,0,0-4.744,2.276l-7-7.058c1.373-5.688,4.235-17.969,3.692-19.459-.527-1.449-9.268-9.662-12.731-12.879,43.928-54.226,54.122-67.064,56.486-70.274a5.978,5.978,0,0,0,1.265.995c.857.549,1.375.88,1.321,2.227a28.216,28.216,0,0,1-.4,3.389c-.32,2-.624,3.887.075,5.385s.762,5.934.726,7.513a.8.8,0,0,0,.782.82h.021a.8.8,0,0,0,.8-.782c.014-.619.109-6.117-.875-8.228-.491-1.052-.238-2.628.053-4.453a29.384,29.384,0,0,0,.424-3.58,3.628,3.628,0,0,0-2.058-3.639,2.468,2.468,0,0,1-1.428-1.745c-.616-3.23-.672-25.417-.085-26.946.671-1.224,6.37-15.4,6.37-16.79V0h-3.311L113.275,47.735a.8.8,0,0,0,1.223,1.032L155.275.456V3.17c-.134,1.225-5.364,14.576-6.172,16.057-1.035,1.9-.48,25.935-.085,28.014.021.1.051.192.077.288l-.013.017c-.882,1.345-16.7,21.006-32.976,41.155l-20.7-17.007c6.43-8.858,11.859-16.52,11.965-16.669a.8.8,0,1,0-1.306-.928c-.107.153-5.5,7.769-11.9,16.584L76.627,56.358c.877-.7,1.631-1.327,2.085-1.744.146-.134,14.2-14.882,13.571-17.208C91.913,36.048,68.1,16.842,46.947,0h-2.57c4.264,3.394,8.94,7.131,13.66,10.922l-4.4,6.9L44.47,30.111,17.851,8.382,24.7,0H22.632L16.61,7.371,7.577,0H5.048L15.6,8.608,1.842,25.453,0,23.955v2.06l.83.676L0,27.71v2.531L2.074,27.7c3.746,3.041,9.527,7.737,15.989,12.991L0,61.466v2.44l3.821-4.4c2.666,2.657,12.138,11.974,15.111,13.077a24.32,24.32,0,0,0,4.252,1.057c.451.082.875.163,1.277.25L10.071,89.524,0,81.678v2.03L17.916,97.665a39.535,39.535,0,0,1-6.194,4.272C10.4,101.9,2.984,96.017,0,93.331v2.108c2.628,2.286,6.264,5.037,6.321,5.08,3.411,2.519,4.7,3.023,5.394,3.023a1.3,1.3,0,0,0,.395-.06c1.569-.483,5.606-3.615,7.091-4.792,1.745,1.441,7.625,6.318,9.725,8.207C18.41,119.174,9.92,129.116,9.77,129.308c-.092.122-.227.3-.393.528L0,121.843v2.1l8.436,7.193C6.227,134.217,2.113,140.056,0,143.065v2.783c.175-.25,6.638-9.455,9.658-13.671l8.42,7.177c-1.684,1.958-7.184,8.377-11.728,13.983l0,0,0,0c-.657.811-1.3,1.608-1.9,2.369-5.368,6.774-4.514,9.832-4.1,11.3.032.113.061.216.081.307.477,2.145,34.545,26.039,35,26.357h0l0,0c5.557,3.874,14.332,9.312,22.619,14.306l.014.011.009,0c11.218,6.76,21.528,12.7,21.707,12.8l.235.134,2.726-.352-.518,7.709L21.543,185.274a103.912,103.912,0,0,0-10.685-6.638L0,172.77v1.818l10.1,5.453a102.33,102.33,0,0,1,10.52,6.538l61.47,43.584-.164,2.478c-.8,1.174-3.4,5.186-3.215,7.278.2,2.291,2.672,6.755,3.888,8.405a.8.8,0,1,0,1.289-.948c-1.3-1.772-3.429-5.832-3.583-7.6-.111-1.278,1.82-4.61,3.063-6.412l.125-.181.131-1.951,5.08,3.54a16.225,16.225,0,0,0-.56,5.729c.316,2.049,1.953,3.8,3.684,5.651a18.964,18.964,0,0,1,3.925,5.3c1.75,4.178-.032,14.5-.05,14.6a.8.8,0,1,0,1.576.277c.078-.443,1.882-10.891-.05-15.5a20.463,20.463,0,0,0-4.231-5.773c-1.558-1.665-3.031-3.239-3.271-4.8a13.606,13.606,0,0,1,.4-4.493l84.293,58.744,51.6,31.937,31.915,15.077h3.748ZM104.622,132.7c.211,1.11-1.759,10.416-3.8,18.841L90.673,164.384c-1.22-5.3-5.6-8.623-12.791-9.635-7.176-1.011-11.026,1.681-14.422,4.052-.363.252-.72.5-1.08.747-3.065,2.081-5.635,6.424-6.633,8.267l-1.1-.811L73.131,144.53l-.006-.006,19.269-23.96c5.007,4.655,11.771,11.184,12.224,12.134ZM89.376,166.338l-.891,29.311a15.328,15.328,0,0,1-8.575,7.765c-4.9,1.614-10.783.4-17.47-3.6l-.027-.015c-1.575-.886-5.071-7.233-6.955-11.124-.845-8.253,1.115-18.326,1.331-19.391.38-.749,3.206-6.177,6.488-8.405.367-.249.731-.5,1.1-.76,3.308-2.31,6.726-4.7,13.282-3.778,7.264,1.018,11.205,4.384,11.718,10ZM53.723,186.967l-7.708-6.883L53.7,168.3l1.441,1.063a78.821,78.821,0,0,0-1.417,17.609Zm-.344-20.941L33.19,149.6c2.042-2.5,9.981-12.23,18.711-22.91,2.574,2.741,15.767,14.962,19.036,17.984ZM94.464,72.991,115.1,89.946C106.9,100.1,98.658,110.286,92.227,118.223l0,0L71.948,143.434C64.68,136.717,54.3,127.012,52.92,125.446c9.931-12.15,20.618-25.2,24.666-30.088,3.935-4.749,10.755-13.948,16.878-22.366Zm-1.241-1.016C87.1,80.391,80.281,89.6,76.354,94.335,72.32,99.2,61.7,112.178,51.8,124.291c-2.078-1.921-7.039-6.091-13.479-11.483-3.172-2.654-5.979-5.005-7.195-6.069C35.649,101.467,40.5,95.826,45.2,90.374l.007,0,.005-.009C58,75.509,69.607,62.085,70.172,61.555c.686-.623,2.362-1.948,3.981-3.228l1.2-.944ZM57.942,73.117c-3.927,4.548-8.569,9.946-13.4,15.567C41.583,85.974,29.014,74.487,27.56,73.4c-.093-.069-.2-.115-.3-.177l13.19-14.33c8.473,6.89,15.41,12.529,17.5,14.228ZM41.532,57.71c1.928-2.1,8.405-9.01,11.565-10.864a19.9,19.9,0,0,0,4.215-4.185L74.077,56.348l-.918.724c-1.716,1.357-3.337,2.639-4.064,3.3-.472.427-4.434,4.97-10.106,11.536-2.134-1.737-9.037-7.351-17.459-14.2ZM90.673,37.829c-.859,2.26-11.3,14.012-13.043,15.609-.472.432-1.305,1.115-2.271,1.889L58.309,41.41c3.532-4.528,7.24-10.288,8.1-11.632a4.553,4.553,0,0,0,2.532.041c2.785-.756,4.6-4.041,5.379-5.75C82.9,31.059,89.53,36.574,90.673,37.829Zm-31.381-25.9c4.73,3.8,9.442,7.6,13.735,11.091-.549,1.291-2.161,4.618-4.512,5.254a3.871,3.871,0,0,1-3.568-1.138c-4.806-4.057-8.439-7.719-9.643-8.96ZM54.371,19.51c1.409,1.441,4.952,4.971,9.544,8.85a8.52,8.52,0,0,0,1.024.74c-1.694,2.659-4.927,7.513-7.869,11.3L45.712,31.126Zm-40.6,15.631L23.286,24a.8.8,0,1,0-1.217-1.039L12.526,34.129c-3.751-3.048-7.014-5.7-9.44-7.668L16.84,9.621,56.075,41.649a18.385,18.385,0,0,1-3.785,3.816c-3.422,2.006-10.1,9.162-12,11.231-8.573-6.971-18.5-15.042-26.517-21.557Zm9.7,36.928a23.019,23.019,0,0,1-3.981-.982C17.115,70.205,8.587,62,4.875,58.3L19.305,41.7C25.8,46.98,32.869,52.728,39.2,57.88L25.7,72.543c-.679-.192-1.43-.329-2.235-.475Zm-3,25.6.023-.018L11.337,90.51,26.146,74.426a2.913,2.913,0,0,1,.454.251c1.2.9,11.266,10.064,16.9,15.222-4.53,5.274-9.184,10.7-13.537,15.784-2.1-1.889-7.5-6.368-9.493-8.019ZM10.6,130.879c.188-.256.341-.463.44-.592.766-1,8.975-10.6,19.044-22.333,1.234,1.082,3.927,3.337,7.208,6.083,4.635,3.881,11.28,9.445,13.495,11.494C42,136.273,34,146.084,31.944,148.595l-12.23-9.946Zm8.708,9.5,33.121,26.936L44.3,179.781l-1.885,2.655L8.079,153.745c4.433-5.443,9.612-11.487,11.229-13.365ZM1.955,166.862c-.021-.085-.047-.178-.075-.277-.341-1.214-1.046-3.742,3.816-9.877.44-.555.9-1.131,1.375-1.718l34.417,28.757-5.8,8.171c-14.1-9.852-32.4-23.32-33.736-25.055ZM37.007,192.83l8.1-11.416,8.922,7.969c.708,1.459,4.467,9.053,6.984,11.331l-2.888,5.453c-7.716-4.658-15.743-9.641-21.116-13.34Zm46.076,26.093-2.745.356C78.766,218.372,69.562,213.052,59.5,207l2.849-5.384c6.819,3.912,12.9,5.029,18.089,3.315a16.082,16.082,0,0,0,7.953-5.989l-.32,10.554Zm6.051,14.2-5.387-3.754.637-9.487,5.272-9.973,1.315-43.32L101.629,153.1l6.8,6.857c-2.423,3.434-3.673,8.531-4.354,11.3-.1.41-.189.768-.267,1.061-.91,3.458-3.924,28.915-4.293,35.329-.242,4.226-2.64,8.471-4.755,12.214-.883,1.562-1.716,3.038-2.362,4.442a65.088,65.088,0,0,0-3.266,8.817ZM303.755,0c-1.515,1.675-4.119,4.681-8.772,10.042C286.76,19.519,273,35.381,271.544,36.218c-1.814.793-8.86.38-10.5-.026-2.054-.916-22.229-20.622-22.976-21.8-.085-.256-.189-1.458.651-7.09l.043-.32A64.053,64.053,0,0,1,244.358,0h-2.122c-2.5,2.9-4.932,5.889-5.048,6.691l-.055.378c-.713,4.777-.877,7.06-.568,7.886.42,1.121,21.956,22.253,24.033,22.774a38.789,38.789,0,0,0,6.777.544,14.05,14.05,0,0,0,4.811-.589c1.275-.557,8.757-9.02,24.006-26.594C300.4,6.241,304.4,1.626,305.9,0Z" transform="translate(0.002 0.007)"/>
      <path id="Path_406" data-name="Path 406" class="cls-4" d="M347.547,81.57c-3.463-.175-9.391-.745-10.551-1.528-1.185-.8-6.483-6.623-10.082-10.7,5.865-5.2,12.879-12.376,12.744-14.268-.186-2.607-13.3-15.344-17.32-19.185a.8.8,0,1,0-1.107,1.157c8.083,7.73,16.588,16.632,16.83,18.11-.181,1.617-7.3,8.653-12.782,13.5-.006.005-.015.006-.021.013s-.011.014-.017.021a36.2,36.2,0,0,1-5.969,4.674c-1.01-.379-4.29-3.925-7.534-7.624a.8.8,0,0,0-.075-.306.785.785,0,0,0-.574-.435c-1.828-2.1-3.6-4.177-4.888-5.7-1.953-2.3-3.5-4.113-4.127-4.738-1.874-1.864-13.237-16.181-15.531-19.076,12.2-14.087,30.429-31.869,34.164-35.487h-2.3c-8.46,8.221-42.125,41.394-44.53,50.853a149.617,149.617,0,0,0-2.089,16.4c-10.583-.4-18.595-.662-19.634-.549-2.1.235-4.819,4.009-7.9,8.548-.542.8-1,1.471-1.325,1.906-1.808,2.41-6.056,28.729-7.094,39.219-.021.224-.046.461-.07.7l-21.233-1.148a.814.814,0,0,0-.843.758.8.8,0,0,0,.756.841l21.149,1.144c-1.285,11.579-4.575,34.049-4.679,34.772l0,.014,0,.015L229.7,170.687a.8.8,0,0,0,.742.854.348.348,0,0,0,.058,0,.8.8,0,0,0,.8-.744l1.071-15.235c3.8,4.56,15.026,17.889,20.938,23.243.459.416.9.864,1.332,1.334-15.725,17.246-15.736,18.242-15.736,18.615a4.013,4.013,0,0,0,1.11,2.386c-.451.569-.721.941-.879,1.19l-.009.007-20.693,21.685c-4.1-4.581-8.29-8.943-9.423-9.117-2.252-.342-19.858,15.939-22.952,19.332-1.042,1.142-1.281,1.567-1.156,2.062.275,1.1,15.015,21.594,21.338,30.355a.8.8,0,1,0,1.3-.936c-7.876-10.913-19.639-27.368-20.975-29.614,1.825-2.476,19.586-18.58,22.251-19.583,2.188,1.187,15.378,16.232,17.3,18.975a11.928,11.928,0,0,1,1.483,3.383c.493,1.547.956,3.009,2.354,3.682,1.942.935,20.885,10.006,20.885,10.006l.691-1.443s-18.943-9.071-20.883-10c-.774-.374-1.1-1.412-1.521-2.727a13.371,13.371,0,0,0-1.7-3.815c-.521-.743-4.059-4.994-7.919-9.357l20.008-20.97c.16.226.342.465.552.738a12.368,12.368,0,0,1,2.211,3.731c.438,1.458-.59,4.034-1.27,5.736a6.454,6.454,0,0,0-.758,2.671c.053.443.184,1.48,11.624,7.545a.8.8,0,0,0,.747-1.415c-4.728-2.508-9.9-5.519-10.768-6.429a15.845,15.845,0,0,1,.64-1.779c.809-2.023,1.913-4.8,1.316-6.787a13.637,13.637,0,0,0-2.476-4.252c-.288-.37-.633-.816-.768-1.024.139-.2.4-.534.731-.935a2.953,2.953,0,0,0,.84.123c1.976,0,4.587-1.716,7.1-4.781,2.386-2.9,7.547-9.111,9.455-11.4a67.015,67.015,0,0,1,5.952,16.661c.526,2.551-1.413,9.274-5.765,19.988l-.31.763c-1.134,2.839.574,9.082.773,9.784a.8.8,0,0,0,.771.583.814.814,0,0,0,.218-.029.8.8,0,0,0,.553-.988c-.5-1.764-1.618-6.777-.827-8.755l.306-.754c2.9-7.123,6.649-17.043,5.848-20.915-.291-1.414-2.561-11.782-7.6-19.585.077-.082.16-.171.235-.254a.8.8,0,0,0-1.156-1.1,23.907,23.907,0,0,0-3.308-3.771c-6.483-5.87-19.935-22.054-21.824-24.337.167-1.153.726-5.008,1.419-9.931,4.35.217,22.313,1.11,22.934,1.11a.8.8,0,0,0,0-1.6c-.566,0-15.829-.758-22.71-1.1,1.046-7.464,2.31-16.817,3-23.016l30.668,1.658c-.528,8.409-.9,14.823-1.035,17.086-9.989-.47-24.374-1.17-25.242-1.281a.8.8,0,0,0-.346,1.561c.518.128,15.875.868,25.54,1.321V143a3.716,3.716,0,0,0-2.6,1.937c-.424.932-.745,5.118-1.225,11.9-.253,3.577-.491,6.958-.706,8.456-.4,2.817-4.37,6.781-5.866,8.071a.8.8,0,1,0,1.046,1.212c.238-.2,5.838-5.071,6.406-9.057.222-1.555.462-4.962.717-8.572.316-4.461.747-10.569,1.086-11.353a1.881,1.881,0,0,1,1.078-.911l-1.588,26.859H280.7v7.531a.8.8,0,1,0,1.6,0v-7.531H297l.064-.731c.028-.32,2.807-32.309,3.071-43.939.029-1.267.064-2.878.1-4.717l44.758,2.418h.045a.8.8,0,0,0,.043-1.6l-44.813-2.423c.305-15.536.8-44.7.8-45.043a.8.8,0,0,0-.786-.814.811.811,0,0,0-.814.787c-.005.341-.5,29.438-.8,44.984L269.576,118.9c.649-10.2,1.5-22.971,2.409-34.743h20.367l-.092-.884c-.1-.963-.5-4.181-1.389-5.224-1.157-1.35-12.379-.758-13.227-.12-.232.174-.758.569-1.18,4.625h-4.354c.376-4.838.76-9.471,1.14-13.649,6.318.242,12.875.508,17.811.708,6.213.252,10.316.418,10.808.418,1.478,0,6.582-2.252,8.7-3.216,5.372,6.12,7.6,8.153,8.725,8.153a.66.66,0,0,0,.08,0c.776-.07,3.314-1.97,6.342-4.578,2.051,2.326,8.769,9.885,10.392,10.981,1.87,1.259,9.8,1.718,11.365,1.8h.043a.8.8,0,0,0,.038-1.6Zm-89.71,102.947c-1.473,1.774-7.268,8.74-9.842,11.871-2.124,2.587-4.119,3.908-5.421,4.153,3.336-3.871,9.9-11.109,14.919-16.577.117.184.232.367.344.553Zm-2.159-3.133c.309.392.614.792.907,1.206-8.924,9.7-13.346,14.689-15.533,17.293a2.668,2.668,0,0,1-.54-1.006c.832-1.53,9.421-11.184,15.165-17.491Zm42.954-59.309c-.038,1.861-.073,3.49-.1,4.768-.241,10.6-2.585,38.25-3,43.106h-28.7l1.605-27.138-.053,0v-4.461c.027-.444.445-7.686,1.089-17.854Zm-30.664-3.262-30.6-1.654.064-.623c1.15-11.652,5.4-36.575,6.78-38.419.338-.45.811-1.145,1.368-1.968,1.56-2.3,5.215-7.684,6.751-7.854.952-.107,9.658.186,19.31.552-1.349,14.775-2.729,35.1-3.671,49.966Zm10.68-39.571c1.669-.361,9.8-.634,11.05-.09a11.459,11.459,0,0,1,.858,3.4H278.075a20.387,20.387,0,0,1,.574-3.317Zm23.217-10.808c-.459,0-5-.184-10.742-.416-6.136-.249-12.235-.493-17.73-.7a147.649,147.649,0,0,1,2.035-16.069c.732-2.881,4.715-8.271,10.053-14.524,2.7,3.411,13.55,17.07,15.464,18.975.583.576,2.182,2.46,4.034,4.64,1.686,1.982,3.165,3.706,4.484,5.224-2.962,1.332-6.734,2.876-7.6,2.876ZM390.42,0c-2.666,2.556-7.854,7.284-11.376,10.452a.8.8,0,1,0,1.069,1.19C381.231,10.637,390.035,2.71,392.7,0Zm45.7,6.017a.751.751,0,0,0-.062-.092.741.741,0,0,0-.064-.041C433.863,3.612,431.9,1.549,430.42,0h-2.154c1.409,1.457,3.628,3.8,6.12,6.478-5.183,5.245-14.578,14.617-16.3,15.808-2.589,1.793-3.042,6.179-3.063,6.41l-1.918,46.262L381.231,72.7,384.6,13.15a.8.8,0,0,0-1.6-.09l-3.366,59.524-31.4-2.225a.8.8,0,1,0-.114,1.6l31.424,2.227L377.9,103.2a.8.8,0,0,0,.756.843l.046,0a.8.8,0,0,0,.8-.756l1.639-29,32.675,2.316h.058a.794.794,0,0,0,.3-.059.78.78,0,0,0,.087-.053.444.444,0,0,0,.235-.2.775.775,0,0,0,.1-.143.826.826,0,0,0,.035-.132.758.758,0,0,0,.043-.154l0-.011,0-.013L416.621,28.8c.1-1.062.73-4.066,2.377-5.2,2.108-1.459,13.7-13.142,16.477-15.954,6.134,6.606,13.329,14.571,13.927,15.927v9.1a.8.8,0,0,0,1.6,0V23.479c0-1.281-8.213-10.335-14.887-17.461ZM550.156,0c1.7,1.821,3.936,4.946,3.839,6.131-.349,1.334-8.029,7.978-15.253,13.628a.8.8,0,0,0,.986,1.262c4.706-3.682,15.672-12.486,15.858-14.727.124-1.5-1.537-4.2-3.3-6.294ZM591.99,0,552.073,34.865a.8.8,0,1,0,1.053,1.206L593.733.6A.79.79,0,0,0,594,0Zm65.346,12.241c-14.038-.171-29.737-.846-31.123-1.71-.637-.7-.527-5.665-.028-10.531h-1.611c-.4,3.863-.829,10.208.459,11.613,1.537,1.675,23.09,2.116,32.285,2.228h.011a.8.8,0,0,0,.009-1.6ZM778.6,22.941c-8.249,0-17.619-.338-18.8-.969-1.38-.736-14.551-12.262-23.391-20.113.336-.552.7-1.174,1.1-1.86H735.65a42.166,42.166,0,0,1-2.319,3.648c-1.761.1-13.769-.683-22.616-1.256-6.549-.423-12.206-.788-13.324-.788-.722,0-1.5-.683-2.207-1.6h-1.964c1.046,1.622,2.491,3.2,4.171,3.2,1.067,0,6.7.363,13.222.784,3.2.207,5.928.38,8.3.529.9,11.035,4.714,57.225,5.773,59.341a26.76,26.76,0,0,0,3.061,3.927c1.907,2.217,4.789,5.564,4.859,6.954-.072,1.49-7.85,8.079-15.015,13.329a.8.8,0,0,0,.947,1.291c4.757-3.487,15.807-11.9,15.666-14.693-.089-1.8-2.23-4.422-5.243-7.923a28.118,28.118,0,0,1-2.834-3.581c-.523-1.313-2.065-17.387-3.584-34.715l29.523.574h.017a.8.8,0,0,0,.015-1.6l-29.7-.576c-.665-7.63-1.318-15.41-1.874-22.224,7.518.464,10.783.623,12.257.623.928,0,1.152-.064,1.3-.152a7.561,7.561,0,0,0,1.458-1.857c4.2,3.731,21.613,19.145,23.5,20.153,2.06,1.1,16.52,1.157,19.575,1.157a.8.8,0,0,0,.862-.8.843.843,0,0,0-.883-.8Z" transform="translate(12.422 0.007)"/>
      <path id="Path_407" data-name="Path 407" class="cls-4" d="M836.432,7.289,819.6,3.7l.891-3.7h-1.646l-.811,3.367L804.729.53l.109-.53H803.2l-.2.982-1.039,5.039L775.91,1.7l.323-1.7H774.6l-2.76,14.5-29.406-6.03a.8.8,0,0,0-.32,1.569l29.428,6.033-2.93,15.389-27.162-5.566a.8.8,0,0,0-.32,1.569l27.181,5.571-3.009,15.82v.009l-.634,3.324-9.263,6.347-15.479-4.509a.8.8,0,1,0-.448,1.537l15.6,4.546,6.524,8.027L755.572,91.1a.8.8,0,0,0,.572.978.811.811,0,0,0,.2.027.8.8,0,0,0,.775-.6l5.232-19.931,24.97,5.405-3.719,18.031a.8.8,0,0,0,.622.946.789.789,0,0,0,.162.017.8.8,0,0,0,.783-.64l3.716-18.016,32.488,7.033a.8.8,0,0,0,.339-1.565l-32.5-7.036.267-1.289,32.491,6.866a.83.83,0,0,0,.167.017.8.8,0,0,0,.163-1.584L789.8,72.9l2.878-13.964,32.4,6.482a.774.774,0,0,0,.16.015.8.8,0,0,0,.155-1.585l-32.391-6.481.356-1.729,32.28,6.862a.8.8,0,1,0,.331-1.563l-32.288-6.864,3.134-15.2,32.149,6.591a.809.809,0,0,0,.16.016.8.8,0,0,0,.16-1.586l-14.567-2.985,1.763-13.279c1.231.252,2.484.508,3.746.768h0c4.006.822,8.068,1.665,11.59,2.4a.8.8,0,1,0,.326-1.567c-1.131-.235-5.557-1.157-10.744-2.224L826.471,6.8,836.1,8.853a.8.8,0,0,0,.335-1.564ZM804.406,2.1,817.66,4.924l-4.9,20.319c-6.04-1.225-11.3-2.262-11.992-2.3a2.088,2.088,0,0,1-.624-.2ZM775.61,3.27l26.029,4.32-2.956,14.328c-.849-.537-1.779-1.188-2.524-1.711a28.151,28.151,0,0,0-2.9-1.891c-1.686-.843-16-2.98-19.837-3.54ZM762.02,66.106l-5.3-6.531,7.529-5.158Zm25.628,9.312-24.887-5.387.3-1.147,24.85,5.253Zm.587-2.849-24.818-5.245,2.611-13.72,25.086,5.016Zm3.2-15.515-25.109-5.023.392-2.055L791.8,55.306Zm.683-3.315L767.02,48.4l2.863-15.047,25.369,5.2Zm4.84-23.467v0l-1.384,6.713-25.393-5.206,2.938-15.434c7.2,1.052,18.249,2.813,19.421,3.4a28.277,28.277,0,0,1,2.7,1.772c1.206.845,2.23,1.547,3.1,2.066l-1.38,6.686Zm16.191,10.32-16.008-3.283,1.22-5.915,15.565,3.347Zm.988-7.444-15.453-3.321,1.133-5.5a3.044,3.044,0,0,0,.859.209c.646.038,6.832,1.266,14.237,2.775Zm5.7-6.462c-1.808-.371-3.673-.752-5.5-1.125l4.893-20.3,5.677,1.21Zm496.517,1.96c-4.126-.992-8.73-2.166-9.984-2.641a9.647,9.647,0,0,1,1.03-3.092,54.324,54.324,0,0,1,8.954,1.526V22.793c-9.071-2.036-9.687-1.43-9.992-1.125-.847.847-1.919,4.239-1.477,5.176.181.39.392.828,11.469,3.453Z" transform="translate(49.644 0.007)"/>
    </g>
    <g id="основные_дороги" data-name="основные дороги" transform="translate(0.002 0.003)">
      <path id="Path_408" data-name="Path 408" class="cls-5" d="M665.672,0,587.93,69.5a106.239,106.239,0,0,0-24.588,32.608L447.322,340.1a3.187,3.187,0,0,0-.322,1.4h6.764L569.1,104.917A99.854,99.854,0,0,1,592.2,74.271L675.279,0Z" transform="translate(30.031 0.004)"/>
      <path id="Path_409" data-name="Path 409" class="cls-5" d="M510.787,0a3.191,3.191,0,0,0,.8,2.124c.992,1.121,99.385,112.2,109.948,123.823C632.318,137.8,708.69,233.26,713.023,239.758a159.628,159.628,0,0,1,17.75,37.6c4.383,14.029,15.406,51.641,19.06,64.143h6.672c-2.977-10.181-14.985-51.217-19.622-66.053a166.6,166.6,0,0,0-18.534-39.24c-4.367-6.55-81.234-102.644-92.072-114.565C616.554,110.945,532.01,15.517,518.263,0ZM673,331.894a3.187,3.187,0,0,1-1.406-.327l-298.779-146.3a51.7,51.7,0,0,0-21.3-5.276l-56.62-1.715a3.2,3.2,0,1,1,.2-6.4l56.619,1.715a58.057,58.057,0,0,1,23.928,5.927l298.779,146.3A3.2,3.2,0,0,1,673,331.894ZM485.573,0,447.645,32.937l7,8.057L501.851,0H485.573Z" transform="translate(19.603 0.004)"/>
      <path id="Path_410" data-name="Path 410" class="cls-5" d="M201.155,338.35c5.958-11.613,40.239-78.488,46.017-91.009,6.056-13.121,20.236-43.843,32.406-59.333,7.711-9.813,150.334-134.653,156.4-139.963a3.2,3.2,0,1,1,4.216,4.82c-51.242,44.841-149.7,131.62-155.581,139.1-11.707,14.9-25.666,45.142-31.627,58.058-5.53,11.982-35.753,71.007-44.622,88.3ZM454.809,52.591l4.845-4.183L555.38,159.335l-4.848,4.183Zm-12.633,77.632c-.041,0-.081,0-.122,0a2.134,2.134,0,0,1-2.012-2.252l4-71.071a2.135,2.135,0,0,1,4.262.239L444.3,128.209a2.134,2.134,0,0,1-2.129,2.015Z" transform="translate(13.514 3.179)"/>
      <path id="Path_411" data-name="Path 411" class="cls-5" d="M358.555,0,348.033,176.089l6.392.382L364.8,2.85,445.466,42.2l2.807-5.754L373.565,0ZM45.942,0c14.885,12.012,209.9,169.426,222.121,179.61,13.641,11.368,24.172,26.009,28.893,40.173,2.63,7.886,2.451,13.8-.53,17.559-4.394,5.549-13.679,5.169-16.42,4.918-13.244-1.206-22.906,9.943-23.312,10.418a3.2,3.2,0,1,0,4.866,4.162c.079-.092,7.959-9.1,17.868-8.2,4.546.413,15.8.528,22.016-7.321,4.407-5.564,4.941-13.491,1.586-23.56-5.087-15.261-16.339-30.957-30.869-43.066C260.817,165.24,92.878,29.659,56.135,0Z" transform="translate(3.087 0.004)"/>
      <path id="Path_412" data-name="Path 412" class="cls-5" d="M292.811,246.587a18.057,18.057,0,0,1-15.954-9.092c-3.635-6.058-2.089-17-.647-18.652l1.531-1.754,2.145.916a3.2,3.2,0,0,1,1.755,4.017c-.47,1.853-1.359,8.74.706,12.182,1.466,2.444,5.866,7.854,15.053,5.327a3.2,3.2,0,1,1,1.7,6.174,23.737,23.737,0,0,1-6.286.883Zm-12.788-22.763v0Zm0,0h0Zm.658-.427a3.216,3.216,0,0,1-.657.427,3.191,3.191,0,0,0,.656-.427ZM0,200.089l128.485,93.3a119.548,119.548,0,0,0,19.786,11.637L226.7,341.5h15.186l-90.918-42.28A113.091,113.091,0,0,1,132.248,288.2L0,192.176ZM1114.6,341.5,1186.569,0h6.555l-71.977,341.5H1114.6Z" transform="translate(0 0.004)"/>
      <path id="Path_413" data-name="Path 413" class="cls-5" d="M703.36,258.514a3.2,3.2,0,0,1-1.031-6.232L890.52,188.3a64.535,64.535,0,0,1,33.155-2.223l170.216,33.4a3.2,3.2,0,0,1-1.236,6.286L922.444,192.363a58.133,58.133,0,0,0-29.862,2L704.39,258.34a3.2,3.2,0,0,1-1.031.171Z" transform="translate(47.039 12.425)"/>
      <path id="Path_414" data-name="Path 414" class="cls-5" d="M1024.155,0l-42.41,218.378a3.2,3.2,0,1,0,6.284,1.221L1030.686,0ZM914.685,0,891.762,108.768a55.883,55.883,0,0,0-1,16.355l6.557,75.788a2.668,2.668,0,0,0,2.655,2.437c.078,0,.155,0,.235-.011a2.668,2.668,0,0,0,2.427-2.887l-6.558-75.787a50.532,50.532,0,0,1,.9-14.794L920.136,0ZM831.1,0,798.883,165.259a2.668,2.668,0,1,0,5.237,1.021L836.53,0Z" transform="translate(53.668 0.004)"/>
      <path id="Path_415" data-name="Path 415" class="cls-5" d="M761.688,0,756.7,88.256l371.205,72.667,5.141.975a2.668,2.668,0,1,0,.995-5.242l-5.127-.971L762.3,83.913,767.032,0ZM1323.08,341.525l-97.069-20.1a3.2,3.2,0,1,1,1.3-6.27l96.222,19.927,14.383-14.381v9.054l-11.75,11.748ZM433.086,60.392a15.1,15.1,0,1,1,15.1-15.1,15.1,15.1,0,0,1-15.1,15.1Zm0-25.4a10.3,10.3,0,1,0,10.3,10.3,10.3,10.3,0,0,0-10.3-10.3Z" transform="translate(28.082 0.004)"/>
      <path id="Path_416" data-name="Path 416" class="cls-5" d="M432.674,55.762a2.134,2.134,0,0,1-1.4-3.746l19.145-16.662a2.134,2.134,0,1,1,2.8,3.22L434.073,55.237a2.127,2.127,0,0,1-1.4.525Zm-108.74,97.043a3.2,3.2,0,0,1-3.2-3.2v-4.836L370.6,100.386l6.739-2.011a3.2,3.2,0,1,1,1.83,6.136l-5.374,1.6-46.657,41.526V149.6a3.2,3.2,0,0,1-3.2,3.2ZM1097.762,0l73.817,14.626a2.134,2.134,0,1,1-.83,4.187L1075.788,0ZM282.329,219.833c-1.323-28.761-.045-30.613.377-31.222.907-1.313,4.562-3.252,23.3-11.536,2.4-1.062,4.864-2.151,6.227-2.779a61.949,61.949,0,0,0-5.6-9.541l3.513-2.426c4.749,6.879,6.934,11.392,6.5,13.414a2.632,2.632,0,0,1-1.21,1.727c-.6.358-2.478,1.2-7.705,3.511-6.258,2.767-19,8.4-21.423,10.066-.514,2.81-.27,16.426.29,28.59ZM286.045,191.244ZM576.28,107.781a2.134,2.134,0,0,1-1.916-3.074c.208-.425,5.2-10.421,14.524-11.534,6.51-.776,13.237,2.961,20,11.109a2.135,2.135,0,0,1-3.287,2.726c-5.773-6.962-11.227-10.188-16.2-9.6-7.043.841-11.152,9.088-11.195,9.171a2.134,2.134,0,0,1-1.919,1.2Z" transform="translate(18.929 0.004)"/>
      <path id="Path_417" data-name="Path 417" class="cls-5" d="M589.675,105.142a2.129,2.129,0,0,1-1.6-.717c-19.356-21.788-2.625-43.139-2.454-43.352a2.135,2.135,0,1,1,3.329,2.673c-.632.794-14.588,18.814,2.316,37.844a2.134,2.134,0,0,1-1.593,3.551Z" transform="translate(38.882 4.054)"/>
      <path id="Path_418" data-name="Path 418" class="cls-5" d="M571.968,70.664a30.506,30.506,0,0,1-17.15-5.478,2.134,2.134,0,0,1,2.628-3.364c.651.5,15.8,11.9,32.467-3A2.135,2.135,0,0,1,592.758,62c-7.4,6.611-14.645,8.662-20.792,8.662Z" transform="translate(37.22 3.919)"/>
      <path id="Path_419" data-name="Path 419" class="cls-5" d="M557.427,109.191a2.134,2.134,0,0,1-2.022-2.821c.092-.265,8.858-26.706-2.7-39.742a2.135,2.135,0,1,1,3.193-2.834c13.212,14.9,3.953,42.769,3.554,43.949A2.135,2.135,0,0,1,557.427,109.191ZM630.133,0l-1.48,28.048a3.2,3.2,0,0,0,3.029,3.366c.058,0,.114,0,.171,0a3.2,3.2,0,0,0,3.2-3.033L636.543,0Z" transform="translate(37.096 0.004)"/>
      <circle id="Ellipse_2" data-name="Ellipse 2" class="cls-5" cx="6.004" cy="6.004" r="6.004" transform="translate(500.201 282.224)"/>
      <path id="Path_420" data-name="Path 420" class="cls-5" d="M277.493,174.257c-13.671,0-24.892-8.263-25.06-8.39L255,162.455h0c.953.715,22.83,16.717,41.2.123l2.863,3.17a31.347,31.347,0,0,1-21.566,8.51Z" transform="translate(16.959 10.919)"/>
    </g>
  </g>
</svg>
