<svg xmlns="http://www.w3.org/2000/svg" viewBox="1627 -63 12 14">
  <defs>
    <style>
      .cls-1 {
        fill: #c7d0d8;
      }
    </style>
  </defs>
  <g id="Group_2316" data-name="Group 2316" transform="translate(500 -244)">
    <rect id="Rectangle_462" data-name="Rectangle 462" class="cls-1" width="1" height="6" transform="translate(1134 186)"/>
    <rect id="Rectangle_463" data-name="Rectangle 463" class="cls-1" width="1" height="6" transform="translate(1131 186)"/>
    <path id="Path_1384" data-name="Path 1384" class="cls-1" d="M12,2H8.5V1.5A1.412,1.412,0,0,0,7.2,0H4.8A1.412,1.412,0,0,0,3.5,1.5V2H0V3H1v8.5A2.5,2.5,0,0,0,3.5,14h5A2.5,2.5,0,0,0,11,11.5V3h1ZM4.5,1.5c0-.286.158-.5.3-.5H7.2c.142,0,.3.214.3.5V2h-3Zm5.5,10A1.5,1.5,0,0,1,8.5,13h-5A1.5,1.5,0,0,1,2,11.5V3h8Z" transform="translate(1127 181)"/>
  </g>
</svg>
