<svg xmlns="http://www.w3.org/2000/svg" viewBox="-992 138 17 17"><defs><style>.cls-1{fill:transparent;stroke:#c5d1d9}.cls-2{fill:#4272a4}.cls-3{stroke:none}.cls-4{fill:none}</style></defs><g id="Group_61" data-name="Group 61" transform="translate(-1046 73)"><g id="Ellipse_6" data-name="Ellipse 6" class="cls-1" transform="translate(54 65)"><circle class="cls-3" cx="8.5" cy="8.5" r="8.5"/><circle class="cls-4" cx="8.5" cy="8.5" r="8"/></g><path id="Path_170" data-name="Path 170" class="cls-2" d="M912.85 132.83l-.15.62-1.09.41a2.861 2.861 0 0 1-.95.14 1.88 1.88 0 0 1-1.29-.4 1.3 1.3 0 0 1-.46-1 3.677 3.677 0 0 1 0-.49 2.7 2.7 0 0 1 .11-.57l.57-2c.05-.19.09-.38.13-.55a2.5 2.5 0 0 0 .05-.47.73.73 0 0 0-.16-.54.9.9 0 0 0-.61-.15 1.6 1.6 0 0 0-.45.07l-.4.13.15-.62c.37-.15.73-.28 1.07-.39a3.23 3.23 0 0 1 1-.16 1.85 1.85 0 0 1 1.27.4 1.32 1.32 0 0 1 .45 1v.46a3.113 3.113 0 0 1-.11.61l-.57 2a5.476 5.476 0 0 0-.12.55 2.873 2.873 0 0 0-.06.47.68.68 0 0 0 .18.55 1 1 0 0 0 .62.14 1.83 1.83 0 0 0 .47-.07 2.469 2.469 0 0 0 .35-.14zm.15-8.44a1.18 1.18 0 0 1-.4.89 1.43 1.43 0 0 1-1.92 0 1.17 1.17 0 0 1-.4-.89 1.19 1.19 0 0 1 .4-.9 1.42 1.42 0 0 1 1.92 0 1.19 1.19 0 0 1 .4.9z" transform="translate(-848.15 -55.116)"/></g></svg>