<svg xmlns="http://www.w3.org/2000/svg" viewBox="6688.5 2214 196.905 99.999">
  <defs>
    <style>
      .cls-1 {
        fill: #c5d1d9;
      }
    </style>
  </defs>
  <g id="Group_2684" data-name="Group 2684" transform="translate(6688.5 2214)">
    <path id="Subtraction_22" data-name="Subtraction 22" class="cls-1" d="M125.232,100a1.707,1.707,0,0,1-1.23-.561c-.245-.244.432-3.384,2.5-9.851-21.718,1.7-48.734,1.954-62.9,1.954-19.842,0-36.2-.466-41.526-.9-10.95-.9-15.254-5.291-18.651-12.083C2.037,75.68,1.065,71.084.526,64.891.055,59.472,0,53.824,0,50.047,0,45.3.058,40.229.477,35.254,1,29.074,1.986,24.461,3.416,21.543,6.785,14.672,11.08,10.231,22.067,9.328c5.361-.442,21.012-.889,40.552-.889,14.426,0,41.924.269,64.01,2.07-2.065-6.465-2.742-9.607-2.5-9.852A1.476,1.476,0,0,1,125.339,0a2.942,2.942,0,0,1,1.947,1.051c1.8,1.8,6.131,9.122,6.173,9.194l.028,0c1.427-.086,14.233-.838,24.219-.838,2.864,0,5.269.062,7.149.184,10.235.533,21.55,1.584,26.272,7.356,2.09,2.5,3.659,7.552,4.662,15.024a145.577,145.577,0,0,1,1.116,18.077,138.707,138.707,0,0,1-1.182,18.029c-1.04,7.439-2.631,12.51-4.728,15.074-2.128,2.541-5.764,4.356-11.117,5.55a103.259,103.259,0,0,1-15.155,1.807c-1.877.122-4.279.184-7.141.184-10.489,0-24.119-.833-24.255-.842l0,.008c-.448.757-4.428,7.447-6.169,9.188A2.964,2.964,0,0,1,125.232,100ZM79.471,81.706c-24.537,0-40.2,2.1-40.2,3.546,0,1.43,20.178,1.94,39.061,1.94,20.17,0,42.644-.581,42.644-1.415,0-.819-4.442-1.825-11.593-2.626A281.416,281.416,0,0,0,79.471,81.706Zm57.853-64.062a73.583,73.583,0,0,0-12.666,1.405l-.276.055c-7.768,1.536-11.666,2.307-12.721,4.26-.508.941-.393,2.164.387,4.091a40.756,40.756,0,0,1,2.775,11.066c.442,3.47.509,6.116.509,6.141V55.434c0,.287-.056,2.877-.46,6.19a37.147,37.147,0,0,1-2.825,11.017c-.811,1.892-.951,3.094-.469,4.019.974,1.87,4.585,2.621,11.777,4.116l1.3.271a75.473,75.473,0,0,0,12.687,1.4,18.553,18.553,0,0,0,4-.353c4.942-1.13,8.423-7.49,10.64-19.442a126.586,126.586,0,0,0,1.445-12.608,126.745,126.745,0,0,0-1.445-12.612c-2.218-11.951-5.7-18.31-10.64-19.44A18.665,18.665,0,0,0,137.324,17.643Zm-96.11,3.551c-5.379,0-8.936.845-10.873,2.583-2.307,2.1-3.4,6.991-3.906,10.721a64.305,64.305,0,0,0-.558,7.669V57.8a65.362,65.362,0,0,0,.558,7.733c.509,3.76,1.6,8.683,3.906,10.789,2,1.8,5.6,2.678,11.006,2.678a109.339,109.339,0,0,0,11.279-.8c1.81-.194,3.373-.361,4.645-.438.624-.028.909-.1.955-.236.06-.181-.31-.485-.871-.944a13.722,13.722,0,0,1-3.763-4.337c-2.393-4.5-3.282-10.52-3.282-22.2s.89-17.7,3.282-22.2a14.128,14.128,0,0,1,3.695-4.23c.605-.506,1.005-.84.938-1.039-.048-.144-.342-.22-.954-.248-1.411-.057-3.186-.231-5.242-.433C48.665,21.568,44.851,21.194,41.215,21.194Zm37.233-8.257c-18.937,0-39.173.536-39.173,2.039,0,.687,4.316,1.53,11.264,2.2,8.135.783,18.643,1.215,29.589,1.215a291.079,291.079,0,0,0,29.589-1.33c7.053-.76,11.264-1.736,11.264-2.611,0-.41-4.76-.8-13.4-1.085C99.477,13.093,88.859,12.938,78.448,12.938Z" transform="translate(0 0)"/>
  </g>
</svg>
