<svg xmlns="http://www.w3.org/2000/svg" width="36" height="18" viewBox="0 0 11715 5857" shape-rendering="geometricPrecision" text-rendering="geometricPrecision" image-rendering="optimizeQuality" fill-rule="evenodd" clip-rule="evenodd"><defs><style>.fil0{fill:#c8c8c8}</style></defs><path class="fil0" d="M426 0h6505c117 0 224 48 301 125 78 78 126 185 126 302v3340H5L0 427c0-118 48-224 125-301C202 48 309 0 426 0zm2217 4021c252 0 481 103 646 268 166 165 268 395 268 647s-102 481-268 646c-165 166-394 269-646 269-253 0-482-103-647-268-165-166-268-394-268-647 0-252 103-481 268-646 166-166 395-269 647-269zm308 608c-80-79-188-128-308-128s-229 49-308 127c-79 79-127 188-127 308s49 229 127 307c79 79 188 127 308 127s228-48 307-126c79-79 127-188 127-308s-48-229-126-307zm6791-615c255 0 485 104 652 270 166 167 269 398 269 652s-103 484-269 651c-168 167-398 270-652 270s-484-103-651-269c-167-167-270-398-270-652s103-485 270-651c167-167 397-271 651-271zm311 611c-79-79-189-128-311-128-121 0-231 49-310 128-80 79-129 189-129 311s49 231 128 310c80 80 190 129 311 129 122 0 232-49 311-128 79-80 128-189 128-311s-49-232-128-311zm1612 472c-55 172-146 171-347 167-53 0-119-2-199 3-94 7-218 0-315 0l24-136c5-32 10-64 13-97 3-30 4-62 4-98 0-165-36-321-100-461-67-146-166-275-286-378l-103-88h1357c2 230 2 462-4 653-6 199-20 358-44 435zM7696 3767l-7-1051c-5-802-11-1601-11-2107V493l2276-6c210-1 655 474 1038 1037 376 550 707 1194 708 1553 0 71 2 191 5 335l6 355H7696zm1329 330c-120 103-218 232-285 378-64 140-100 296-100 461 0 36 1 68 3 97 3 34 8 66 13 98l25 136h-555c-117 0-224-48-301-125-78-78-126-185-126-302l-2-831h1431l-103 88zm-459-2735l2 608 748-1 202 448 1153-2c-46-76-123-199-210-337-157-246-349-518-487-654-31-30-56-52-70-60l-1338-2zM7358 4009v740c0 117-48 224-125 301-78 78-185 126-302 126H3727l13-128c3-35 5-72 5-112 0-165-36-321-100-461-67-146-165-275-286-378l-103-88h4102zm-5432 88c-120 103-219 232-286 378-64 140-100 296-100 461 0 40 2 77 5 112l13 128h-128c-115 0-225 3-338 6-261 8-545 16-752-6-88-10-164-32-224-75-69-52-110-126-110-232l-1-860h2024l-103 88z" id="Слой_x0020_1"/></svg>