<svg id="Слой_1" data-name="Слой 1" xmlns="http://www.w3.org/2000/svg" viewBox="0 0 144 144"><defs><style>.cls-1 {fill: #eef3f6;} .cls-2 {fill: #4272a4;}</style></defs><circle class="cls-1" cx="72" cy="72.01245" r="72"/><g><g><path class="cls-2" d="M109.5,113.51245h-75a4.00458,4.00458,0,0,1-4-4v-53a4.00458,4.00458,0,0,1,4-4h9v2h-9a2.002,2.002,0,0,0-2,2v53a2.002,2.002,0,0,0,2,2h75a2.002,2.002,0,0,0,2-2v-53a2.002,2.002,0,0,0-2-2h-9v-2h9a4.00458,4.00458,0,0,1,4,4v53A4.00458,4.00458,0,0,1,109.5,113.51245Z"/><rect class="cls-2" x="92.69106" y="76.02715" width="1.99972" height="37.71378" transform="translate(-39.22337 105.59665) rotate(-49.97047)"/><rect class="cls-2" x="31.75027" y="94.01234" width="37.25923" height="2.00023" transform="translate(-49.34847 54.76628) rotate(-40.08852)"/><polygon class="cls-2" points="72.13 90.325 31.482 55.774 32.777 54.251 72.13 87.7 111.482 54.251 112.777 55.774 72.13 90.325"/></g><g><path class="cls-2" d="M101.5,65.51245h-2V47.25562L84.88965,32.51245H46.44824A2.07383,2.07383,0,0,0,44.5,34.59888V64.51245h-2V34.59888a4.07316,4.07316,0,0,1,3.94824-4.08643H85.72363L101.5,46.43237Z"/><path class="cls-2" d="M100.5,48.51245H88.69385A4.19859,4.19859,0,0,1,84.5,44.3186V31.51245h2V44.3186a2.19661,2.19661,0,0,0,2.19385,2.19385H100.5Z"/><path class="cls-2" d="M57.5,57.51245h-7v-7h7Zm-5-2h3v-3h-3Z"/><rect class="cls-2" x="60.5" y="52.51245" width="27" height="2"/><path class="cls-2" d="M57.5,68.51245h-7v-7h7Zm-5-2h3v-3h-3Z"/><rect class="cls-2" x="60.5" y="63.51245" width="27" height="2"/></g></g></svg>
