<svg id="Слой_1" data-name="Слой 1" xmlns="http://www.w3.org/2000/svg" viewBox="0 0 144 144"><defs><style>.cls-1 {fill: #eef3f6;} .cls-2 {fill: #4272a4;}</style></defs><circle class="cls-1" cx="72" cy="72" r="72"/><g><path class="cls-2" d="M71.553,84.55829A11.00522,11.00522,0,1,0,63.77112,81.335,10.971,10.971,0,0,0,71.553,84.55829ZM65.18536,67.18536A9.00526,9.00526,0,1,1,62.54779,73.553,8.94629,8.94629,0,0,1,65.18536,67.18536Z"/><path class="cls-2" d="M100.874,44.23193A41.08766,41.08766,0,0,0,72.04279,32.10309a7.7125,7.7125,0,0,0-2.13989-4.09033l-1.50067-1.50061a6.67771,6.67771,0,0,0-4.6554-2.00983q-.10886,0-.21808.004h-11.017l-.08142.00439a9.18755,9.18755,0,0,0-6.317,2.8512L25.36188,48.11328c-2.26306,2.26312-2.687,5.81018-2.76422,7.23016l-.00446.08209.00006.08221.00482,10.01184a6.56135,6.56135,0,0,0,1.914,4.88269l1.50061,1.50061a7.70019,7.70019,0,0,0,4.08569,2.14233A41.46261,41.46261,0,1,0,100.874,44.23193ZM38.546,70.34491,51.54773,57.34314A2.88779,2.88779,0,1,0,55.42584,53.465L68.34613,40.54474A33.17515,33.17515,0,1,1,38.546,70.34491Zm-11.91254-2.064a3.55128,3.55128,0,0,1-1.03534-2.696l-.00482-10.07861a8.4357,8.4357,0,0,1,1.89-5.27173L48.23456,29.48328a6.20929,6.20929,0,0,1,4.3587-1.97693h11c.05121-.00269.10248-.004.15344-.004a3.66053,3.66053,0,0,1,2.53424,1.1311l1.50061,1.50067a4.76065,4.76065,0,0,1,0,6.73254L34.86664,69.78156a4.76057,4.76057,0,0,1-6.7326,0Zm72.11951,32.472a38.458,38.458,0,0,1-65.6554-26.74384,7.67816,7.67816,0,0,0,3.30731-1.57916A35.1723,35.1723,0,1,0,70.43207,38.40234a7.70342,7.70342,0,0,0,1.56946-3.3,38.45308,38.45308,0,0,1,26.7514,65.65063Z"/><path class="cls-2" d="M71.553,90.35052a16.79745,16.79745,0,1,0-11.87762-4.91986A16.745,16.745,0,0,0,71.553,90.35052ZM61.0896,63.08966a14.79745,14.79745,0,1,1,0,20.92682A14.70083,14.70083,0,0,1,61.0896,63.08966Z"/><circle class="cls-2" cx="95.82263" cy="73.41254" r="2.89612"/><circle class="cls-2" cx="47.16785" cy="73.41254" r="2.89612"/><circle class="cls-2" cx="71.49524" cy="49.08514" r="2.89612"/><circle class="cls-2" cx="71.49524" cy="97.73987" r="2.89612"/><circle class="cls-2" cx="88.87195" cy="56.03583" r="2.89612"/><circle class="cls-2" cx="54.11853" cy="90.78918" r="2.89612"/><circle class="cls-2" cx="88.87195" cy="90.78918" r="2.89612"/><path class="cls-2" d="M36.09326,59.50635a4.5,4.5,0,1,0-4.5-4.5A4.5,4.5,0,0,0,36.09326,59.50635Zm0-7a2.5,2.5,0,1,1-2.5,2.5A2.50283,2.50283,0,0,1,36.09326,52.50635Z"/><path class="cls-2" d="M53.09326,42.50635a4.5,4.5,0,1,0-4.5-4.5A4.5,4.5,0,0,0,53.09326,42.50635Zm0-7a2.5,2.5,0,1,1-2.5,2.5A2.50283,2.50283,0,0,1,53.09326,35.50635Z"/></g></svg>
