<svg id="Слой_1" data-name="Слой 1" xmlns="http://www.w3.org/2000/svg" width="13" height="16" viewBox="0 0 13 16"> <defs> <style> .cls-1 { fill: #74bc92; } .cls-2 { fill: #fff; } </style> </defs>  <g id="Group_300" data-name="Group 300"> <path id="Path_196" data-name="Path 196" class="cls-1" d="M.01908,2.573s-.043,3.64,0,6.682S4.649,15.314,4.649,15.314a7.93871,7.93871,0,0,0,1.384.578c.571.144.31909.144.8999,0a8.52339,8.52339,0,0,0,1.41992-.578s4.59106-2.872,4.62988-6.059,0-6.682,0-6.682S12.42679,0,6.50077,0,.01908,2.573.01908,2.573Z"/> </g> <path class="cls-2" d="M8.81055,4.33789h-3.771V6.68506H6.98486a2.835,2.835,0,0,1,1.91162.62842,2.118,2.118,0,0,1,.6875,1.665A2.16577,2.16577,0,0,1,8.89063,10.665,2.78334,2.78334,0,0,1,7,11.31445H4.00342V3.49463H8.81055Zm-3.771,3.19043v2.94336H6.92529a1.66,1.66,0,0,0,1.19482-.40918,1.45038,1.45038,0,0,0,.42676-1.09766,1.35249,1.35249,0,0,0-.41113-1.04346,1.68739,1.68739,0,0,0-1.16748-.39307Z"/> </svg> 
