<svg id="Group_241" data-name="Group 241" xmlns="http://www.w3.org/2000/svg" viewBox="1219.3 1556.9 96 96">
  <defs>
    <style>
      .cls-1 {
        fill: #eef3f6;
      }

      .cls-2 {
        fill: #fff;
      }

      .cls-3 {
        fill: #c5d1d9;
      }
    </style>
  </defs>
  <g id="Group_226" data-name="Group 226" transform="translate(1099 1436.1)">
    <path id="Path_435" data-name="Path 435" class="cls-1" d="M168.3,216.3a46.466,46.466,0,0,1-29.1-10,46.986,46.986,0,0,1-18.4-37.5,47.5,47.5,0,1,1,75.3,38.5A46.858,46.858,0,0,1,168.3,216.3Z"/>
    <path id="Path_436" data-name="Path 436" class="cls-2" d="M168.3,121.8a46.99,46.99,0,0,1,27.5,85.1,46.995,46.995,0,1,1-27.5-85.1m0-1a47.99,47.99,0,1,0,48,48,48.012,48.012,0,0,0-48-48Z"/>
  </g>
  <path id="Path_437" data-name="Path 437" class="cls-3" d="M191.9,200.5a39.378,39.378,0,0,1-47.3-.8l-.1-1.9a16.051,16.051,0,0,0,13.6-7.5,8.452,8.452,0,0,0-1-9.9,18.942,18.942,0,0,1-4.5-11.3l-3-7.4c-.6-1.6,1-2.4,2.5-2.7l-.9-9.4h0v-.5c0-5.1,8.6-12.1,17.1-12.1s17.1,7,17.1,12.1v.5l-.9,9.4c1.6.3,3.3.8,2.7,2.3l-3.3,7.8a18.942,18.942,0,0,1-4.5,11.3,8.313,8.313,0,0,0-1,9.9,15.923,15.923,0,0,0,13.6,7.5Z" transform="translate(1099 1436.1)"/>
</svg>
