<svg xmlns="http://www.w3.org/2000/svg" width="49" height="44" viewBox="0 0 11661 10466" shape-rendering="geometricPrecision" text-rendering="geometricPrecision" image-rendering="optimizeQuality" fill-rule="evenodd" clip-rule="evenodd"><defs><style>.str0{stroke:#aaacae;stroke-width:472.461}.fil0{fill:none}.fil1{fill:#aaacae}</style></defs><g id="Слой_x0020_1"><g id="_2684657101312"><path class="fil0 str0" d="M236 236h9351v1698H2205v6687H236z"/><path class="fil0 str0" d="M2205 1934h9220v8296H2205z"/><path class="fil1" d="M8948 6363c11-92 20-183 20-281s-9-189-20-281l605-474c55-43 69-120 35-183l-574-993c-35-63-112-86-175-63l-715 287c-149-115-310-210-485-282l-109-760c-9-69-69-120-141-120H6242c-72 0-132 51-141 120l-109 760c-175 72-336 170-485 282l-714-287c-66-26-141 0-175 63l-574 993c-37 63-20 140 34 183l606 474c-12 92-20 186-20 281s8 189 20 281l-606 474c-54 43-69 120-34 183l574 993c34 63 112 86 175 63l714-287c149 115 310 210 485 282l109 760c9 69 69 120 141 120h1147c72 0 132-51 141-120l109-760c175-72 336-170 485-282l714 287c66 26 141 0 175-63l574-993c35-63 20-140-34-183l-606-474h1zm-2132 723c-554 0-1005-450-1005-1004s451-1004 1005-1004c553 0 1004 450 1004 1004s-451 1004-1004 1004z"/></g></g></svg>