<svg xmlns="http://www.w3.org/2000/svg" width="40" height="45" viewBox="0 0 7987 8964" shape-rendering="geometricPrecision" text-rendering="geometricPrecision" image-rendering="optimizeQuality" fill-rule="evenodd" clip-rule="evenodd"><defs><style>.fil0{fill:#44414d}</style></defs><path class="fil0" d="M3993 8509l-64-20c-186-117-337-72-586-81-4-169 99-42 95-236l-357-360c-275-299-514-37-744-166 16-108-13-12 67-87 103-96 195-150 215-208 46-136-79-254-152-387-256-471-65-400-747-419 24-100 75-132 159-199l25-20c10-7 26-18 40-29 175-138 157-229 64-546-16-51-16-61-30-127l-81-352c-168-244-885 151-264-319 83-63 208-142 238-239 27-86 31-877 4-927-71-69-357 1-447-53 16-89-11-31 56-80 138-103 410-219 490-344 62-96 164-377 186-470 25-103 34-124 71-210 63-145 35-206-103-226l-368-6c0-88-14-45 45-83 0 0 44-21 47-23 31-15 23-10 49-23 69-33 152-67 210-94 244-112 375-130 531-345l183-255c25-38 25-49 52-84l62-75c30-54 21-34 26-120l-516-20c57-138 761-222 1012-395 81-56 332-232 360-315l-536-12c30-45-13-2 56-36l669-103 253-55c11 29 11 27 11 27-11 134-161 211-278 211-8-92-34-52-34-52l-401 369c33 92 1-20 37 52 8 16 9 5 12 36 11 120-246 405-292 229h-35c-14 52-260 383-342 550-52 108-86 127-93 206 150 16 21 267-20 331-65 104-40 74-142 83-71 6-19-33-84 146-48 133-193 626-206 777 68 1 41-5 87 17 10 119 38 143-7 274-7 20-43 95-52 107-37 46-48 34-97 24 0 160-36 301-36 456v494c121 2 159 110 172 215 5 49-10 123-26 160-26 59-57 76-128 82 32 138 70 513 135 813 4 15 19 83 20 86 45 115 106-2 199 167 66 120 98 249-41 324 29 125 266 660 321 713 26 26 217-2 288 307-27 39-3 22-52 35 10 120 404 552 487 598l14-1c3-1 14-3 17-3 41-6-2-15 58 0 48 12 68 31 98 60 21 20 64 63 76 85 10 24 13 15 7 47-18 38 7 81 57 124zM2397 187c-84 51-70 72-74 179 105 52 200 47 241 162-288-8-712-88-940 45l-30 18c-123 79-228 196-219 339l233 148c80 51 182 88 217 170-21 44-6 27-55 53-180 97-659-51-847 41-114 55-206 292-244 377-96 213-166 277 89 406l328 215c-5 4-15 0-19 8s-14 6-19 8c-5 1-14 5-20 7-6 1-13 3-20 5-4 1-73 14-75 15-64 12-90 14-163 19l-331 40c-108 13-154 88-180 187-37 143-155 472-98 612l100 83c59 31 59 36 108 76l390 260c52 48 30-41 40 68-33 18-649 120-747 133-53 142-60 300-60 465 0 73-7 196 7 263 4 15 27 74 39 95 25 43 4 14 28 42 108 126 401 206 572 311 95 58 114 33 158 135L97 5276c-31 161 13 658 84 750 94 122 223 163 374 212 75 25 39 8 100 39l357 155c5 2 11 5 16 7 21 10 30 14 48 25 28 16 61 33 77 65-167 76-434 89-667 122-41 196 70 464 195 599 54 59 166 86 262 115l387 123c133 55 342 55 409 152-135 79-542-25-633 61-115 108 136 470 509 516 188 24 848 105 965 171-108 57-457 61-621 76-65 554 3333 574 3713 410 44-36 71-124 102-209 16-43 166-92 191-107 317 106 182 167 435-58 94-84 194-133 204-252 12-141-46-83 19-172 34-47 73-79 104-125 200 47 217 21 403-278 419-673 65-403 210-685 23-44 50-132 92-153 132-66 105 72 214-259 53-159 226-599 133-746-99-159-51-129 8-395 160-13 146-137 158-297 21-282 77-850 10-1121-19-75-63-96-133-112-25-259-102-232 16-389 128-169-153-962-155-965-97-144-97 53-209-229-99-251 17-129 0-314-10-101-227-487-287-591-78-133-90-150-287-150-40-78-56-69-95-133-60-95 6-72-12-197-20-144-219-284-323-379-311-280-292-94-544-153-2-118-19-193-77-239-306-239-3074-208-3452 21zm3849 1368c378 372 679 929 855 1593-321 305-1074 890-1363 585-432-456-192-1729-99-2488 193 26 404 141 607 310zm1017 2638c5 101 8 203 8 307 0 892-210 1705-554 2317-75-84-136-205-197-296-217-326-614-924-579-1460 30-459 303-620 577-696 271-75 478-133 745-172zM6170 7516c-162 144-337 256-521 329-550 166-902-15-1379-286 22-261 279-898 361-1093 119-283 307-702 600-720 172-10 301 122 370 252 169 314 477 1091 569 1518zm-995-3450c-453 148-269 1141 152 972 153-62 269-299 229-597-32-242-190-438-381-375zM3677 6850c48-72 81-94 134-159 56-67 73-123 122-192 228-317 602-933 588-1421-13-473-263-618-542-730-266-106-609-190-899-216-21 639-12 1037 125 1598 91 376 314 970 472 1120zm-350-3886c71 121 1056 1093 1400 771 435-408 258-1738 151-2494-671 83-1360 1044-1551 1723z" id="Слой_x0020_1"/></svg>