<svg id="map-index" xmlns="http://www.w3.org/2000/svg" viewBox="0 0 1172 293.028">
  <defs>
    <style>
      .cls-1 {
        fill: #f5f5f5;
      }

      .cls-2 {
        fill: #eee;
      }

      .cls-3 {
        fill: #dfdfdf;
      }

      .cls-4 {
        fill: #e2e2e2;
      }
    </style>
  </defs>
  <path id="фон" class="cls-1" d="M0,0H1172V293H0Z" transform="translate(0.002 0.006)"/>
  <g id="сооружения" transform="translate(0 0.004)">
    <path id="Path_394" data-name="Path 394" class="cls-2" d="M12,310.418V303.4c0-.61,6.562,0,6.562,0l10.682-5.188,4.731-16.481L23.6,278.372l1.564-8.088-5.074-.306,3.662-21.211h2.9l.458,10.466,9.614,4.642,3.967-7.631,6.257,11.9,9.766-3.967s1.831,5.952,3.358,6.409,11.14-.916,12.208-1.526a26.077,26.077,0,0,0,6.1-6.561c1.984-3.053-.763-9.309-.763-9.309l-5.342,2.594-3.662-9.156L66.022,247.7,61.9,237.626l-3.358.916-3.967-9.614-10.53-8.394L30.312,225.57l-1.373-3.052-12.361-.3,1.373-11.751,11.634-4.018,81.309,59.041s-17.365,36.726-21.011,44.93Zm141.406-69.473-9.327,13.162,14.65,10.3,5.494-4.464Zm46.927,61.519v3.2l5.779,2.747v-3.377Z" transform="translate(-1.011 -17.417)"/>
    <path id="Path_395" data-name="Path 395" class="cls-2" d="M30.937,212.438c.229.687,3.777,10.53,3.777,10.53l-4.464,2.747Zm32.05-66.318h11.1V164.94h-11.1Zm5.549-20.551,12.874-13.963,7.325,6.982s-11.788,14.535-12.017,14.192S68.536,125.568,68.536,125.568ZM37.776,97.645l1.934-2.36L43.635,98.5l-1.934,2.36Zm2.773-3.386,1.934-2.36,3.924,3.214-1.934,2.362Zm2.432-2.969,1.934-2.36,3.923,3.212L46.906,94.5ZM45.345,88.4l1.934-2.36L51.2,89.256l-1.934,2.36Zm2.284-2.787,1.932-2.36,3.924,3.214-1.934,2.36Zm2.326-2.841,1.934-2.36,3.923,3.212-1.934,2.362Zm-7.059,18.984,1.934-2.36,3.923,3.214-1.934,2.36Zm2.773-3.384L47.6,96.011l3.923,3.214-1.934,2.362ZM48.1,95.4l1.932-2.36,3.925,3.214-1.932,2.36Zm2.364-2.886L52.4,90.155l3.923,3.214-1.932,2.362Zm2.284-2.787,1.932-2.362L58.6,90.581l-1.932,2.362Zm2.326-2.842,1.934-2.36,3.923,3.214L59,90.1ZM144.016,69.6a15.963,15.963,0,0,1,2.518,1.717l.572-10.53h1.831l-2.976-24.15-4.693.8,3.09,20.716Zm-5.608-16.138L135.89,38.928l-1.373-20.144,4.807-15.909h-1.6L132.8,18.441l.8,20.029,2.461,11.1-1.431,12.361,3.926,3.419-.149-11.889ZM211.886,69.83c1.927-.689,4.464.114,4.578,2.632s1.03,4.807,0,4.578-4.807-2.831-5.15-3.763S211.219,70.069,211.886,69.83Zm30.025,79.2,4.73,2.823h6.982v-2.823H241.912Zm14.344,2.823,1.908,2.036,6.867-3.436v-1.423h-8.775v2.456m-76.683,67.971,1.908-1.3,3.434,4.044-1.679,1.564-3.663-4.311Zm211.28.152s12.285,5.952,12.132,6.257-2.747,4.578-2.747,4.578l-3.318.839-6.755,14.345-4.959-2.365,3.337-5.876-1.2-2.671-3.129-1.754Zm-4.883,35.938-9.69,17.016-2.289-1.221,10.224-17.015,1.755,1.221Zm-10.148-5.417-3.891,1.983-3.51,5.8,3.7,1.983,4.693-9-.992-.763Zm-8.241,10.148-2.671,5.112,7.707,4.884,1.373-3.053-2.289-1.373.916-2.4,1.373.5.61-1.221ZM360.1,220.831l-3.662-1.984-2.747,4.273,3.891,2.136,2.518-4.425Zm.611-10.759-2.06,3.281L363,215.719l1.754-2.823Zm10.759,6.281,4.12,2.493-2.06,3.891-4.12-2.671Zm8.546-5.823-5.265-2.595-1.526,3.053,5.189,2.289Zm-10.987-5.418-1.526,2.823-5.036-2.823,1.755-2.747Zm-18.923-8.774-1.145,1.907-5.8-2.976,1.3-2.136,5.646,3.2Zm-11.6,3.128,7.248,3.891-1.6,2.747-5.646-3.319Zm-2.289,9,5.913,3.281-2.957,3.281-4.94-4.425Zm-.954,29.49,2.175,2.576-3.2,2.8-2.117-2.689Zm-7.439,6.409,2.4,2.69-3.2,2.632-2.346-2.662,3.147-2.66ZM525.3,198.551l6.256,3.358L527.89,210l-6.638-3.2Zm86.22,46.926,3.815,1.831,2.06-3.51-1.6-.992,1.6-3.282,4.731,2.289-1.526,3.2-1.373-.61-2.06,3.967,3.281,1.678,5.952-11.139-8.545-5.036Zm62.186-4.73,7.172-6.867,4.731,4.578-7.172,7.172Zm-25.942-22.281c0-.229,5.494-4.272,5.494-4.272l5.723,7.172-7.86,3.281Zm-.916-1.831,5.112-3.662-5.112-6.256-3.434,3.662,3.434,6.256Zm-4.2-7.935,3.053-3.891-7.02-9.309,4.731-4.12-16.939-20.906-7.478,6.714,16.328,20.449-2.976,2.595,2.9,3.434,2.521-1.828,4.88,6.864Zm18.083-30.064,3.434-2.594,3.358,4.425,2.747-1.678,4.5,5.952-5.494,4.845-8.546-10.951Zm148.713-51.351-8.584-1.831-1.946,6.982-12.361-1.6-1.678,6.066-12.056-2.289-1.516,5.738L761.03,138.66,759,148.825l5.346.893,1.145-5.805,11.216,1.57,8.253-3.749,16.584-7.124.458-2.632,7.439-4.693ZM856.6,151.549c-.076.229-2.823,15.947-2.823,15.947l-1.908-.458v-2.06l-6.943-1.45-.916,6.18,12.056,2.137,1.907-11.293-1.984-.763,1.6-8.241Zm-13.81,11.979-.84,5.952-17.168-2.365-.382-4.273s1.908.229,1.984,0,.076-2.441.076-2.441Zm-15.871-11.063h3.129v6.1h-3.129Zm28.995-17.015-1.3,7.63-5.188-.916,1.564-7.325Zm4.5-21.975,6.409,1.373-3.511,18.846h-2.365L864,116.831l-4.12-.916Z" transform="translate(-2.551 -0.24)"/>
    <path id="Path_396" data-name="Path 396" class="cls-2" d="M916.72,112.7l-.611,2.442-8.851-2.442-4.426,22.815-5.341-.916.687-4.273,3.358.382.458-3.129-7.707-1.754-.611,3.434-7.019-1.373-2.9,20.677H881.7V158.1l-3.351.59-4.573-53.238H877.5L916.72,112.7Zm-86.3,64.78,1.221,3.434,5.571-2.365-1.679-3.51ZM726.5,222.443l2.175-4.754,4.846-1.488,4.136,2.449L726.5,222.443m35.588-12.1.922-4.674,5.952-2.518,5.327,3.044-12.2,4.148m41.329-14.05,1.368-4.93,5.608-2.289,4.569,3.294-11.546,3.925M826.529,0l-13.045,66.69,10.835,2.289L823.1,75.691h2.289l-.611,3.052,3.663.916-.916,8.241L870.1,95.682,890.165,0H826.53ZM952.988,19.686l-13.148-3.2L935.109,35.1l13.43,2.137.916-3.2-2.289-1.221,1.984-7.783,2.441.306,1.4-5.647ZM930.239,180.191l3.42-5.193,6.753,2.06v5.129l-10.173-2m53.285,10.456,3.473-5.12,6.295,1.488v5.549l-9.768-1.916m5.146-107.1,10.072,2.823-2.365,8.851-10.453-1.831.84-4.006,6.1,1.335.763-2.594-3.509-.84-.229.916-2.6-.705Zm7.6-33.649,2.48,8.012-6.409-3.548Zm-9.156-8.813c.572,0,5.837,4.006,5.837,4.006L988.6,47.841l-2.06-3.376Zm-3.827-12.415,7.832,2.115.572-2.115s9.271,1.313,13.849,6.807,9.042,9.042,10.987,8.985c1.6-4.407,4.12-18.37,4.12-18.37l-35.31-7.979-2.051,10.557m37.357,17.336-1.25,8.355L1040.9,56.2l1.145-5.608Zm27.13-18.2-3.553,18.2-2.175-.687,1.259-5.723-7.211-1.946,2.175-11.216,9.5,1.373Zm14.989.458-1.6,7.955,2.747.515,1.488-7.783Zm29.986,38.456,4.807.687-2.4,12.132-4.921-1.03Zm-27.926,50.817,4.921,1.145-1.831,8.126-5.036-1.259Zm26.553-.916c5.189.916,2.546,9.207,1.946,11.56-.687,2.69-1.831,4.75-5.454,4.141-2.8-.471-3.131-3.336-2.33-7.744s1.371-8.744,5.837-7.957Zm-44.032,48.594,6.488,2.033-1.221,3.2h-2.023v1.564L1052,173.51l-.74,2.442-5.851-1.557,1.934-9.175m-8.5,61.281,3.2.916-2.38,11.56-3.686-1.03Zm-3.552,17.4,3.719,1.03-1.859,8.355,19.2,3.434-.687,3.434-23.005-4.12Zm-2.628,15.337,15.909,2.518-.687,2.747-3.834-.744.286-1.746-.83-.143-.8,4.435-5.924-1.145.888-4.492-1.889-.343-.428,1.8-3.233-.742.543-2.147Zm17.47,2.937,10.415,1.717-.343,1.373-2.4-.419-.265,1.46,2.364.449-.382,1.754-10.148-2.2.763-4.129Zm29.51,4.5,7.955,1.088-.8,4.978-7.955-1.259Zm43.437,26.345,1.333-6.735,8.012,1.525-1.019,5.21Zm1.557-40.461,7.173,1.6-1.45,8.241-7.4-1.6Z" transform="translate(-61.299 0.003)"/>
    <rect id="Rectangle_46" data-name="Rectangle 46" class="cls-2" width="8.164" height="19.991" rx="3.51" transform="matrix(0.256, -0.967, 0.967, 0.256, 1096.871, 257.888)"/>
    <path id="Path_397" data-name="Path 397" class="cls-2" d="M1154.993,289.689l7.691-9.3,8.127.192v6.675l-4.309,5.189-11.508-2.753m-14.606,3.669c-.582-2.649-1.749-7.055-1.749-7.055l-3.576.112,1.449,6.943ZM1172,99.575l-12.475-2.848s2.06-7.9,2.06-8.241l10.408,2.1Zm0-82.964-8.927-1.488,1.6-10.873,3.777.687-.458,3.548s-1.72-.4-2.089,2.118c-.428,2.918,5.609,3.119,5.915,1.115.409-2.67-1.021-3.033-1.021-3.033l.515-3.062.687.092ZM0,272.417l7.83,6.94.641-21.252c-.3.452-5.18,5.382-8.469,8.689Zm454.608-53.836c1.069.764,25.18,12.514,25.18,12.514l-9.614,19.839-14.65-9.156-5.494,7.019-3.052-1.148-3.51,5.149-4-2.476a8.965,8.965,0,0,0,.949-2.674,7.191,7.191,0,0,0,0-2.82Zm27.011,13.125L471.7,251.85l5.952,1.678,5.952-2.136,14.65,7.172,7.63-14.8ZM529.573,38.128l5.036,5.952-4.235,4.464h-5.265l-3.548-3.662ZM503.46,51.862l-1.776,4.445L512.57,68.259l-2.051-7.114L503.46,51.86m-25.355-28.6-2.364,5.555,2.9,2.824L483,28.79l-4.9-5.527M464.559,7.977l-1.1,4.85,3.281,3.937,2.5-3.5-4.681-5.283" transform="translate(0.002 -0.356)"/>
    <path id="Path_398" data-name="Path 398" class="cls-2" d="M473.176,8.24l-4.355,3.294,5.867,6.62,2.381-2.818-3.891-7.1Zm9.254,141.971-4.6-2.338-1.526,3.662,7.173,7.478,2.289-4.12-3.336-4.682m-252.1,58.61L224.2,206.7l-2.747,6.638,5.772,2.144,3.1-6.663M9.38,0,15.1,4.463,18.758,0,9.382,0ZM583.463,16.4l3.326,1.749,5.494-4.956L589.3,11.189,583.463,16.4m474.258,214.789-1.218,7.783-14.8-2.136,1.831-8.851,14.192,3.2ZM966.58,261.346l-4.536-1.195-2.289,9.557,4.8,1.234,2.023-9.6m-5.6-4.973-1.221,4.731-3.357-.954,1.373-4.54Zm-11.445,8.241,5.188,1.688-1.068,3.406,2.747,1.233,2.289-6.327,1.068.725-2.289,9.651-10.224-3.356,2.289-7.02Z" transform="translate(-0.79 0.003)"/>
  </g>
  <g id="река" transform="translate(25.441 0.004)">
    <path id="Path_399" data-name="Path 399" class="cls-3" d="M144.747,0c-.357.462-.725.978-1.157,1.63-.16.24-.11,1.552-.268,1.8-.2.32-1.289.656-1.492.993a44.355,44.355,0,0,0-5,12.055c-1.946,7.554.572,29.758,1.946,39.143s-1.08,16.173-1.717,19.114-18.427,23.119-19.915,24.836-18.77,17.4-20.373,19.686-8.813,26.1-9.957,30.1-2.976,29.3-3.319,31.589S72.5,203.382,72.047,205.213s3.547,7.9,6.523,12.018,2.4,11.445,2.861,14.116,3.548,11.865,2.518,14.726c-.938,2.6-47.768,40.2-56.166,46.924h4.4c9.891-7.823,52.735-41.827,54.051-44.864,1.488-3.434-.458-8.927-1.6-15.108s-1.831-13.849-2.06-16.252-5.952-5.952-7.1-9.843,9.385-21.632,10.53-25.408,2.747-25.409,3.434-29.758,8.241-27.812,9.5-30.788,14.535-14.307,20.716-20.487S129.387,88.7,137.4,78.743s4.349-23.234,3.662-32.848-2.4-22.433-.572-31.36a22.908,22.908,0,0,1,3.241-8.071c.25-.394.112-1.755.363-2.115.137-.192,1.19-.183,1.326-.366A20.612,20.612,0,0,1,149.073,0ZM820.338,14.306c-1.488-.343-1.259,2.518-1.6,3.2a5.915,5.915,0,0,1-3.974,2.747c-2.029.229-2.779,1.488-4.381,3.891s-2.976,3.09-3.777,3.09-1.6,1.946-3.548,2.861-1.259-.916-1.145-6.295,2.219-8.535,1.145-10.186c-2.048-3.146-7.1,2.632-8.355,2.861s-2.175-1.717-3.319-1.946-1.488,1.488-2.976,1.488-3.663-4.006-4.921-4.349-1.6,2.518-3.2,3.09-2.632-3.662-4.464-5.494-1.946-3.319.343-5.265S788.52,1.144,790.58,1.144s2.976,4.921,4.693,4.693,1.717-1.717,4.693-2.976S805.23,2.747,805,1.6C804.9,1.112,803.8.517,802.564,0h-4.913a7.461,7.461,0,0,1-3.294,1.834c-.98.064-1.809-.95-2.342-1.834h-3.75a42.2,42.2,0,0,1-5.008.918c-6.982.916-9.958,3.2-10.416,5.608s2.518,4.12,3.434,5.837.687,6.982,3.2,7.211,3.777-3.434,4.921-4.12,2.861,1.373,3.319,1.831,2.747,0,4.006,0,1.6,1.717,2.4,2.518,1.374-.572,4.235,1.488,1.717,8.584,1.946,10.072,2.175.916,2.976.8,3.777-4.921,5.379-2.632-1.106,4.578-1.831,6.982-.439,5.127-.114,13.277c.114,2.861-3.548,16.252-4.235,17.626s-9.5-3.548-10.987-3.548-1.717,1.6-6.982,1.145-5.15-1.6-5.265-2.976-1.6-.343-4.349,1.145-2.976,2.289-3.09,7.02-.687,7.63.458,7.4,1.03-3.891,2.174-6.066a2.286,2.286,0,0,1,4.006-.343c.8,1.03,2.4,5.952,3.434,5.837s-.115-2.861,0-4.807,6.982-5.15,8.012-5.952,3.777-.343,4.693.229,7.325,6.295,8.172,9.614.755,4.006,2.587,5.265,3.09.229,1.831-.916-4.006-4.807-4.349-7.439.687-2.4,1.259-3.434.572-1.946,1.145-6.295a52.244,52.244,0,0,1,2.738-10.644c1.154-3.2.124-9.843.009-13.277s.916-3.777,2.06-4.921,1.145-2.976,1.145-5.265,2.4-5.036,4.807-6.066,3.663,1.373,4.349.916S821.15,14.494,820.338,14.306Z" transform="translate(-27.783 0.003)"/>
  </g>
  <g id="вспомогательные_дороги" data-name="вспомогательные дороги" transform="translate(0 0)">
    <path id="Path_400" data-name="Path 400" class="cls-4" d="M60.434,216.784l9.358,6.794a64.2,64.2,0,0,0,1.689,7.751c.8,2.3,4.23,9.6,4.377,9.907l.183.4h4.672a.687.687,0,0,0,0-1.373h-3.8c-.737-1.58-3.461-7.45-4.139-9.383A68.789,68.789,0,0,1,71.1,223.08l-.044-.279L60.64,215.235l-8.433,3.2L40.075,222.9a.688.688,0,0,0,.473,1.291l9.156-3.37c3.249,8.328,7.969,21.176,7.89,23.068-.062,1.52-5.12,3.454-8.518,4.282a.687.687,0,1,0,.326,1.335c1.575-.385,9.435-2.454,9.565-5.56.113-2.719-6.774-20.521-7.973-23.6l1.694-.623ZM146.9,78.646c.156.018.366.03.612.042,1.4.069,2.912.238,3.181,1.378.375,1.605.115,6.4-.017,8.114a.687.687,0,0,0,.632.737c.018,0,.037,0,.055,0a.687.687,0,0,0,.682-.635c.021-.26.488-6.393-.015-8.532-.527-2.243-3.177-2.375-4.45-2.437a3.441,3.441,0,0,0-.425-.009A9.09,9.09,0,0,1,145.7,74a.687.687,0,1,0-1.322.371c.527,1.871,1.392,4.131,2.522,4.272Zm-1.135,5.095-26.452,35.128a.687.687,0,0,0,1.1.824l26.452-35.127a.687.687,0,0,0-1.1-.826ZM191.44,259.817a.687.687,0,0,0,.968-.077l5.9-6.924c3.8,1.657,9.164,4.146,12.985,5.961a.687.687,0,1,0,.589-1.241c-4.638-2.2-9.878-4.638-13.559-6.2l0,0a19.932,19.932,0,0,0-4.62-1.642c-.745.106-2.321,1.582-7.33,6.864-.906.958-1.844,1.945-2.08,2.152a.687.687,0,0,0,.35,1.279c.372,0,.372,0,2.727-2.484,1.84-1.941,5.616-5.924,6.528-6.433a25.5,25.5,0,0,1,3.093,1.183l-5.622,6.6a.687.687,0,0,0,.077.968ZM361.246,95.4c-2.3-.853-5.781-8.133-6.927-10.866a.687.687,0,1,0-1.266.531c.445,1.062,4.441,10.409,7.717,11.622,3.113,1.154,31.52,1.34,34.748,1.358h0a.687.687,0,1,0,0-1.373c-8.708-.046-31.838-.366-34.281-1.271Z" transform="translate(-3.342 -6.195)"/>
    <path id="Path_401" data-name="Path 401" class="cls-4" d="M218.3,269.525a14.209,14.209,0,0,0,4.461,1.09,2.1,2.1,0,0,0,1.509-.461c1.1-1.1,8.595-18.7,9.16-20.2.8-2.111.121-9.03.041-9.812a.687.687,0,0,0-1.367.14c.208,2.035.62,7.655.041,9.186-.842,2.23-7.973,18.688-8.84,19.7-.392.286-2.538-.156-4.5-.929a.687.687,0,0,0-.5,1.279Zm451.382-41.342a.687.687,0,1,0-1.252.565,80.663,80.663,0,0,1,3.074,7.685c.584,2.358.9,5.558.04,7.469-.9,2.008-3.98,3.4-3.967,3.4-3.319,1.011-6.693,1.547-7.192,1.175-.549-.613-2.648-5.895-4.963-12.031l2.344-1.406,4.722-2.137a.687.687,0,0,0-.566-1.251l-4.794,2.173-2.2,1.318c-1.554-4.148-3.162-8.554-4.432-12.1a.688.688,0,0,0-1.295.463c1.093,3.053,2.8,7.775,4.519,12.365l-4.226,2.536a.687.687,0,0,0,.707,1.178l4.01-2.41c2.332,6.171,4.587,11.787,5.272,12.344a2.921,2.921,0,0,0,1.783.418,27.712,27.712,0,0,0,6.785-1.346c.147-.066,3.617-1.626,4.743-4.126,1.262-2.807.348-7.111.039-8.362a79.331,79.331,0,0,0-3.156-7.92Zm-89.111-79.769-.007,0s-.006.009-.011.014a19.327,19.327,0,0,0-1.769,1.884,50.453,50.453,0,0,1-6.841-3.931c-.914-1.1-55.587-27.7-56.045-27.853a.68.68,0,0,0-.861.419.694.694,0,0,0,.4.879c.4.154,53.289,25.885,55.491,27.484a8.509,8.509,0,0,0,1.463,1.056c-2.527,4.983-6.4,12.489-6.947,13.217a.687.687,0,0,0,.854,1.069c.178-.119.6-.406,7.276-13.582,1.45.833,3.153,1.731,4.338,2.342-6.411,8.595-11.628,24.756-11.885,25.562a.687.687,0,0,0,1.308.418c.064-.2,5.509-17.067,11.875-25.414a.684.684,0,0,0,.6-.373.673.673,0,0,0,.051-.441c.348-.421.7-.819,1.053-1.181,3.656,4.72,9.077,11.958,9.358,12.952-.055,1.691-8.872,17.669-14.417,27.342a.687.687,0,0,0,1.19.683c5.64-9.838,15.028-26.6,14.565-28.3-.439-1.611-7.458-10.744-9.685-13.615.158-.134.316-.27.474-.387,7.824-5.82,13.313-10.742,13.368-10.792a.687.687,0,1,0-.919-1.02c-.055.049-5.5,4.932-13.267,10.711a12.847,12.847,0,0,0-1.012.852Zm-59.036-97.2a.687.687,0,0,0-.971-.044L467.517,99.6a.687.687,0,1,0,.925,1.014L521.5,52.182a.687.687,0,0,0,.043-.971Zm-66.356-23.66c1.707,2.44,19.173,20.727,22.387,24.087L462.336,65.4c-1.8-1.275-8.6-3.263-10.488-3.418a2.035,2.035,0,0,0-.884.073,28.343,28.343,0,0,1-4.306-4.392.687.687,0,0,0-1.053.882c1.853,2.216,4.287,4.871,5.353,4.926a.879.879,0,0,0,.527-.132c1.227-.113,8.183,2.045,9.819,2.994L448.67,77.751a.687.687,0,0,0,.922,1.018L502.6,30.875a.687.687,0,1,0-.922-1.019L478.59,50.717c-.865-.9-2.884-3.018-5.389-5.653l6.655-5.925a.687.687,0,1,0-.916-1.025l-6.684,5.953c-6.29-6.629-14.835-15.71-15.95-17.3-1.829-2.617-10.96-13.21-11.347-13.659a.687.687,0,1,0-1.04.9c.1.11,9.473,10.987,11.264,13.548ZM696.1,40.446a.687.687,0,0,0,.027-1.373c-.665-.027-16.322-.676-17.694-.676a.687.687,0,1,0,0,1.373c1.343,0,17.475.668,17.638.676Zm39.035,64.608a.714.714,0,0,0-.516.852.657.657,0,0,0,.809.488c1.08-.113,14.787,2.188,23.174,3.641a.709.709,0,0,0,.119.009.687.687,0,0,0,.116-1.364c-8.455-1.461-22.781-3.871-23.7-3.626Zm100.656,57.73L844.2,160.8l25,4.99,6.1-31.072-11.464-2.936,2.855-14.98,7.7,1.515,2.057-7.634a.687.687,0,0,0-1.328-.357l-1.722,6.4-7.795-1.535-3.329,17.481-1.669,7.4-16.208-4.935a.687.687,0,1,0-.4,1.314l17.626,5.366,1.956-8.684,10.127,2.594-1.99,10.151-8.165-1.793a.687.687,0,0,0-.295,1.341l8.195,1.8-3.323,16.948-23.942-4.78-8.7,2.053a.687.687,0,0,0,.315,1.337ZM1012.858,240.4a.69.69,0,0,0,.794-.558c.255-1.474,1-6.382-.167-7.673-1.11-1.234-9.171-4.041-11.833-3.873a1.567,1.567,0,0,0-1.213.545c-.815,1.172-2.4,10.564-3.021,14.412l-8.827-1.829a.687.687,0,1,0-.279,1.346l8.927,1.849c-.146,1.7-.417,5.659.116,6.834.33.727,1.485,1.581,11.061,2.523l.482.049a1.462,1.462,0,0,0,.165.011c.566,0,1.633-.525,2.756-6.986a.687.687,0,0,0-1.352-.234c-.417,2.4-1.142,5.2-1.609,5.823l-.307-.029c-8.479-.835-9.782-1.578-9.944-1.726-.341-.751-.174-4.379.055-6.726,1.024-6.4,2.355-13.435,2.87-14.47,1.373-.458,10.075,2.445,10.932,3.4.482.537.3,3.8-.165,6.519a.687.687,0,0,0,.558.795Z" transform="translate(-18.381 -1.079)"/>
    <path id="Path_402" data-name="Path 402" class="cls-4" d="M1198.973,4.291V2.9l-10.345-1.879L1188.82,0h-1.4c-.048.255-.1.522-.146.772L1183.023,0h-7.686l11.679,2.121c-.734,3.867-1.351,7.158-1.865,9.948l-26.535-5.162L1159.848,0h-1.394l-5.867,33.02-1.364-.241L1157.1,0h-1.4l-.269,1.5L1148.394,0h-3.979c-.8,7.531-1.962,15.776-2.591,17.109a46.578,46.578,0,0,1-7.667-1.16l1.987-10.365L1139.2.344a.668.668,0,0,0,.082-.345h-1.471l-2.664,4.576c-2.743-.52-15.862-2.994-25.393-4.576h-9.223a.68.68,0,0,0,.245.073c.569.053,1.312.144,2.179.263l-1.337,8.179L1085.6,5.44l-.078.744c-.079.754-.766,7.383-.766,8.158,0,.76,0,1.075,15.108,3.71l.863.15h.005c6.662,1.154,13.931,2.321,14.485,2.321.6,0,1.6,0,1.889-8.447l.018-.586-14.158-2.719L1104.31.529c4.549.671,11.546,1.9,17.754,3.022l-4.23,23.33-17.772-3.141c-.931-.2-10.649-2.241-21.407-4.439,2.991-13.509,3.821-17.848,4.034-19.3h-1.366c-.415,2.522-2.5,12.165-4.016,19.028-5.877-1.2-11.961-2.419-17.021-3.4L1063.726,0h-1.405l-3.382,15.375c-5.049-.964-8.872-1.639-10.083-1.716a.71.71,0,0,0-.729.641.687.687,0,0,0,.641.73c1.209.078,5.245.8,10.548,1.816h0c4.542.874,10.013,1.969,15.447,3.071l-4.233,19.82-29.987-5.224a.687.687,0,0,0-.235,1.353l6.9,1.2c-.513,2.174-2.069,8.717-2.566,10.305-.209.674-3.438.451-6.638-.456a.687.687,0,1,0-.375,1.321,21.7,21.7,0,0,0,5.347.906c1.447,0,2.657-.336,2.979-1.362.524-1.676,2.115-8.382,2.611-10.479l21.677,3.776-5.2,24.361L1035.4,59.084a.687.687,0,1,0-.287,1.342l29.648,6.357-3.223,15.092L1031.867,75.8h0l0,0-7-1.36,5.059-20.516,6.241,1.452a.7.7,0,0,0,.156.018.687.687,0,0,0,.156-1.355l-6.259-1.456c.717-3.844,1.46-7.92,2.106-11.67l6.645,1.288a.687.687,0,0,0,.261-1.348l-6.675-1.294c1.12-6.611,1.872-11.912,1.524-12.535-.178-.324-.73-1.3-16.719-3.85L1020.1,8.8a.687.687,0,1,0-1.348-.256l-2.881,15.084v0L1011.161,48.3h-1.8l-23.415-5.02,1.417-7.925c8.886,1.963,12.034,2.368,13.211,2.368.54,0,.668-.085.751-.142l.276-.208.049-.29c.112-.668,1.9-11.354,2.005-11.964l1.726-7.373.032.007.125-.689c2.1-11.425,1.525-11.54.794-11.685a.687.687,0,0,0-.7,1.069,72.731,72.731,0,0,1-1.323,9.678c-3.9-.8-8.619-1.784-13.028-2.729l1.779-9.96a.687.687,0,1,0-1.351-.242l-1.773,9.913c-6.217-1.341-11.555-2.555-12.648-2.964a66.606,66.606,0,0,1,.153-9.88A.683.683,0,0,0,977.409,0h-1.286a.654.654,0,0,0-.048.176c-.652,10.031-.025,10.711.181,10.933.149.163.548.584,13.441,3.365l-1.438,8.05v0l-.291,1.627-36.585-7.886a.687.687,0,0,0-.29,1.342l36.632,7.9-1.586,8.872v0L980.522,65.82l-15.84-3.076-21.517-4.183-18.578-3.9c.873-3.882,5.222-23.343,6.18-29.838a16.54,16.54,0,0,0-4.23-14.311c-.952-.992-10.414-3.244-20.629-5.439-.006,0-.011,0-.018-.006h-.015c-2.774-.6-5.6-1.187-8.332-1.747L898.267,0h-1.406L896.2,3.043C889.476,1.672,883.55.522,880.808,0H878.4a6.773,6.773,0,0,0-1.049,1.982,8.787,8.787,0,0,1-1.293,2.458c-1.029.373-9.057-1.174-16.225-2.881a.687.687,0,0,0-.319,1.337c7.239,1.721,16.118,3.587,17.31,2.674a7.881,7.881,0,0,0,1.793-3.058A12.537,12.537,0,0,1,879.27,1.1c1.613.266,8.579,1.615,16.637,3.269L888.43,38.663,886.678,46.7l-36.29-7.453a.687.687,0,1,0-.276,1.346l36.275,7.45-6.023,27.624-34.695-7.015a.7.7,0,0,0-.809.537A.687.687,0,0,0,845.4,70l34.675,7.012-6.6,30.267a.687.687,0,1,0,1.342.293l6.748-30.957v0l6.168-28.289,35.88,7.539h0l19.279,4.052,20.876,4.056-1.588,9c-7.235-.691-7.859.061-8.062.314-.58.728-1.678,5.18-2.261,7.673l-.018,0-.137.682,0,.015v0L949.4,92.9v0l-.549,2.5-12.231-3.031a.687.687,0,1,0-.33,1.332l12.266,3.042-1.066,4.867,0,0v0c-.916,4.175-1.829,8.35-1.9,8.73-.165.824-.269,1.426,24.749,6.532l-8.127,40.681L888.194,141.4c1.4-6.693,2.417-11.457,2.609-12.008a.687.687,0,0,0-1.218-.629c-.464.809-7.2,33.982-10.069,48.208a.687.687,0,0,0,.538.808.712.712,0,0,0,.137.015.687.687,0,0,0,.672-.551c2.152-10.662,4.963-24.449,7.05-34.5l86.691,18.931-.007.027.694.122c.14.024,14.04,2.441,15.382,2.74.266.059.391.252.54.727-1.3,6.241-2.2,10.81-2.139,11.214a11.719,11.719,0,0,0,1.96,3.642.687.687,0,1,0,1.1-.818,11.6,11.6,0,0,1-1.7-2.952c.013-.485.719-4.056,1.789-9.211.037.026.061.06.1.082.949.5,16.195,4.08,19.241,4.791a.7.7,0,0,0,.158.018.687.687,0,0,0,.156-1.355c-6.882-1.608-18.1-4.3-18.906-4.668-.142-.075-.254-.478-.344-.8v-.005c1.965-9.4,4.878-22.906,7.125-33.206a.687.687,0,1,0-1.341-.293c-1.685,7.719-4.679,21.508-6.824,31.756a1.87,1.87,0,0,0-.62-.263c-1.212-.269-11.873-2.131-14.751-2.632l6.416-31.931a.687.687,0,1,0-1.346-.272l-6.418,31.937-11.32-2.472,8.263-41.371v0l.332-1.659c18.429,4.144,22.193,4.725,23.1,4.725a.585.585,0,0,0,.311-.055c.359-.179.9-.451,3-12.617,1.86.38,7.174,1.465,12.489,2.545,3.3.668,6.6,1.334,9.069,1.827,4.792.955,4.794.954,4.938.254a.69.69,0,0,0-.652-.824c-.984-.139-15.535-3.095-25.6-5.155l.282-1.426,2.646-13.379,5.027,2.674c-.31,1.245-.6,2.4-.84,3.326a36.84,36.84,0,0,0-.977,4.153.671.671,0,0,0,.654.668h.033a.7.7,0,0,0,.687-.636c.028-.277.469-2.011.936-3.846,3.168-12.434,3.181-13.8,2.421-14.306a50.291,50.291,0,0,0-5.9-2.351l1.648-8.339,26.17,5.085,30.327,6.214h0l21.778,4.464-10.912,48.846c-1.493-.4-5.043-1.346-6.693-1.816-2.241-.641-15.364-1.4-16.058-1.4h-.009a.687.687,0,0,0,.013,1.373c.565,0,13.649.763,15.678,1.342,1.679.481,5.307,1.449,6.77,1.839l-1.593,7.127-45.419-8.3a.687.687,0,0,0-.247,1.351l14.94,2.729-4.507,24.719,11.963,2.788-3.162,15.861-19.477-4.276a.687.687,0,1,0-.3,1.342l19.512,4.282-3.886,20.574-34.563-6.549a.687.687,0,1,0-.256,1.35l6.144,1.165-4.986,23.58.614.176c2.368.687,13.234,3.763,17.287,3.763a3.351,3.351,0,0,0,1.166-.152c2.549-1.018,3.38-8.282,3.521-9.727a.687.687,0,1,0-1.366-.134c-.316,3.25-1.352,8.061-2.663,8.586-1.389.552-10.529-1.648-16.948-3.479l4.727-22.359,37.611,7.128-6.955,32.724v0L1040.2,258.5c-2.609-.559-6.087-1.309-6.4-1.4a.687.687,0,0,0-.428,1.3c.3.1,4.377.978,6.541,1.44l-.776,3.653a.681.681,0,0,0,0,.291l-10.169-1.626c-.54-.513-2.463-.738-5.732-.657a37.725,37.725,0,0,1,1.038-4.322,1.668,1.668,0,0,0-.128-1.462,3.712,3.712,0,0,0-2.228-1.361l2.383-11.808a.687.687,0,0,0-1.346-.271l-2.665,13.178.714.107a3.436,3.436,0,0,1,1.959.856.3.3,0,0,1,.013.293,47.067,47.067,0,0,0-1.253,5.376l-.149.838.85-.032a29.028,29.028,0,0,1,5.411.19c-.055,1.172-.015,4.058.009,5.516l-35.464-5.648a.687.687,0,0,0-.216,1.355l21.05,3.353-4.173,23.38-21.534-4.774a.687.687,0,1,0-.3,1.341L1011.511,293h6.347l-7.465-1.656,4.189-23.462,27.487,4.377-2.481,14.558v.01L1038.535,293h1.394l.895-5.256,9.522,1.723-.637,3.532h1.4l4.525-25.137,11.954,1.533-1.685,14.125-9.825-1.273a.687.687,0,1,0-.178,1.362l9.867,1.279-.608,8.112h1.377l.6-7.935,12.846,1.665L1079.5,293h1.378l.513-6.789,2.5-14.725,2.1.269,15.688,2.012a.7.7,0,0,0,.769-.6.686.686,0,0,0-.593-.767l-15-1.923,6.968-52.733,19.619,3.717a14.317,14.317,0,0,0-1.657,3.278c-.458,1.944-7.931,45.349-8.25,47.2a.687.687,0,0,0,.561.793.7.7,0,0,0,.117.009.687.687,0,0,0,.677-.57c.077-.451,7.783-45.211,8.231-47.113a16.486,16.486,0,0,1,1.767-3.318l51.507,9.761L1155.7,283.94,1154.5,293h1.384l1.178-8.831.886-4.351c2.551.331,11.912,1.513,15.78,1.513.156,0,.3,0,.436-.005,3.087-.089,15.825-.515,21.4-.7l-.015,1.15a.687.687,0,0,0,.677.7h.009a.686.686,0,0,0,.687-.678c0-.073.007-.537.016-1.215l1.254-.042a.687.687,0,1,0-.023-1.373h-.023l-1.194.041c.024-2.485.042-6.017-.031-7.191-.046-.692-.1-1.641-11.372-4.569-4.267-1.111-8.559-2.084-10.148-2.438l1.172-6.391,22.408,5.329v-1.41l-22.16-5.271,4.216-22.988,17.944,3.4v-1.4l-17.708-3.357,5.4-32.571c1.175.078,2.17.116,2.971.116a4.736,4.736,0,0,0,2.5-.36c.87-.861,1.843-4.885,2.28-6.861,1.515.33,3.042.668,4.562,1.007v-1.41c-24.4-5.5-25.042-4.4-25.317-3.926-.668,1.163-3.1,15.8-3.849,20.345l-25.311-7.386,8.513-40.336,28.256,5.162c-.277,3.21-.943,11.356-.664,12.608.1.467.377,1.666,18.372,5.061v-1.4c-8.116-1.558-15.889-3.33-17.052-4.1-.128-1.286.326-7.53.7-11.915l2.866.525a.673.673,0,0,0,.476.36.691.691,0,0,0,.123.011.682.682,0,0,0,.455-.179l12.432,2.271v-1.4l-12.041-2.2,1.46-8.083c3.521.916,7.89,2.045,10.58,2.71v-1.415c-3.511-.874-9.825-2.512-14.72-3.8.451-2.99.952-6.321,1.438-9.587l8.057,1.6h0l5.222,1.035v-1.4l-4.285-.849,1.3-6.624a26.547,26.547,0,0,0,2.987.785v-1.4a28.188,28.188,0,0,1-3.275-.934l-.754-.272-1.6,8.176-3.095-.613c.29-2.154,1.021-7.611,1.021-8.152,0-.4-.009-1.055-3.983-2.188.275-1.91.491-3.472.625-4.521l11.064,2.655v-1.412l-10.912-2.621v-.021c0-.945,1.99-14.618,3.394-24.038l7.517,1.731v-1.41l-8.657-1.992-.006.037-27.569-4.91c-2.75-.513-16.575-3.337-19.744-3.985l4.016-22.609c22.607,5.521,28.714,6.56,30.49,6.56.611,0,.709-.122.793-.227.342-.428,1.712-7.517,3.386-16.768l17.289,3.62v-1.4l-17.045-3.571c1.137-6.318,2.394-13.5,3.555-20.217l13.491,2.386v-1.4l-45.035-7.955,4.441-25,26.527,5.161c-.33,1.8-.613,3.371-.857,4.752-2.674-.483-12.372-2.234-13.02-2.364a.687.687,0,1,0-.269,1.346c.668.134,10.356,1.884,13.053,2.371-1.394,7.988-1.255,8.35-1.2,8.5.279.7,1.181.746,2.677.824,1.325.071,3.543.187,3.809.972.725,2.133,6.468,4.575,9.87,5.305v-1.4c-3.247-.753-8.115-3.012-8.57-4.349-.565-1.666-3.045-1.8-5.036-1.9-.474-.026-1.082-.057-1.424-.115.093-1.042.618-4.192,1.341-8.268l0-.005v-.007c.331-1.868.7-3.928,1.1-6.071l0-.007V13c.641-3.493,1.334-7.2,1.984-10.633Zm-98.7,12.446c-6.324-1.106-12.583-2.283-14.123-2.793.085-1.169.4-4.383.661-6.873l14.586,2.8Zm15.439-4.118a31.932,31.932,0,0,1-.753,6.507c-1.432-.167-7.261-1.1-13.334-2.154l1.12-6.842ZM991.042,14.761c3.452.738,7.717,1.63,12.993,2.708l-1.573,6.721-12.727-2.115Zm-1.547,8.665,12.7,2.113-1.818,10.841c-1.584-.073-7.362-1.19-12.769-2.381ZM897.254,4.648c2.527.52,5.137,1.067,7.7,1.615-1.678,8.475-3.727,17.692-4.3,18.54-.549.406-3.937-.073-7.566-1.053Zm1.126,44.506-10.356-2.176,1.606-7.364c3.842.812,8.041,1.88,8.8,2.358a48.253,48.253,0,0,1-.05,7.181Zm24.864,5.225-23.5-4.94c.172-2.943.342-7.363-.121-8.19-.151-.269-.606-1.074-9.7-2.978L892.8,25.094a29.835,29.835,0,0,0,6.776,1.194,2.793,2.793,0,0,0,2.128-.6c.972-1.2,3.614-14.172,4.6-19.138,9.635,2.078,18.328,4.129,19.25,4.912.138.144.284.3.432.474-1.459,1.546-5.8,6.2-6.364,7.469-.659,1.485-3.681,16.176-3.708,16.321a.687.687,0,0,0,.54.808.661.661,0,0,0,.134.014.687.687,0,0,0,.673-.553c.343-1.727,3.086-14.842,3.617-16.031.377-.852,3.653-4.481,5.968-6.939a15.45,15.45,0,0,1,2.567,11.6c-.951,6.459-5.3,25.925-6.162,29.758Zm105.632-2.111-5.421-1.261,2.13-11.4,5.375,1.042c-.681,3.955-1.439,8.158-2.084,11.621ZM1017.1,24.52c7.006,1.124,14.458,2.568,15.747,3.211.037,1.145-.705,5.979-1.654,11.562l-6.7-1.3-2.373,12.7-9.589-2.23Zm-51.98,39.708,15.15,2.944-4.036,20.208-6.318-1.665c.921-3.586,1.724-7.749.794-8.678-.856-.856-5.435-2.953-7.189-3.738Zm-9.96,9.968c.749-.275,4.349-.124,7.412.183a55.368,55.368,0,0,1,7.128,3.58c.313.621-.3,4.2-1.112,7.4l-15.4-4.062a57.383,57.383,0,0,1,1.97-7.105ZM952.9,82.645,968.9,86.869h0l7.059,1.862-1.806,9.037-23.27-5.252Zm17.711,32.892c-8.424-1.723-21.206-4.489-23.571-5.382.254-1.178.938-4.308,1.651-7.563l23.437,5.351ZM948.98,101.251,950.6,93.86l23.287,5.256-1.494,7.481Zm48.477,4-.016,0-.119.7c-.884,5.173-2,10.855-2.476,12.237-2.275-.269-14.421-2.909-22.425-4.706l2.808-14.059,22.384,5.051Zm.421-2.127L975.5,98.071l3.272-16.384,22.29,5.364Zm10.853-19.331c.064,1.007-.778,4.737-1.633,8.225l-5.088-2.7,1.494-7.55c1.889.667,4.4,1.6,5.227,2.031Zm-7.406,1.91-22.286-5.363,2.578-12.9,22.46,4.365Zm3.017-15.25-22.469-4.368,3.833-21.453,22.779,4.886Zm1.348.262,4.163-21.041h1.794l16.937,3.939-5.073,20.565Zm136.775-52.351c.428-.174,1.419-.575,3.243-17.532l9.486,2.026-5.322,29.684-17.99-3.179,2.031-12.059C1136.58,17.861,1141.421,18.787,1142.465,18.364ZM1123.417,3.8c5.207.948,9.641,1.782,11.271,2.09l-1.874,9.774-.015,0-2.267,13.464-11.341-2Zm-22.967,21.407,30.527,5.393h0l18.648,3.294L1141.812,77.5c-2.595.016-7.847.039-8.409,0-.91-.064-1.209,1.076-1.674,3.155a11.228,11.228,0,0,1-.972,3.133,7.76,7.76,0,0,1-2.729-.059c-1.456-.174-2.238-.251-2.716.108-.224.168-.81.63-1.989,8.962l-9.785-1.154L1102.4,89.708c2.2-9.8,2.063-10.209,1.987-10.429a.687.687,0,0,0-1.328.331c-.021.687-1.023,5.443-2.015,9.861l-15.685-2.731,6.417-26.176,25.747,5.369c-1.252,4.4-2.644,9.069-2.912,9.57a.687.687,0,1,0,1.193.682c.417-.723,2.368-7.512,3.067-9.971l16.476,3.434a.694.694,0,0,0,.141.015.687.687,0,0,0,.139-1.359l-43.524-9.077.574-2.341Zm41.118,53.674-2.82,15.74-14.058-1.655a62.76,62.76,0,0,1,1.49-8,11.9,11.9,0,0,1,1.687.133c1.676.2,2.829.3,3.562-.106.787-.438,1.144-1.815,1.642-4.031a17.8,17.8,0,0,1,.546-2.074c1.346.031,5.982.007,7.952,0Zm-65.451-58.69c10.386,2.115,20.323,4.194,22.985,4.752L1094.452,43.9l-22.561-3.93ZM1062.88,82.154l3.365-15.751,5.358-25.084,22.521,3.923-2.616,10.671c-3.163-.728-10.647-2.4-11.662-2.237a.67.67,0,0,0-.549.762.7.7,0,0,0,.762.593,109.248,109.248,0,0,1,11.121,2.216l-2.018,8.229-11.215-1.9a.687.687,0,0,0-.231,1.355l11.118,1.886-2.172,8.86-10.944-2.179a.687.687,0,0,0-.268,1.346l10.885,2.168-2.323,9.479Zm22.171,5.924,28.293,4.93,10.473,1.236h.006l14.681,1.731-.016.092h.209l.531,4.644-1.3,9.257,0,0v0l-3.452,24.548-18.242-3.192a.687.687,0,1,0-.238,1.352l11.627,2.034-.731,10.85a3.288,3.288,0,0,0-.071,1.7.641.641,0,0,0,.026.081c.009.016.009.037.018.05a.494.494,0,0,0,.087.128.259.259,0,0,0,.046.044l.03.025a.666.666,0,0,0,.195.124,20.547,20.547,0,0,0,4.355,1.265l-2.338,6.812-1.628-.3h-.006l-16.767-3.064c.659-4.1,2.3-14.353,2.3-14.919a.757.757,0,0,0-.445-.681c-1.042-.559-8.79-1.994-12.073-2.587-11.009-1.987-11.346-1.761-11.592-1.6a.687.687,0,0,0,.536,1.24c1.749-.051,19.327,3.189,22.151,4.035-.253,1.866-1.389,9.037-2.23,14.261l-37.239-6.8Zm45.135,53.55a18.39,18.39,0,0,1,3.285.023l-.284,2.01,21.148,2.293-.963,5.581c-9.068-1.474-22.946-3.923-25.184-4.816l.07-1.057a15.169,15.169,0,0,1,1.927-4.035Zm-1.657.043.451-6.721,5.3.928-.618,4.407a12.036,12.036,0,0,0-4.136.128,3.879,3.879,0,0,0-1,1.258Zm6.217.778.891-6.334,19.8,3.464-.866,5.019Zm1.082-7.695,2.09-14.872,20.26,3.814-2.069,11.985v0l-.439,2.544Zm21.078,4.389v-.005l.43-2.49,13.553,2.905-1.491,7.554-13.469-2.315Zm.664-3.851,1.22-7.069c2.085.47,8.915,2.293,13.63,3.576l-1.264,6.4Zm1.452-8.415.5-2.893,13.789,3.313-.623,3.152c-3.953-1.076-11.213-3.034-13.666-3.571Zm.7-12.116-1.309,7.581-20.3-3.82,1.081-7.677,20.688,3.006-.157.91Zm-87.8,31.959,54.429,9.945a25.824,25.824,0,0,0-3.239,7.248c-.552,2.729-1.428,8.455-1.752,10.589-5.292-2.035-14.78-3.6-18.39-4.148l-2.044-.493v0l-.586-.139-.046-.009,0,0c-16.7-3.965-17.589-3.226-17.882-2.983-.966.806-1.992,6.4-2.521,9.694l-1.974,7.746c-.342,1.232-2.01,7.441-1.527,9.211.377,1.385,6.483,2.732,18.12,4-2.832,15.765-2.749,16.02-2.7,16.175.077.229.329,1.427.552,2.516l-37.28-7.064Zm44.327,45.039-15.7-3.055c.43-2.524.848-4.981,1.231-7.247l12.553,1.89a.664.664,0,0,0,.1.007.687.687,0,0,0,.1-1.366l-12.528-1.886c.6-3.534,1.093-6.492,1.394-8.289,7.03,1.1,14.47,2.74,18.074,4.134a.666.666,0,0,0,.335.163.657.657,0,0,0,.09.007c1.037.433,1.679.839,1.782,1.19.108.984-1.445,12.407-2.435,19.3l-1.852,7.261a25.339,25.339,0,0,1-5.505-.35,24.46,24.46,0,0,1-2.344-3.484c-.167-.341-.6-1.24-12.423-3.055.4-2.273.8-4.613,1.194-6.922l15.666,3.049a.705.705,0,0,0,.133.013.687.687,0,0,0,.132-1.361Zm-36.829-7.94,1.648-6.464,16.531,3.031c-.455,2.49-.876,4.791-1.264,6.918Zm16.67,4.836c-.5,2.752-.943,5.2-1.337,7.373-7.765-.856-16.036-2.209-17.058-3.093-.21-1.134.666-5.107,1.376-7.786Zm-14.741-12.647c.6-3.558,1.447-7.446,1.9-8.165,1.317-.156,8.985,1.381,16.094,3.053-.536,2.91-1.032,5.613-1.494,8.138Zm-10.781-29.535-16.834,62.281-1.449-.275,17.113-62.219ZM1037.247,164.6l4.273-23.431,11.131,2.035-4.759,23.878Zm4.42,41.87,4.01-21.242,3.418-17.157,0,0v0L1054,143.448l14.034,2.564-17.109,62.21Zm10.284,3.347,1.491.282-6.583,32.09-1.719-.32Zm-11.468,53.964.822-3.868a.67.67,0,0,0,.195-.916l3.355-15.785,1.729.32-4.26,20.763-1.923-.308a.677.677,0,0,0,.082-.206Zm10.106,24.337-9.533-1.726,2.6-15.268-14.421-2.3c-.032-1.746-.057-4.059-.032-5.241l13.516,2.161c1.133.317,9,1.535,11.552,1.926Zm29.553-2.747-12.88-1.671,1.685-14.128,13.579,1.742Zm5.35-15.062-30.316-3.887c-3.761-.572-9.6-1.492-11.5-1.866l4.262-20.775,40.084,7.414Zm2.7-20.478-39.988-7.393,6.582-32.083,37.679,7.139Zm5.43-34.421c-.168-.82-.366-1.749-.476-2.152.183-1.836,4.523-25.724,7.524-42.04l1.38.333c-2.776,16.6-6.981,41.148-7.462,42.4a9.369,9.369,0,0,1-.965,1.458Zm20.6,4.809-19.7-3.733a11.564,11.564,0,0,0,1.295-1.921c.277-.554,1.588-7.761,3.065-16.228,5.146.8,10.616,1.871,11.47,2.4a25.859,25.859,0,0,0,2.559,3.758c.181.2.712.782,6.245.754a76.113,76.113,0,0,1-1.41,9.022,33.985,33.985,0,0,1-2.765,4.75q-.39.61-.763,1.2Zm1.452.275c.156-.247.313-.492.467-.732a32.9,32.9,0,0,0,2.913-5.057c.687-2.064,1.488-9.431,1.553-10.03l1.8-7.057,20.48,5.237-4.807,21.883Zm79.879,51.728c.061,1.245.043,4.642.02,7.029-5.539.186-18.356.615-21.453.7-.4.009-.9,0-1.459-.023l2.49-13.574c9.381,2.071,19.3,4.759,20.4,5.865Zm-24.273,7.633c-4.322-.289-10.887-1.106-13.058-1.384l9.521-46.712,11.942,2.264Zm3.5-90.068c1.581-.17,9.537,1.3,18.289,3.171a27.859,27.859,0,0,1-1.847,6.111c-1.264.339-9.934-.494-18.008-1.538.679-3.772,1.282-6.867,1.566-7.744Zm-3.739,20.464c.54-3.319,1.257-7.576,1.93-11.367q7.682,1,12.317,1.368l-5.368,32.416-11.938-2.262Zm-1.447.379-2.962,19.521-27.206-5.155,4.782-21.775Zm-26.422-9.116-20.493-5.243c1.022-7.1,2.588-18.413,2.335-19.285-.192-.668-1.062-1.315-2.351-1.926.263-1.749,1.211-8,1.793-10.873.54-2.674,2.637-6.133,3.349-7.254l23.859,4.358Zm8.749-41.569-21.319-3.9,2.323-6.766c3.8.806,10.017,1.956,20.215,3.608Zm1.351.247,2.425-14.044,13.437,2.309-2.788,14.122Zm33.791-2.28-1.48,8.182-2.817-.515c.2-1.312.684-4.49,1.282-8.457l3.015.787Zm-4.163-2.362a.674.674,0,0,0-.416.451.687.687,0,0,0,.241.714c-.454,3-.9,5.93-1.309,8.618l-13.721-2.507,6.95-35.206,11.931,2.866c-.444,3.464-2.081,14.492-3.675,25.064Zm6.981-17.809c-.1,1.021-.6,4.862-.98,7.664l-3-.6c.433-2.9.845-5.7,1.192-8.1a16.075,16.075,0,0,1,2.791,1.035Zm-3.168-8.634-26.956-6.473,1.188-6.884,26.718,6.122c-.483,3.431-.865,6.261-.95,7.236ZM1163.6,100.372l26.513,4.722c-.178,1.2-.522,3.518-.927,6.263l-26.473-5.846Zm25.387,12.346c-.368,2.506-.767,5.252-1.128,7.786l-26.68-6.113,1.3-7.526Zm-26.738-12.59-2.135,12.37-20.73-3.012,1.205-8.581,2.033-4.741c2.934.6,16.275,3.326,19.626,3.965Zm-22.167-4.064h1.087l-.859,2.005Zm1.551-1.364-1.5-.009,10.855-60.559,1.364.242Zm35.627-17.2c-2.742-.162-19.3-4.015-30-6.625l2.791-15.708,30.286,6.345c-1.422,7.881-2.651,14.409-3.076,15.989ZM1158.7,55.578a66.015,66.015,0,0,1,1.2-8.288,105.593,105.593,0,0,1,13.712.833c0,1.334-.417,6.011-.881,10.394Zm25.424-15.591c-1.069,6.171-2.366,13.56-3.555,20.171l-6.487-1.358c1.165-10.912.9-11.326.734-11.57-.185-.277-.485-.371-1.093-.476-1.783-.3-13.743-1.318-14.693-.608-.247.186-.818.639-1.681,9.147l-7.068-1.48,3.412-19.2ZM963.374,293l2.166-8.059a.687.687,0,1,0-1.328-.357L961.951,293Zm-344.949,0a91.8,91.8,0,0,1,3.953-8.44c1.734.469,10.564,4.587,18.6,8.44h3.177c-21.325-10.337-22-9.959-22.361-9.751-.629.357-2.263,3.64-4.86,9.751Zm-24.858-25.289a.687.687,0,0,0-.919.314L580.438,293h1.529l11.915-24.372a.687.687,0,0,0-.315-.918ZM338.834,293.021l4.681-5.768a.687.687,0,1,0-1.067-.867l-5.382,6.636Zm-18.707-2.384,4.766,2.384h3.071l-7.224-3.612a.687.687,0,1,0-.613,1.227Z" transform="translate(-26.975 0.007)"/>
    <path id="Path_403" data-name="Path 403" class="cls-4" d="M968.757,259.74c-1.941-.375-6.351-1.232-12.364-2.4l1.911-23.52a.665.665,0,0,0,.082-1.005l2.424-29.846a.687.687,0,1,0-1.368-.11l-2.4,29.542-34.079-6.968,2.021-10.441,15.106,2.967-.7,6.855a.687.687,0,0,0,.614.753.619.619,0,0,0,.071,0,.687.687,0,0,0,.683-.617l.763-7.481,2.339-17.794a.687.687,0,0,0-1.362-.179l-2.246,17.093-15.007-2.948,3.28-16.933a.687.687,0,1,0-1.349-.26l-3.278,16.93-33.1-6.5,2.494-12.689a.687.687,0,1,0-1.348-.266l-2.628,13.363-2.134,10.865c-2.825-.487-14.824-2.733-23.382-4.346l2.142-12.152.641-.284-.513-.454L868.88,185a.687.687,0,1,0-1.353-.238l-2.64,14.981a17.285,17.285,0,0,1-4.485-9.264l-.009-.073c-.128-1.046-.035-5.512.013-7.172a.687.687,0,0,0-.667-.7.677.677,0,0,0-.7.666c-.018.559-.14,4.995-.043,6.869-15.578,4.966-43.895,13.917-48.563,15.126l-3.2-11.736.039-.016-4.212-12.193a.687.687,0,1,0-1.3.449l3.77,10.914-18.9,6.863c-1.619-5.131-3.7-11.52-4.077-11.733l-.339.6.012.034-.62.277c.224.5,2.2,6.42,3.765,11.28l-45.812,16.63L735.938,204.1c0-.011-.012-.018-.015-.027a.3.3,0,0,0-.006-.033c-.064-.165-6.536-16.6-6.977-19.834-.364-2.659,2.073-15.929,3.044-20.827l.755-3.278,20.016,4.853,2.719-5.86L816.241,134.1a.688.688,0,1,0-.522-1.273l-27.276,11.216a.658.658,0,0,0-.025-.163c-.028-.077-2.743-7.728-3.026-8.708a97.62,97.62,0,0,1,1.92-10.411c16.414,3.113,20.18,3.584,21.153,3.584a.715.715,0,0,0,.368-.057c1.2-.6,1.447-5.148,1.447-5.192,0-.72-.015-1.344-21.563-4.54.54-2.264,1-4.029,1.252-4.644,1.88-.3,13.86,2.143,24.5,4.675a.687.687,0,0,0,.317-1.337c-24.914-5.929-25.653-4.668-25.932-4.194a54.456,54.456,0,0,0-1.55,5.7.675.675,0,0,0-.1.266.643.643,0,0,0,.006.128c-.343,1.433-.709,3.005-1.065,4.594a.663.663,0,0,0-.035.086q0,.033,0,.066c-.941,4.215-1.808,8.493-2.027,10.5-8.389-2.469-8.851-1.74-9.114-1.291l-.233.383a11.17,11.17,0,0,0-1.419,2.827l-16.664-2.774c1.487-7.173,3.135-14.94,3.571-16.1a13.18,13.18,0,0,1,4.111-2.353,6.577,6.577,0,0,0,.363,1.844c1.016,2.538,5.423,3.136,9.187,3.136a32.226,32.226,0,0,0,5.707-.45c.46-.154,1.317-.44,4.163-19.823a.687.687,0,0,0-1.359-.2c-.972,6.62-2.188,13.864-2.962,17.157-1.487-.33-10.374-2.3-13.785-2.882-.013-4.745,1.708-13.456,2.532-17.067a.687.687,0,1,0-1.337-.306c-.313,1.364-2.559,11.4-2.561,17.226-1.335.1-3.69,1.725-5.007,2.712-.383.288-.735,1.212-4.116,17.543l0,.009v.007c-.427,2.069-.9,4.37-1.433,6.962-.714,3.491-1.35,6.586-1.6,7.724-4.113-.29-34.827-5.939-61.994-11.079l3.623-18.345v0l1.2-6.059,18.052,3.7a.7.7,0,0,0,.139.015.687.687,0,0,0,.137-1.36l-18.061-3.7L697.842,98.7l16.545,3.275a.687.687,0,0,0,.267-1.348L698.11,97.354l2.731-13.743a.687.687,0,0,0-1.348-.267l-2.866,14.418-2.881,14.5-1.291,6.5-38.184,31.108-29.019-36.356c1.961-1.646,8.33-7.178,15.353-13.339,7.169,7.584,17.458,18.607,19.042,20.67-1.1,1.243-6.285,5.716-9.925,8.751a.687.687,0,1,0,.879,1.055c10.548-8.79,10.548-9.422,10.548-9.8,0-.334-.009-.961-19.515-21.581,4.276-3.754,8.708-7.666,12.474-11.021l11.555,13.04c-1.1,1.156-1.859,1.978-2.066,2.278-1.278,1.847,4.381,8.171,9.355,13.151a.687.687,0,0,0,.971-.971c-4.608-4.615-9.394-10.319-9.2-11.4.971-1.4,16.741-17.052,22.735-22.964a.687.687,0,0,0-.963-.978c-.7.689-13.783,13.6-19.878,19.89L655.134,87.333l1.792-1.6a16.013,16.013,0,0,0,5.856-1.671c1.89-1.175,8.114-4.834,8.958-5.329l5.81-1.218a.687.687,0,0,0-.282-1.342l-5.89,1.232-7.233.855a11.737,11.737,0,0,0,.163-2.845,9.523,9.523,0,0,1,.021-1.406c.662-1.037,7.849-6.867,14.361-11.891a.687.687,0,1,0-.839-1.088c-6.65,5.132-14.626,11.491-14.857,12.645a8.678,8.678,0,0,0-.059,1.778,6.475,6.475,0,0,1-.406,3.232c-.357.472-3.941,3.732-8.8,8.07,0,0-.011.005-.016.009l-.012.018c-3.838,3.424-8.466,7.517-12.929,11.441l-6.382-8.708,20.238-18.285a.688.688,0,1,0-.921-1.021l-35.595,32.161a.687.687,0,0,0,.921,1.02l14.333-12.951,6.373,8.689c-7.618,6.691-14.528,12.692-15.868,13.74-2.6,2.036-41.434,32.624-41.826,32.932a.687.687,0,1,0,.85,1.08c.105-.082,2.985-2.353,7.188-5.663.928,2.3,3.484,8.54,4.455,10,.423.632,3.69,4.239,7.721,8.62l-5.228,4.673a.687.687,0,1,0,.916,1.024l5.243-4.686c6.107,6.624,13.539,14.575,15.611,16.79-4.076,3.005-5.86,4.322-6.649,4.963a.677.677,0,0,0-.179-.534.687.687,0,0,0-.972-.025c-.055.053-2.811,2.67-5.842,5.507-8.671-10.9-22-28.009-22.991-30.223a34.424,34.424,0,0,1,5.027-5.173.687.687,0,0,0-.913-1.028c-1.206,1.071-5.167,4.67-5.5,5.992-.1.382-.374,1.549,23.369,31.373-2.843,2.653-5.691,5.272-6.606,5.984-1.932,1.5-13.906,12.808-14.6,14.058-.123.22-.461.937-1.154,2.41-.586,1.252-1.584,3.371-2.69,5.657-2.536-1.06-25.262-10.588-33.654-14.87-1.932-.984-5.1-2.534-8.867-4.355l0,0h-.005c-5.24-2.532-11.647-5.585-17.559-8.393h0c-4.243-2.014-8.218-3.9-11.326-5.364h0c-2.807-1.328-4.9-2.314-5.826-2.749a15.441,15.441,0,0,0,.983-2.882c-.016-1.222-2.392-2.593-11.559-6.666-1.888-.838-4.023-1.785-4.395-2.056a.687.687,0,0,0-1.08.842c.238.357.835.657,4.917,2.47,3.267,1.45,10,4.441,10.734,5.5a18.834,18.834,0,0,1-1.022,2.843c-.006.014-.018.021-.024.034a.639.639,0,0,0-.016.064c-2.369,5.719-7.957,17.4-9.234,19.027a36.307,36.307,0,0,1-4.063-1.952c-4.823-2.516-7.213-3.629-8.292-2.967-1.3.8-2.784,3.47-3.428,4.72l-11.207-5.475-10.214-4.9,11.253-22.33,9.755,5.058a.687.687,0,0,0,.632-1.22l-37.151-19.261c1.666-3.45,3.29-6.81,4.775-9.881l18.115,9.5a.687.687,0,0,0,.641-1.216l-18.157-9.524,6.354-13.13c.281-.363.81-1.547,1.557-6.055l14.412.856.042,0a.687.687,0,1,0,.04-1.373l-46.648-2.765c.577-3.732,1.117-6.379,1.328-7.16,1.1-.461,6.616-.394,16.42.192,1.321.081,1.967.119,2.2.119,1.259,0,6.092-5.008,9.925-9.211a.687.687,0,0,0-1.016-.925c-1.487,1.63-3.074,3.305-4.5,4.752l-18.7-20.638a.687.687,0,0,0-1.016.922l18.752,20.69a20.481,20.481,0,0,1-3.443,3.036c-.205,0-1.05-.05-2.121-.114-16.021-.961-17.433-.394-17.758.586a73.6,73.6,0,0,0-1.449,7.669l-61.026-3.62h-.005l-21.405-1.27c.445-8.32.8-14.479.913-15.2a.687.687,0,0,0-1.11-.72c-.213.189-.385.348-1.6,23.661h-4.026l-8.909,4.7v8.46l12.127,2.734c-.316,6.316-.678,13.643-1.092,22.149v0c-.831,17.516-2.365,44.206-3.182,45.946-.906,1.655-19.506,9.617-21.685,9.713-1.055-.087-3.878-.261-5.2-.341l4.23-57.815a.687.687,0,1,0-1.369-.1l-4.267,58.3c-1.117,1.459-9.239,12.226-13.009,21.056a36.265,36.265,0,0,0-2.785,11.883.662.662,0,0,0-.006.092c-.068,1.053-.1,2.051-.092,2.971a67.444,67.444,0,0,1-21.433-10.209v0l-.494-.36-.012-.009-5.338-3.89c-4.245-3.232-15.559-12.025-16.935-13.9a23.6,23.6,0,0,1-2.829-5.661.687.687,0,0,0-.91-.592l-.33.116-.1.331c-.2.657,1.687,4.738,3.067,6.617,1.6,2.182,13.814,11.583,16.646,13.749l-14.27,17.509c-4.409-3.027-10.044-7.124-15.285-11.076a.687.687,0,1,0-.826,1.1c18.972,14.313,22.985,16.005,24.046,16.005a.586.586,0,0,0,.372-.11c1.346-.9,9.922-14.558,12.476-18.656a68.88,68.88,0,0,0,22.19,10.466c.041,1.221.119,2.28.183,3.122.048.62.087,1.137.1,1.538.066,2.44-14.042,31.684-16.767,36.255a17.547,17.547,0,0,1-4.5,5.181h2.141a20.584,20.584,0,0,0,3.543-4.477c2.152-3.608,17.045-33.832,16.96-37-.011-.419-.052-.959-.1-1.606-.064-.83-.135-1.824-.179-2.939a.678.678,0,0,0-.03-1.119c-.007-.513-.009-1.046,0-1.6l20.873,24.188a.681.681,0,0,0,.628.952.7.7,0,0,0,.168-.03l20.373,23.607h1.816l-21.105-24.453,27.579-24.392L341,253.87a.687.687,0,0,0,.971-.971l-5.492-5.494-28.534,25.236L286.18,247.426a34.636,34.636,0,0,1,2.676-11.2c3.617-8.471,11.351-18.807,12.74-20.633,1.09.064,4.369.266,5.494.359l.048,0c1.163,0,8.488-2.783,14.57-5.567.119.958.3,2.431.391,3.347a6.932,6.932,0,0,0,1.355,2.155.671.671,0,0,0,.147.189c2.653,3.348,8.246,9.264,12.089,13.252-2.031,1.893-4.279,3.976-6.663,6.174l0,0,0,0c-2.221,2.047-4.556,4.192-6.944,6.379-8.936-10.363-9.22-10.371-9.55-10.371-.808,0-4.025,2.921-4.082,3.93-.066,1.19,5.4,6.528,6.083,6.663.3.061.919.18,3.571-2.7.934,1.075,1.934,2.229,2.957,3.413-6.375,5.832-13.033,11.885-18.72,17.027l-.226.2v.3a3.748,3.748,0,0,0,2.051,2.551.428.428,0,0,0,.119.02c.311,0,1.08-.467,5.569-4.484l2.321,2.726c-2.688,2.4-2.843,2.8-2.9,2.946a1.133,1.133,0,0,0,.168.987c.444.751,1.934,2.268,2.942,2.4a.965.965,0,0,0,.121.009c1.02,0,2.449-1.612,3.505-3.02l14.657-12.588-.007-.009,6.6-5.889c4.555,5.245,4.908,5.251,5.2,5.251.826,0,2.284-1.483,2.924-2.5a2.838,2.838,0,0,0,.441-2.831,13.269,13.269,0,0,0-1.71-2.417,9.55,9.55,0,0,1-1.077-1.465c.608-.862,4.411-4.736,7.3-7.6,1.744,1.85,7.883,8.345,10.74,11.075.92.879,5.759,3.555,12.366,7.012-.636.684-1.294,1.364-1.948,2.036a40.4,40.4,0,0,0-4.407,5.021c-2.34,3.441-5.428,10.209-4.814,12.05a5.21,5.21,0,0,0,1.828,1.7l-8.612,16.814c-.9-.571-1.74-1.1-2.439-1.547a53.7,53.7,0,0,0-4.709-2.88.673.673,0,0,0-.844.415.7.7,0,0,0,.391.881c.317.135,2.406,1.461,4.426,2.744,1.134.721,2.164,1.372,3.125,1.976l0,0h0c7.667,4.822,10.106,6.114,11.07,6.114a.7.7,0,0,0,.65-.392c.029-.046.824-1.4,1.937-3.353l7.753,4.012h2.989l-10.064-5.208c2.919-5.173,7.182-13.055,6.761-14.2l-.178-.383-.327-.1a96.356,96.356,0,0,1-10.692-5.7c-.018-.009-.029-.027-.049-.037s-.016,0-.023-.007a6.981,6.981,0,0,1-1.7-1.3c-.32-.964,1.9-6.8,4.648-10.841a39.525,39.525,0,0,1,4.255-4.836c.751-.769,1.5-1.549,2.225-2.337,8.448,4.4,19.4,9.891,28.811,14.562-1.9,3.787-11.65,23.194-12.174,24.277a.687.687,0,1,0,1.236.6c.513-1.059,10.3-20.547,12.168-24.264,9.985,4.954,17.96,8.85,18.833,9.275a.687.687,0,1,0,.6-1.234c-3.413-1.666-7.358-3.6-11.569-5.677l18.917-37.2c3.831,1.85,7.561,3.658,10.964,5.313a.687.687,0,0,0,.6-1.234c-17.719-8.621-47.585-23.028-49.24-23.028h-.024c-.7.079-1.654.186-15.932,31.4l-.639,1.394a17.946,17.946,0,0,1-2.869,4.115c-6.743-3.518-11.512-6.147-12.361-6.959-3.289-3.141-11.009-11.363-11.163-11.528l-6.1-7.075c2.137-2.069,3.653-3.586,3.878-3.941.261-.412.778-1.352,1.432-2.588,2.256,1.483,4.056,2.662,5.487,3.594-4.438,3.56-4.05,4.122-3.727,4.574.033.048,3.427,4.745,4.848,4.864.861.067,1.549-.925,2.82-2.84.318-.476.763-1.145,1.04-1.481,2.369,1.451,12.429,7.415,14.311,7.415a.462.462,0,0,0,.2-.037c.25-.125.836-.418,4.978-10.033l.245-.568-.03-.018,2.818-7.734.192.094.108-.973c.213-1.929,7.4-17.305,12.18-27.171l0,0,8.977-18.83c.288-.533,3.886-7.156,6.913-12.864L430,166.073c-4.427,9.191-8.039,16.728-8.638,18.09-1.557,3.538-3.275,3.736-5.1,3.943-2.25.256-3.62,6.607-4.1,9.326a.687.687,0,0,0,.556.8.7.7,0,0,0,.119.011.687.687,0,0,0,.678-.566c.749-4.2,2.136-8.112,2.907-8.2,1.927-.22,4.324-.494,6.2-4.752.325-.738,1.578-3.381,3.382-7.148l6.907,3.31L422.09,202.072a.687.687,0,1,0,1.224.623l10.828-21.22,29.439,14.114,11.815,5.773,18.463,9.023-10.841,21.943-11.271,23.538c-.179.256-1.273,1.7-2.443,1.1a19.129,19.129,0,0,1-2.591-2.168c-2.641-2.421-5.635-5.162-7.847-4.8-2.232.364-3.754,2.432-4.975,4.093a12.46,12.46,0,0,1-1.319,1.621c-.314.287-.654.628-1.009.984-1.157,1.16-2.6,2.6-3.635,2.6-2.273,0-3.864-.316-4.734-.939a.687.687,0,0,0-.8,1.117c1.123.806,2.933,1.2,5.535,1.2,1.607,0,3.2-1.6,4.607-3.006.339-.341.664-.666.964-.943A13.161,13.161,0,0,0,455,254.9c1.131-1.536,2.412-3.278,4.09-3.551,1.562-.251,4.651,2.582,6.7,4.459a18.055,18.055,0,0,0,2.887,2.374c1.88.98,3.6-.613,4.246-1.591l11.335-23.66,10.841-21.942,25.4,12.413-11.735,21.123-25.986,53.612H484.3l25.674-52.972,11.751-21.151,1.669.815h0l17.8,8.7v0L565,245.163l-10.031,22.006-1.633,3.443c-4.382-2.369-15.712-8.415-17.21-8.415-2.5,0-12.4,23.257-12.432,23.492a1.14,1.14,0,0,0,.334.87c1.678,1.9,14.533,8.143,15.456,8.143.87,0,1.472-1.068,3.247-5.007.375-.835.732-1.626,1.028-2.213.753-1.49,2.9-1.956,3.547-2.065.929.461,2.9,1.717,3.095,3.2.169,1.269-2.71,6.025-5.137,9.522h1.669c1.921-2.825,5.082-7.81,4.828-9.706-.266-2-2.368-3.422-3.44-4.027l5.942-12.539.009-.018,1.941-4.1,10.021-21.98,8.643,4.224c4.521,2.333,9.614,4.981,14.747,7.669l-5.446,13.454c-6.435-3.577-15.542-8.651-15.95-8.911l-.385.568.659.192-1.325-.364c-.137.527-.137.527,2.93,2.246,1.564.876,3.651,2.04,5.736,3.2l7.815,4.349-2.994,7.4a.687.687,0,1,0,1.273.516l4.811-11.885c3.168,1.84,6.8,3.846,7.556,3.846,1.074,0,2-1.6,2.451-2.545a.687.687,0,0,0-1.24-.593,5.342,5.342,0,0,1-1.222,1.753,69.3,69.3,0,0,1-7.025-3.749l3.578-8.836c4.056,2.127,8.106,4.267,11.894,6.286L593.1,285.852a.687.687,0,1,0,1.251.568l3.392-7.482c2.152,1.135,9.065,4.829,10.635,6.277a.687.687,0,1,0,.93-1.01c-1.731-1.593-8.893-5.411-11-6.519l2.109-4.651L619.4,282.84a.688.688,0,0,0,.632-1.221l-19.045-9.837,2.969-6.547c9.735,5.2,17.47,9.479,18.507,10.442.314,1.362,2.313,4.432,4.073,6.587-2.117,4.628-4.429,9.608-6.4,13.82l-24.053-10.933a.687.687,0,0,0-.568,1.25l25.815,11.735h3.318l-3.265-1.483c1.384-2.955,3.781-8.091,6.144-13.249a9.4,9.4,0,0,0,.786.758l.009.009c1.673,1.388,11.475,7.057,13.906,8.455l-2.4,5.51h1.5l2.4-5.491c2.779-4.9,6.013-10.25,6.624-10.744a42.388,42.388,0,0,1,3.855-2c-2.17,1.893-4.479,3.943-4.813,4.389-.013.018-.211.391-.529,1a.68.68,0,0,0-.19.364c-1.511,2.924-4.956,9.724-5.947,12.473h1.432c1.055-2.489,4.106-8.781,5.572-11.626l11.564,1.32a.678.678,0,0,0,.078,0,.687.687,0,0,0,.077-1.369l-11.017-1.258c.022-.035.042-.068.058-.088.4-.526,5.242-4.739,8.277-7.343,1.688-.48,19.006-5.428,36.217-10.6,3.071-.923,5.883-1.776,8.468-2.567l3.8,13.682c-1.85.152-3.364.236-4.017.236-1.538,0-34.622,8.92-41.24,10.708a.687.687,0,0,0,.36,1.325c15.689-4.239,39.526-10.579,40.88-10.661.723,0,2.383-.092,4.393-.26l1.95,7.02-43.935,11.476h5.434l38.868-10.152,2.823,10.152h1.425l-.44-1.582,43.776-13.038,4.236,14.621h6.034l26.727-7.942c1.007,4.153,1.671,6.547,2.13,7.942h1.436c-.536-1.621-1.447-5.047-2.247-8.334l13.416-3.986c.647,2.411,1.477,5.415,2.277,8.054-3.688,1.3-9.024,3.192-11.9,4.267h4.009c2.619-.941,5.748-2.051,8.3-2.952.357,1.132.7,2.14,1.005,2.952h1.443c-.827-2.124-2.426-7.545-3.814-12.712l19.689-5.851,4.553,15-9.738,3.557h4l6.137-2.243.68,2.243h1.436l-5.75-18.952,23.426-6.872c5.765,21.771,6.611,22.066,7.018,22.2a.572.572,0,0,0,.177.021c1.264,0,7.227-1.95,17.728-5.8,1.016,3.941,1.939,7.458,2.45,9.4H883.8c-1.266-4.8-2.971-11.347-4.4-17.044,4.276-1.352,7.759-2.426,8.472-2.58,1.408-.3,14.256,2.646,22.442,4.67L908.66,295.3c-2.857-.353-11.715-.755-16.459-.952a31.256,31.256,0,0,0-.077-5.033c2.064-.657,4.234-1.3,4.617-1.326a.687.687,0,0,0-.009-1.373,46.809,46.809,0,0,0-5.551,1.559l-.526.169.052.549c.124,1.273.369,4.816.03,5.9-.252.6-2.957,2.071-5.819,3.347h3.22a12.692,12.692,0,0,0,3.607-2.434c5.732.238,14.407.666,16.707.934-.073.421-.172.98-.266,1.5h1.4c.071-.4.142-.808.2-1.146.87.268,2.318.687,3.946,1.146h5.1c-3.745-1.039-7.485-2.094-8.827-2.514l1.751-12.841,1.862-9.12,13.295,2.564a110.339,110.339,0,0,0-4.058,21.911h1.373a109.416,109.416,0,0,1,4.042-21.65l35.535,6.853a.687.687,0,0,0,.259-1.349l-35.306-6.809c1.1-3.623,3.944-16.722,4.834-20.849,12.74,2.461,24.944,4.825,34.9,6.755a.687.687,0,0,0,.262-1.349ZM788.4,119.9c7.308,1.087,18.418,2.882,20.488,3.582A15.125,15.125,0,0,1,808.2,127c-1.894-.125-13.157-2.172-20.592-3.58.267-1.212.536-2.4.8-3.52Zm-9.321-1.813c-.037.11-.073.213-.105.286-1.9.408-11.824,1-13-1.941a4.593,4.593,0,0,1-.253-1.154c2.758.5,9.1,1.865,13.355,2.809ZM663.43,79.726l4.9-.579c-2.2,1.3-5.082,3.007-6.269,3.747a10.664,10.664,0,0,1-3.254,1.145C661.144,81.921,662.822,80.367,663.43,79.726ZM249.42,259.01c-.813-.19-3.246-1.685-6.515-3.9l14.231-17.463,4.3,3.133c-4.178,6.7-10.722,16.918-12.017,18.226ZM314.743,240.7a37.07,37.07,0,0,1-4.883-5.2,13.531,13.531,0,0,1,2.561-2.465c.7.707,2.489,2.729,4.77,5.344a18.8,18.8,0,0,1-2.448,2.32Zm60.422,38.669c-.525,1.806-4.345,8.891-6.916,13.48-.009.018-.027.027-.037.046s0,.027-.011.039c-.879,1.569-1.607,2.838-2,3.489-1.321-.433-5.787-3.162-9.55-5.525l8.6-16.792a107.211,107.211,0,0,0,9.907,5.265Zm36.213-9.239c-2.152-1.062-4.365-2.157-6.607-3.269a.273.273,0,0,0-.026-.021c-.009,0-.022,0-.032-.009-3.686-1.828-7.447-3.7-11.134-5.554l11.169-23.032,18.1,9.333Zm18.909-37.183-6.818,13.4-18.122-9.343,6.3-12.984C417.414,226.756,423.954,229.889,430.287,232.944ZM378.5,247.954l.639-1.4c10.994-24.031,14.091-29.565,14.927-30.547,1.438.458,7.957,3.461,16.332,7.42L392.35,260.657c-6.038-3.033-11.828-5.975-16.71-8.511a18.554,18.554,0,0,0,2.863-4.194ZM463.995,166.5l-5.7,11.313-26.46-12.388c1.932-4.012,4-8.291,6.02-12.48Zm-44.621-47.015,30.977,1.838a33.789,33.789,0,0,1-1.154,5.116c-2.305.149-19.016-.833-30.52-1.58.217-1.926.456-3.734.7-5.375Zm-.847,6.741c19.426,1.264,26.775,1.564,29.613,1.564.131,0,.238,0,.351,0-1.534,3.168-6.208,12.824-11.262,23.289L417.414,140.8c-.007,0-.014,0-.02,0,.245-1.874.375-3.3.387-3.443l.066-.746h-.042c.11-3.578.38-7.121.723-10.383ZM418,119.4c-.267,1.846-.531,3.888-.765,6.048v0c-.385,3.525-.689,7.355-.806,11.155H391.486c.89-9.142,1.605-17.409,1.714-18.677ZM322.4,132.946v-6.532l7.877-4.153H333.9c-.2,3.772-.416,8.12-.667,13.125Zm2.769,82.941a66.371,66.371,0,0,0,8.987-4.068,5.621,5.621,0,0,0,1.948,2.588c1.178.734,7.891,3.472,10.093,4.363-.161.309-.3.568-.4.747-.36.6-3.922,4.032-9.11,8.883-4.428-4.6-9.081-9.623-11.518-12.512ZM350.4,210.6c-.687,1.324-1.508,2.923-2.5,4.868l-1.062,2.078c-2.912-1.177-9.01-3.685-10-4.3a4.668,4.668,0,0,1-1.513-2.22,3.194,3.194,0,0,0,.627-.632c.776-1.163.949-3.742,1.027-6.815,2.483,1.3,9.191,4.809,13.423,7.025Zm-13.39-8.5a16.568,16.568,0,0,1,.131-2.237c.119-.516,1.753-.47,2.631-.445a10.541,10.541,0,0,0,1.408-.018,1.621,1.621,0,0,0,1.16-.665,2.233,2.233,0,0,0,.375-1.025l12.418,5.735a9.982,9.982,0,0,1-1.339,1.309c-.357.249-1.038,1.359-2.758,4.631l-6.9-3.609c-4.258-2.229-6.191-3.241-7.131-3.675Zm-.368,28.226.738.764c-1.911,1.807-3.99,3.759-6.147,5.778l-.765-.813c2.168-2,4.25-3.931,6.174-5.727Zm-7.183,6.657.769.821c-2.129,1.991-4.318,4.029-6.483,6.037l-.773-.9c2.165-1.983,4.353-3.992,6.485-5.958Zm-19.979,19.955a.05.05,0,0,1-.018.009.218.218,0,0,1-.015.021c-2.564,2.314-4.422,3.949-5.131,4.5a4.332,4.332,0,0,1-.73-.881c2.356-2.131,10.076-9.12,18.367-16.706q.388.451.778.906c-2.207,2.046-4.372,4.044-6.4,5.909,0,0-.009,0-.014.009s-.005.009-.009.013c-2.555,2.346-4.889,4.477-6.826,6.226Zm3.078,9.22a5.311,5.311,0,0,1-1.892-1.652c.4-.446,1.452-1.436,2.393-2.277l1.557,1.826a9.51,9.51,0,0,1-2.058,2.1Zm3.017-3.095-4.706-5.521c1.55-1.4,3.481-3.157,5.873-5.356l2.47,2.706a21.456,21.456,0,0,0-2.274,2.545c-.147.254-.565.989,1.474,3.191Zm3.882-3.335a7.475,7.475,0,0,1-1.262-1.709,27.438,27.438,0,0,1,1.941-2.113l1.657,1.815Zm3.38-2.9-5.087-5.571c1.723-1.588,3.672-3.39,5.876-5.434,1.765,2.051,3.522,4.1,5.1,5.947Zm6.92-5.961q-2.869-3.36-5.118-5.984l1.857-1.726c.577-.536,2.344-2.179,4.639-4.326,2.121,2.527,3.836,4.549,5.219,6.153Zm19.653-17.428c-3.507,3.464-7.508,7.526-7.728,8.248-.235.762.436,1.578,1.364,2.708a12.35,12.35,0,0,1,1.534,2.143,1.192,1.192,0,0,1-.08.955,6.186,6.186,0,0,1-1.959,2.313c-1.3-1.207-6.757-7.575-10.4-11.915,1.9-1.776,4.062-3.809,6.19-5.817l.6.62a.687.687,0,1,0,.989-.952l-.59-.61c1.578-1.492,3.1-2.943,4.448-4.238Zm-1.927-12.181c-.238.344-1.752,1.853-4.084,4.1-.009.007-.02.009-.03.018a.391.391,0,0,0-.037.048c-1.4,1.346-3.082,2.95-4.957,4.725l-.732-.757c5.205-4.874,8.988-8.531,9.358-9.2s1.181-2.257,2.119-4.093c.765-1.5,1.825-3.574,2.811-5.464v0a49.791,49.791,0,0,1,2.644-4.743,5.657,5.657,0,0,0,.638-.54c-.71,2.513-6.673,14.242-7.731,15.913Zm9.083-15.652a11.036,11.036,0,0,1,.506-1.282l11.74,5.792c-1.021,2.02-2.188,4.322-3.315,6.526L354.516,210.5a39.054,39.054,0,0,0,2.051-4.9Zm-5.855,12.583c1-1.923,2.173-4.267,3.216-6.44l10.944,6.116c-1.635,3.19-3.088,5.988-3.708,7.1-1.63-1-6.724-4.325-10.452-6.774Zm23.765,15.945a140.2,140.2,0,0,1-13.407-7.238.789.789,0,0,0-.65-.267c-.588.041-.989.6-2.06,2.214a15.135,15.135,0,0,1-1.627,2.185,24.447,24.447,0,0,1-3.58-3.972,29.529,29.529,0,0,1,3.624-3.262c4.285,2.776,4.425,2.778,4.619,2.778.444,0,.6-.006,4.688-8.03l12.443,6.953c-1.612,3.711-3.406,7.6-4.05,8.64Zm4.556-9.93-12.326-6.888c.925-1.817,2.025-3.992,3.339-6.592l11.782,5.812Zm15.275-35.7v0c-1.146,2.367-10.468,21.664-12.077,26.7l-24.586-12.132c2.758-5.931,10.008-20.091,13.114-26.093a.687.687,0,0,0-1.22-.632c-.469.907-9.8,18.947-13.143,26.168l-13.612-6.286a51.975,51.975,0,0,1,2.905-9.5c1.361-2.838,2.948-6.315,3.585-7.719,2.531,1.212,3.923,1.714,4.668,1.714a1.059,1.059,0,0,0,.373-.059c1.289-.483,4-5.891,5.507-9.072a.687.687,0,0,0-1.242-.586c-1.721,3.642-3.989,7.81-4.729,8.354-1.242-.04-7.948-3.571-10.173-4.743-1.193-.626-1.776-.934-2.007-1.029a.975.975,0,0,0-.835.043c-.985.513-1.728,3.269-2.083,4.869a.687.687,0,0,0,1.34.3,15.043,15.043,0,0,1,1.285-3.827c.341.17.964.5,1.66.863,1.982,1.044,3.626,1.89,5,2.573-.623,1.375-2.22,4.876-3.587,7.728a51.308,51.308,0,0,0-2.944,9.5l-.444-.205.263,1.321v0a1.9,1.9,0,0,1-.1,1.172.257.257,0,0,1-.205.106,9.714,9.714,0,0,1-1.209.009c-1.538-.044-3.641-.1-4.01,1.511a20.517,20.517,0,0,0-.176,3.076c-.048,2.368-.119,5.948-.818,7a2.757,2.757,0,0,1-.673.6c-.018.013-.037.023-.053.037-1.862,1.287-6.574,3.278-9.826,4.5a5.812,5.812,0,0,1-.79-1.163c-.11-1.08-.339-2.934-.449-3.818,3.644-1.721,6.6-3.363,7.081-4.258,1.187-2.2,2.994-39.145,3.345-46.532.492-10.072,1.486-30.087,2.251-44.474l20.7,1.227-.831,12.471h-5.659l-.812,16.564,3.644,2.915-8.611,16.2a.687.687,0,1,0,1.212.644l9.147-17.2-3.985-3.189.714-14.555h5.634l.917-13.762,34.063,2.02c-.456,5.289-1.1,12.416-1.788,19.439v.009c-1.156,11.778-2.433,23.255-3.144,25.247-1.441,4.032-8.509,17.964-8.579,18.1a.687.687,0,0,0,1.224.623c.277-.548,6.506-12.826,8.387-17.576l15.056,6.6Zm9.3-19.431-15.242-6.679c.787-3.257,1.98-14.178,2.985-24.4h24.987c-.223,2.161-.952,8.433-2.157,11.081-1.346,2.96-8.964,17.04-10.572,20Zm8.472-12.886c1.544-2.924,2.852-5.452,3.351-6.547a32.305,32.305,0,0,0,1.761-7.4l19.435,10.076c-2.031,4.205-4.1,8.5-6.045,12.53Zm14.5,20.156c1.341-2.8,2.935-6.113,4.65-9.674l26.439,12.379-4.952,9.825ZM546.957,284.085c-.964.177-3.428.812-4.422,2.778-.3.6-.668,1.414-1.055,2.269a28.37,28.37,0,0,1-2.106,4.15c-2.071-.665-13-6.168-14.272-7.577.773-2.533,9.351-20.525,11.141-22.112,1.461.353,9.356,4.395,16.509,8.262Zm343.574-75.856,33.1,6.5-2.02,10.433L888.532,218.4Zm30.82,18.282-4.489,23.2c-4.979-.96-10.019-1.93-14.981-2.884,1.34-4.228,4.482-19.746,5.182-23.233Zm-33.058-6.759,17.424,3.562c-1.456,7.27-4.134,20.1-5.189,23.248-5.544-1.064-10.969-2.106-16.084-3.083,1-6,2.264-13.745,3.849-23.726Zm11.746,28.117c-1.318,3.981-4.306,17.6-5,20.81l-16.168-3.118c.315-.253.62-.476.873-.659.286-.209.518-.381.666-.513.174-.158.619-.559,3.813-19.558,4.981.954,10.3,1.976,15.82,3.035Zm-16.954-4.651c-8.935-1.708-16.825-3.207-22.594-4.285l3.1-21.691,23.343,2.306c-1.149,7.235-2.557,15.924-3.852,23.671Zm-125.654,3.648,16.658-5.016,4.514,16.743c-5.606,1.688-11.238,3.383-16.712,5.029Zm3.144,17.15c-2.263.682-4.5,1.353-6.688,2.01l-4.823-16.64,7.05-2.124ZM775.4,241.454l17.857-5.377,4.825,16.651L786.9,256.1c-2.31.7-4.642,1.4-6.981,2.1Zm19.169-5.773,9.984-3.008.766-.025,4.807,16.452q-5.029,1.511-10.733,3.228Zm12.17-3.078,5.1-.165,3.777-1.126,4.487,14.793-8.658,2.6Zm13.763,14.815L824.935,262l-8.828,2.631-4.27-14.611c2.982-.9,5.886-1.769,8.671-2.606Zm-3.571-16.5,31.955-9.51c.244,2.451.732,10.45,1.038,15.913-2.536.639-11.635,3.326-28.505,8.387Zm-5.314.149-1.948.064,52.652-15.855,0,.7Zm50.554-13.613-3.037,21.222c-3.9-.728-6.647-1.227-7.838-1.417-.218-3.908-.772-13.511-1.081-16.247Zm9.193-.828-7.679-.758,0-.687c2.329.439,4.981.939,7.678,1.445Zm-12.22-25.177a19.022,19.022,0,0,0,4.981,9.5c-3.171,1.415-13.359,5.991-15.066,7.193-1.318.93-11.3,2.548-17.28,3.351a.687.687,0,1,0,.183,1.36c1.617-.216,15.86-2.159,17.889-3.589,1.383-.973,9.555-4.706,14.573-6.943l-2.024,11.494-45.85,13.806-5.768-21.12c6.034-1.584,42.357-13.141,48.363-15.055Zm-43.91,36.57-9.7,2.921-1.284.386-.022.006-9.984,3.006c-.566-2.87-2.6-13.2-4.079-20.635,4.986-1.9,16.173-6.074,19.271-6.893Zm-9.315-34.1,3.162,11.571c-3.66.98-15.962,5.624-19.182,6.847-.668-3.351-1.177-5.892-1.306-6.485-.013-.058-.678-2.243-1.566-5.073Zm-20.144,7.313c.748,2.357,1.337,4.283,1.474,4.913.412,1.886,4.855,24.417,5.68,28.59l-44.254,13.327-8.747-30.186Zm-9.872-67.014.134-.216c.964-.064,4.793.867,8.133,1.857.357,1.1,1.319,3.855,2.051,5.933-5.231-2.154-10.59-4.455-11.6-5.063a9.529,9.529,0,0,1,1.28-2.511Zm-83.868-13.354-3.256,16.49c-4.77-.9-9.414-1.787-13.767-2.621Zm-79,48.576c-1.788-1.923-3.67-3.946-5.51-5.933a3.365,3.365,0,0,1,2.424.161,13.038,13.038,0,0,1,3.3,3.915,5.119,5.119,0,0,1-.215,1.856Zm1.111,1.192c.3-1.018.718-2.772.366-3.589a14.071,14.071,0,0,0-3.792-4.514c-1.4-.945-3.324-.428-4.25-.179l-.012,0c-5.463-5.9-10.3-11.193-10.773-11.9a106.219,106.219,0,0,1-4.474-10.119c10.955-8.628,29.266-23.05,32.976-25.964L653.2,150.721,619.9,176.8c-1.531-1.635-3.543-3.789-5.759-6.169Zm-35.64,47.2c-1.917,3.917-4,7.954-4.825,8.756-1-.368-4.812-2.291-9.98-4.984l4.184-8.274c5.214,2.234,9.457,4.015,10.621,4.5Zm-11.885-5.045-4.139,8.182c-3.553-1.857-7.651-4.023-11.878-6.272l3.538-7.375c4.022,1.807,8.472,3.745,12.48,5.466Zm-21.142-9.512c1.959.978,4.542,2.183,7.409,3.479l-3.5,7.294c-2.337-1.245-4.7-2.509-7.023-3.752Zm-8.877-4.373c3.145,1.52,5.818,2.829,7.647,3.754l-3.095,6.989c-2.692-1.444-5.312-2.854-7.746-4.166Zm-17.525-8.38c2.534,1.2,5.141,2.443,7.7,3.666l-2.772,7.194-3.445-1.733c.479-1.077.593-1.642.452-2.017-.333-.89-2.4-2.373-3.67-3.218Zm.62,7.531a4.893,4.893,0,0,1-.359.98l-7.635-3.838a9.1,9.1,0,0,1,1.069-1.513,28.084,28.084,0,0,1,3.358,1.578,18.176,18.176,0,0,1,3.567,2.793Zm-12-12.915c2.863,1.352,6.382,3.017,10.132,4.8l-1.685,3.785a19.19,19.19,0,0,0-3.3-1.437c-.421-.092-.851-.18-2.381,2.3l-5.92-2.979Zm2.067,10.623c-.906,1.582-2.112,3.864-3.743,7.142-3.125-1.662-4.73-2.49-5.583-2.882l3.505-7.188Zm-15.311,13.4-17.846-8.719c.8-1.54,2.069-3.635,2.878-4.136.8-.22,4.816,1.87,6.973,3,3.554,1.853,4.525,2.3,5.167,2.088,1.254-.417,6.952-12.6,9.707-19.249l5.122,2.415Zm11.125,4.584c-.251.247-.432.428-.565.579l-9.326-4.558,4.151-8.509c1.016.487,3.345,1.7,5.573,2.881l-.436.886-.218.443c-.43.859.357,1.717,1.271,2.71.708.772,1.589,1.731,1.633,2.447.062,1.007-1.334,2.381-2.084,3.119Zm.73,1.211.234-.233c1.033-1.016,2.593-2.552,2.491-4.183-.073-1.2-1.093-2.31-1.992-3.289a7.055,7.055,0,0,1-1.012-1.254l.181-.368c2.271-4.635,3.781-7.484,4.787-9.243l7.739,3.891c-.549,1.09-1.224,2.337-1.729,3.269a25.666,25.666,0,0,0-2.042,4.148c-.208.992.687,1.881,1.634,2.823.615.611,1.456,1.447,1.447,1.919-.018.857-1.829,4.232-3.272,6.655Zm17.054,8.335-7.352-3.593c1.044-1.754,3.377-5.829,3.406-7.233.024-1.06-.928-2.005-1.85-2.921-.452-.451-1.295-1.288-1.257-1.566a35.188,35.188,0,0,1,1.9-3.776c.742-1.369,1.316-2.447,1.749-3.307l4.776,2.4,3.278-8.509c2.565,1.227,5.054,2.419,7.341,3.522l-3.479,7.169-.018.039-.266.549,0,0Zm1.234.6,8.209-17.172c2.195,1.184,4.849,2.614,7.753,4.175l-8.372,16.7Zm16.548,8.087-7.723-3.774,8.348-16.66c2.254,1.209,4.629,2.48,7.026,3.758Zm33.3,16.273-8.261-4.038-23.8-11.633,7.631-16.633c11.4,6.066,22.881,12.063,23.755,12.063.392,0,.824-.213,1.749-1.636a94.956,94.956,0,0,1,8.169,4.99l-3.617,7.255-.018-.009-3.226,7.027Zm20.888-.668,12.16,5.921-2.4,5.609-12.066-6.038ZM591.8,252.46l-13.494-6.754,2.406-5.244,13.386,6.519Zm18.12-1.134c7.215,3.842,17.388,9.334,19.452,10.623l-2.86,5.72-19.178-10.3Zm-1.884.916-12.169-5.926,2.457-5.851,12.26,5.819Zm-13.4-6.528-13.327-6.49,3.454-6.931c2.4,1.745,9.358,5.811,12.342,7.537Zm-4.474,10.66c-4.25-2.22-9.034-4.7-14.428-7.488l1.834-2.016,13.7,6.858Zm13.146,6.931c-3.384-1.8-7.328-3.888-11.925-6.293l1.119-2.666,12.059,6.034Zm1.216.65,2.273-5.316,19.083,10.249-3,5.5c-1.593-1.155-6.011-3.823-18.361-10.429Zm22.652,16.915a24.389,24.389,0,0,1-3.338-5.366l3.91-7.173-.021-.011,2.655-5.311c1.227,1.584,2.612,3.656,2.614,4.38-.115.785-2.679,6.592-5.821,13.48Zm22.349-.07c-.989.732-5,7.67-6.675,10.6-3.686-2.118-9.691-5.633-12.419-7.42l22.243-4.858a30.583,30.583,0,0,0-3.15,1.678Zm8.737-4.305-29.309,6.4c-.247-.232-.519-.519-.8-.842,3.232-7.08,6.219-13.837,6.219-14.622,0-1.767-3.225-5.686-3.593-6.128l0,0c0-.006-.011-.009-.016-.014-.705-.743-12.74-7.208-20.29-11.225l1.9-4.45-14.076-6.68c-5.985-3.452-12.647-7.47-13.214-8.12l-.02-.021c-.009-.012-.02-.022-.03-.033-.925-1.1-6.94-4.516-8.795-5.553,1.312-2.273,3.37-6.357,6.81-13.679.56-1.194,1-2.138,1.105-2.32.564-.909,10.616-10.562,13.707-13.2,8.091,10.7,22.781,30.158,23.206,30.792a.687.687,0,0,0,1.145-.757c-.479-.726-20.138-26.739-23.289-30.909,2.686-2.289,10.905-10.069,12.7-11.768l.575.078.024-.018.45.513c.308-.27,4.7-3.523,7.577-5.644l.623-.458-.016-.018,18.366-14.384c1.378,1.813,3.594,4.723,5.917,7.758-1.111.968-3.321,3.1-3.321,4.718,0,1.752,3.228,6.047,4.963,7.36a2.229,2.229,0,0,0,1.245.54,1.042,1.042,0,0,0,.286-.04c1-.284,3.159-2.051,4.239-2.978,1.024,1.3,1.721,2.155,1.875,2.284.4.33,1.053.906,1.836,1.614-3.617,3.159-15.654,13.739-16.326,15.2-1.079,2.335,11.912,17.388,12.071,17.479a5.424,5.424,0,0,0,2.307.295c.961,0,2.221-.053,3.833-.141.645-.035,1.16-.064,1.41-.064.771,0,2.234-1.082,6.8-5.038.968-.837,1.8-1.56,2.192-1.851.148-.11.425-.311.8-.583,11.52-8.344,12.99-10.616,12.863-11.827-.236-2.254-10.835-16.035-12.958-18.775a.687.687,0,1,0-1.086.842c6.121,7.9,12.537,16.823,12.678,18.067-.018.492-1.148,2.393-10.808,9.491a96.474,96.474,0,0,1-5.344-9.521,2.562,2.562,0,0,1,.487-1.245,5.157,5.157,0,0,0,.888-3.472c-.415-2.63-10.665-11.436-10.751-11.507-.427-.412-4.383-5.53-8.7-11.173v0h0c-2.144-2.8-4.377-5.727-6.313-8.274L654.054,151.8l.009.009,8.242-6.715c8.457,10.912,20.794,26.938,21.512,28.159a.687.687,0,0,0,1.328-.247c0-.307-.011-.7-21.774-28.78l10.252-8.355c1.4.267,7.432,1.421,15.566,2.96h0c6.887,1.3,15.273,2.881,23.625,4.43,11.482,2.131,20.643,3.791,27.231,4.931,7.935,1.375,11.038,1.861,12.308,1.861.808,0,.873-.2.971-.485.1-.306.559-2.524,1.747-8.321.375-1.836.828-4.038,1.306-6.348l17.411,2.9c1.183.751,5.561,2.674,13.048,5.735l.288.811a.684.684,0,0,0,.113.2l-32.785,13.483-2.472,5.326-18.952-4.595,2-9.81a.687.687,0,0,0-1.346-.275l-2.135,10.456-.772,3.342-28.067-3.882a.687.687,0,1,0-.189,1.362l13.057,1.806c.476,2.2,2.426,11.237,2.7,12.33a1.227,1.227,0,0,0,.6.767,3.044,3.044,0,0,0,1.483.293,14.862,14.862,0,0,0,3.5-.565.687.687,0,0,0-.366-1.325,8.971,8.971,0,0,1-3.9.428c-.3-1.239-1.976-8.991-2.566-11.729l13.463,1.861c-.656,3.384-3.338,17.492-2.918,20.572.46,3.373,6.687,19.2,7.05,20.124l12.738,43.95-15.7,4.727c-1.634-.088-8.072,1.328-37.508,10-18.164,5.349-36.433,10.939-36.616,10.995a.687.687,0,0,0,.4,1.313c24.052-7.362,58.815-17.7,70.05-20.352-10.713,4.132-45.538,14.459-69.734,21.352Zm-12.3-104.216c2.067,2.7,4.146,5.4,5.728,7.426a21.245,21.245,0,0,1-3.7,2.716c-1.028-.325-4.816-5.144-4.816-6.516,0-.837,1.488-2.478,2.784-3.626Zm17.372,26.231c.22,1.163,4.18,7.769,5.581,10.081l-.38.275c-.383.278-.666.483-.818.6-.427.32-1.238,1.023-2.266,1.912-1.7,1.469-5.232,4.527-5.906,4.7-.266,0-.806.027-1.486.064a34.249,34.249,0,0,1-5.344.051c-1.128-.879-11.233-13.76-11.506-15.8.892-1.332,10.07-9.545,16.058-14.774,3.083,2.848,7.25,6.954,7.435,8.133a3.93,3.93,0,0,1-.731,2.586,3.256,3.256,0,0,0-.638,2.172Zm41.423,65.7c24.1-7.406,27.047-9.074,27.546-9.776l15.442-4.65,4.823,16.639c-19.788,5.936-35.65,10.647-37.1,10.9-2.053.354-4.582.645-6.835.854Zm8.622,31.025-4.367-15.715c2.212-.209,4.658-.494,6.693-.847,1.518-.263,17.111-4.889,37.245-10.931l4.19,14.458Zm40.885-27.886c10.31-3.093,21.728-6.532,33.027-9.934,7.852-2.365,15.769-4.749,23.225-6.992l4.27,14.609-56.329,16.777Zm8.907,30.733-4.333-14.952,66.491-19.8,4.534,14.94Zm68.01-20.206L826.637,262.9a.67.67,0,0,0-.381-1.257l-4.436-14.617c16.057-4.816,27.987-8.36,28.8-8.479.394.027,3.679.623,8.992,1.617h.007c5.732,1.074,13.828,2.612,23.234,4.411-1.636,9.75-3.051,17.721-3.461,18.871-.119.1-.279.211-.464.346a15.866,15.866,0,0,0-1.872,1.535l-4.807.613-3.379-16.467a.687.687,0,1,0-1.346.275l3.379,16.472Zm25.143-5.944,15.52-4.552,4.013-.513a4.221,4.221,0,0,0-.568,2.318c.061,1.071,1.142,5.675,2.466,10.992-6.87,2.176-15.163,4.855-17.58,5.637-1.266-4.329-2.74-9.7-3.85-13.883ZM879.586,287.4c-6.011,2.2-15.152,5.421-17.012,5.757a56.745,56.745,0,0,1-2.011-6.032c2.327-.751,10.646-3.439,17.525-5.619C878.577,283.457,879.086,285.463,879.586,287.4Zm30.959-5.574c-4.743-1.172-20.9-5.095-22.964-4.658-.744.16-4.236,1.236-8.515,2.588-1.333-5.349-2.351-9.694-2.4-10.653a3.428,3.428,0,0,1,.98-2.381l34.623,6.678Zm1.989-9.772-16.152-3.115c1.4-6.473,3.968-17.815,5.012-20.812,4.963.955,10.066,1.937,15.206,2.928Zm14.875,2.869-13.526-2.61,4.065-21c4.772.92,9.564,1.844,14.293,2.758-1.59,7.369-4.052,18.374-4.832,20.849Zm-9.2-24.956,4.488-23.18,34.229,7-1.893,23.3c-9.625-1.863-22.927-4.436-36.824-7.114ZM186.015,289.676a.69.69,0,0,0-.925.293l-4.23,8.189h1.546l3.9-7.558a.687.687,0,0,0-.295-.925Zm-45.3,7.316c.549.013,1.183.037,1.824.071l-.527,1.074h1.531l.48-.978a10.9,10.9,0,0,1,2.381.348c.3.133.782.366,1.3.63h3c-.782-.408-2.893-1.505-3.749-1.886a9.217,9.217,0,0,0-2.289-.415l9.836-20.038a.687.687,0,0,0-1.233-.6L143.2,295.721c-.975-.059-1.865-.087-2.306-.1l-22.646-10.585a.687.687,0,0,0-.58,1.245l22.906,10.705Zm-17.851-37.062a.684.684,0,0,0-.9.353l-16.639,37.852h1.5l16.4-37.3a.687.687,0,0,0-.352-.9ZM26.852,246.367l10.159,5.146,3.228-11.227,2.141,5.53.946,1.829c-.608,1.323-4.7,10.259-5.677,13.07a70.653,70.653,0,0,1-4.278,8l-.568-.623v1.586c-1.424,2.408-2.743,4.566-3.291,5.457l-8.891-2.385a.687.687,0,1,0-.357,1.328l9.88,2.65.268-.436c.11-.177,1.108-1.795,2.392-3.93v4l-9.669,21.8h1.5l9.539-21.508V271.64l13.574,14.923a43.392,43.392,0,0,1-1.275,5.7c-.473,1.135-1.364,4.529-1.717,5.895h1.419c.387-1.492,1.163-4.4,1.566-5.366a48.9,48.9,0,0,0,1.416-6.332l.055-.33L34.34,269.778a74.738,74.738,0,0,0,4.606-8.616c.806-2.326,3.934-9.239,5.181-11.967l3.853,7.453.2.1c.146.07,14.54,7.1,16.78,8.411,1.61.943,4.271,5.909,5.422,8.268a27.188,27.188,0,0,0-4.436,5.413l-9.173,19.316H58.3l2.672-5.631,10.354,5.631h3.941l13.2-26.382c2.762,1.826,7.111,7.156,7.414,10.555.289,3.239-1.119,13.208-1.5,15.827h1.388c.428-2.936,1.779-12.6,1.481-15.95-.357-4.01-5.121-9.736-8.164-11.669l12.372-24.731a.687.687,0,1,0-1.229-.615L87.812,270c-3.988-1.1-13,.485-15.88,2.26-.15.092-.3.2-.446.3-1.018-2.064-3.785-7.383-5.829-8.579-2.164-1.267-14.824-7.462-16.666-8.361l-5.359-10.362L31.252,213.27v0l-4.9-12.663a.687.687,0,0,0-1.28.494l4.31,11.134-3.4-1.481-6.19-.574-1.329,25.755,8.389.689Zm45.8,27.06c2.461-1.515,10.973-3.04,14.54-2.188L73.824,297.957l-12.269-6.671,5.6-11.789c.026-.043,2.7-4.347,5.5-6.071ZM19.9,234.672l1.188-23,4.444.386,4.539,1.98,9.344,24.133L36.15,249.536l-7.925-4.01V235.357Z" transform="translate(-1.556 -5.131)"/>
    <path id="Path_404" data-name="Path 404" class="cls-4" d="M22.425,183.714a.687.687,0,0,0-.965.114l-6.093,7.719-1.859,14.116c-.007.092-.156,2.246-.388,5.576L0,199.977v1.811L13,212.95c-.192,2.778-.428,6.144-.678,9.724l-5.6,7.273L0,223.824v1.859l5.881,5.355L0,238.671v2.251l6.9-8.957,4.49,4.09c-.5,7.093-.93,13.187-1.088,15.231-.092,1.181-.245,3.577-.435,6.657L0,248.787v1.873l9.761,9.054c-.364,5.984-.824,13.874-1.209,20.551L0,272.711v1.833l8.451,7.464c-.3,5.2-.537,9.409-.628,11.012H9.2c.3-5.32,2.057-36.236,2.472-41.63.453-5.887,3.177-45.237,3.2-45.592l1.807-13.7,5.86-7.422a.687.687,0,0,0-.114-.964ZM11.511,234.308l-3.771-3.434,4.413-5.728c-.213,3.04-.43,6.165-.641,9.162ZM7.5,172.877a.687.687,0,0,0-.969.066C3.2,176.752,1.206,179.062,0,180.475v2.119c1.454-1.724,5.04-5.856,7.563-8.748a.687.687,0,0,0-.066-.969ZM3.507,97.77c-.255-.206-1.9-1.921-3.507-3.626v2c1.245,1.313,2.433,2.54,2.678,2.724a.67.67,0,0,0,.4.136.689.689,0,0,0,.426-1.231ZM68.432,0,59.479,10.506a.687.687,0,1,0,1.047.89L70.237,0ZM109.92,0,96.815,15.764C94.306,12.88,90.219,8.2,87.2,4.879L91.234,0H89.453L86.261,3.857A25.442,25.442,0,0,0,83.4.988c-.945-.473-1.526.381-1.838.84-.416.613-.652.874-1.126.809A16.538,16.538,0,0,1,76.336,0H74.11c2.2,1.767,4.992,3.846,6.147,4A2.484,2.484,0,0,0,82.7,2.6c.057-.084.133-.2.2-.282.394.352,1.3,1.309,2.481,2.606L72.231,20.812a.687.687,0,0,0,1.058.876L86.312,5.949c2.814,3.113,6.708,7.543,9.617,10.889L84.546,30.761a.687.687,0,0,0,1.064.87L97.353,17.265v0L111.706,0Z" transform="translate(0.002 0.006)"/>
    <path id="Path_405" data-name="Path 405" class="cls-4" d="M194.574,278.88,150.4,251.537,77.674,200.853a51.5,51.5,0,0,1,2.848-7.829c.531-1.152,1.233-2.393,1.976-3.708,1.889-3.342,4.029-7.13,4.258-11.075.3-5.3,2.9-27.212,3.64-30.042.068-.256.146-.571.233-.931.547-2.223,1.562-6.338,3.379-9.043l11.259,11.352a.687.687,0,0,0,.976-.968L94.864,137.139a4.239,4.239,0,0,1,3.108-1.551c3.9,0,12.535,5.162,18.248,8.579,2.072,1.239,3.862,2.307,5.091,2.943.842.435,1.8.859,2.817,1.264l-8.893,15.021a.687.687,0,1,0,1.181.7l9.013-15.224c4.59,1.666,9.969,2.86,12.254,2.742a60.82,60.82,0,0,1,8.966.9c-.958,10.319-2.273,26.4-2.057,29.184.3,3.908,4.557,28.427,4.738,29.469a.687.687,0,0,0,.676.57.67.67,0,0,0,.119-.009.687.687,0,0,0,.559-.795c-.046-.255-4.424-25.5-4.725-29.341-.213-2.763,1.1-18.794,2.046-28.99a.668.668,0,0,0,.11-1.163c.381-4.038.687-6.945.778-7.33.174-.729,1.917-4.317,3.455-7.482,1.458-3,2.833-5.833,3.336-7.124.845-2.175,14.192-19.3,19.265-25.711a.687.687,0,0,0-1.078-.852c-1.88,2.376-18.393,23.3-19.468,26.065-.482,1.239-1.909,4.178-3.289,7.021a79.5,79.5,0,0,0-3.555,7.761c-.094.387-.4,3.3-.783,7.356a60.882,60.882,0,0,0-9.165-.906c-2.809.152-11.073-1.976-15.674-4.349-1.19-.613-2.963-1.676-5.016-2.9-6.193-3.7-14.674-8.772-18.953-8.772a5.5,5.5,0,0,0-4.07,1.953l-6.006-6.056c1.178-4.88,3.633-15.417,3.168-16.7-.452-1.243-7.952-8.29-10.923-11.05,37.69-46.525,46.436-57.539,48.464-60.294a5.129,5.129,0,0,0,1.085.853c.735.471,1.179.755,1.134,1.911a24.208,24.208,0,0,1-.346,2.908c-.275,1.715-.536,3.335.064,4.62s.654,5.091.623,6.446a.687.687,0,0,0,.671.7h.018a.687.687,0,0,0,.687-.671c.012-.531.093-5.248-.751-7.059-.421-.9-.2-2.255.046-3.821a25.21,25.21,0,0,0,.363-3.072,3.113,3.113,0,0,0-1.765-3.122,2.118,2.118,0,0,1-1.225-1.5c-.528-2.772-.577-21.807-.073-23.119.576-1.05,5.465-13.217,5.465-14.405V0h-2.841L97.188,40.955a.687.687,0,0,0,1.049.885L133.223.391V2.719c-.115,1.051-4.6,12.506-5.3,13.776-.888,1.626-.412,22.251-.073,24.035.018.088.044.165.066.247l-.011.015c-.756,1.154-14.329,18.023-28.293,35.31L81.858,61.511c5.517-7.6,10.174-14.174,10.266-14.3a.687.687,0,1,0-1.121-.8c-.092.131-4.721,6.666-10.209,14.229L65.744,48.354c.753-.6,1.4-1.138,1.789-1.5.125-.115,12.187-12.768,11.644-14.764C78.86,30.927,58.424,14.449,40.279,0h-2.2c3.659,2.912,7.67,6.118,11.72,9.37l-3.775,5.92L38.154,25.834,15.315,7.191,21.191,0H19.417L14.251,6.324,6.5,0H4.331l9.052,7.389L1.58,21.837,0,20.553V22.32l.712.58L0,23.774v2.172l1.781-2.179C4.993,26.376,9.953,30.4,15.5,34.912L0,52.736v2.093l3.278-3.772c2.287,2.28,10.414,10.273,12.965,11.22a20.866,20.866,0,0,0,3.648.906c.387.071.751.14,1.1.214L8.641,76.809,0,70.078v1.742L15.371,83.794a33.92,33.92,0,0,1-5.314,3.665C8.92,87.425,2.56,82.38,0,80.075v1.808c2.255,1.961,5.375,4.322,5.423,4.358,2.926,2.161,4.036,2.594,4.628,2.594a1.118,1.118,0,0,0,.339-.051c1.346-.415,4.81-3.1,6.084-4.111,1.5,1.236,6.542,5.42,8.344,7.041C15.8,102.248,8.511,110.778,8.382,110.943c-.079.1-.2.26-.337.453L0,104.538v1.8l7.238,6.171c-1.9,2.642-5.425,7.652-7.239,10.233v2.388c.15-.214,5.7-8.112,8.286-11.729l7.224,6.158c-1.445,1.68-6.164,7.188-10.063,12l0,0,0,0c-.564.7-1.114,1.38-1.632,2.033-4.606,5.812-3.873,8.436-3.521,9.7.027.1.052.185.07.264C.768,145.4,30,165.9,30.388,166.172h0l0,0c4.768,3.324,12.3,7.99,19.407,12.274l.012.009.007,0c9.625,5.8,18.471,10.893,18.624,10.981l.2.115,2.339-.3-.444,6.614L18.483,158.961a89.154,89.154,0,0,0-9.167-5.7L0,148.232v1.56l8.664,4.679a87.8,87.8,0,0,1,9.026,5.609l52.74,37.394-.141,2.126c-.684,1.007-2.914,4.45-2.759,6.245.17,1.966,2.293,5.8,3.336,7.211a.687.687,0,1,0,1.106-.813c-1.117-1.52-2.942-5-3.074-6.519-.1-1.1,1.561-3.956,2.628-5.5l.107-.156.113-1.674,4.358,3.037a13.92,13.92,0,0,0-.481,4.915c.271,1.758,1.676,3.26,3.161,4.848a16.27,16.27,0,0,1,3.368,4.547c1.5,3.585-.027,12.44-.043,12.529a.687.687,0,1,0,1.353.238c.067-.38,1.615-9.344-.043-13.3a17.557,17.557,0,0,0-3.63-4.954c-1.337-1.428-2.6-2.779-2.806-4.118a11.674,11.674,0,0,1,.346-3.855l72.321,50.4,44.27,27.4L221.3,293.02h3.216ZM89.763,113.851c.181.952-1.509,8.936-3.26,16.165L77.8,141.037c-1.047-4.551-4.8-7.4-10.975-8.266-6.157-.867-9.46,1.442-12.374,3.477-.311.216-.618.43-.927.641-2.63,1.785-4.834,5.512-5.691,7.093l-.946-.7L62.745,124,62.739,124,79.272,103.44c4.3,3.994,10.1,9.6,10.488,10.411ZM76.682,142.714l-.765,25.148a13.151,13.151,0,0,1-7.357,6.662c-4.208,1.384-9.251.343-14.989-3.092l-.023-.013c-1.351-.76-4.351-6.206-5.967-9.544-.725-7.081.957-15.723,1.142-16.637.326-.643,2.751-5.3,5.567-7.211.315-.213.627-.432.943-.652,2.838-1.982,5.771-4.034,11.4-3.241,6.233.874,9.614,3.761,10.054,8.581Zm-30.589,17.7-6.614-5.906,6.592-10.114,1.236.912a67.627,67.627,0,0,0-1.216,15.108ZM45.8,142.446,28.476,128.357c1.752-2.148,8.564-10.493,16.054-19.657,2.208,2.351,13.527,12.837,16.333,15.43Zm35.25-79.821L98.756,77.171c-7.041,8.714-14.11,17.452-19.627,24.261l0,0-17.4,21.632c-6.235-5.763-15.144-14.09-16.326-15.434C53.924,97.2,63.093,86,66.566,81.814c3.376-4.075,9.228-11.967,14.481-19.19Zm-1.065-.872c-5.25,7.221-11.1,15.121-14.473,19.184-3.461,4.177-12.574,15.309-21.068,25.7-1.783-1.648-6.039-5.226-11.564-9.852-2.721-2.277-5.13-4.294-6.173-5.207,3.882-4.523,8.045-9.363,12.073-14.041l.006,0,0-.007C49.76,64.784,59.721,53.267,60.206,52.813c.589-.535,2.026-1.671,3.415-2.77l1.025-.81Zm-30.27.98c-3.369,3.9-7.352,8.534-11.495,13.356-2.541-2.326-13.325-12.181-14.572-13.116-.08-.06-.176-.1-.261-.152L34.7,50.525c7.27,5.911,13.222,10.749,15.012,12.207ZM35.633,49.514c1.655-1.8,7.211-7.731,9.923-9.321A17.073,17.073,0,0,0,49.172,36.6L63.556,48.344l-.787.621C61.3,50.13,59.905,51.23,59.282,51.8c-.4.366-3.8,4.264-8.671,9.9-1.831-1.491-7.753-6.307-14.98-12.181ZM77.8,32.456c-.737,1.939-9.7,12.022-11.191,13.392-.4.371-1.12.957-1.948,1.621L50.028,35.528c3.031-3.885,6.212-8.827,6.946-9.98a3.906,3.906,0,0,0,2.173.035c2.39-.648,3.951-3.467,4.615-4.933C71.127,26.647,76.815,31.379,77.8,32.456ZM50.872,10.233c4.058,3.26,8.1,6.524,11.784,9.516-.471,1.108-1.854,3.962-3.871,4.508a3.321,3.321,0,0,1-3.061-.976C51.6,19.8,48.483,16.657,47.45,15.593Zm-4.223,6.505C47.858,17.974,50.9,21,54.837,24.331a7.31,7.31,0,0,0,.879.635c-1.453,2.282-4.227,6.446-6.752,9.693L39.22,26.7ZM11.813,30.149l8.166-9.559a.687.687,0,1,0-1.044-.892l-8.188,9.583c-3.218-2.615-6.017-4.889-8.1-6.579l11.8-14.449,33.663,27.48a15.774,15.774,0,0,1-3.248,3.274c-2.936,1.721-8.669,7.861-10.3,9.636-7.355-5.981-15.873-12.906-22.751-18.5Zm8.323,31.683a19.75,19.75,0,0,1-3.415-.842C14.684,60.234,7.367,53.2,4.182,50.018L16.563,35.78c5.569,4.527,11.638,9.458,17.072,13.879L22.053,62.24c-.582-.165-1.227-.282-1.917-.407Zm-2.57,21.962.02-.016-7.86-6.124,12.706-13.8a2.5,2.5,0,0,1,.389.215c1.03.773,9.666,8.634,14.5,13.06-3.887,4.525-7.88,9.182-11.615,13.542-1.8-1.621-6.432-5.464-8.144-6.88Zm-8.472,28.5c.161-.22.293-.4.377-.508.657-.855,7.7-9.1,16.339-19.161,1.058.928,3.369,2.863,6.184,5.219,3.977,3.33,9.678,8.1,11.578,9.861-7.536,9.218-14.405,17.635-16.165,19.789l-10.493-8.534Zm7.471,8.153,28.417,23.11L38.01,154.248l-1.617,2.278L6.931,131.91c3.8-4.67,8.247-9.856,9.634-11.467ZM1.677,143.163c-.018-.073-.04-.153-.064-.238-.293-1.042-.9-3.21,3.274-8.474.377-.476.775-.971,1.179-1.474L35.6,157.65l-4.974,7.011c-12.1-8.453-27.8-20.008-28.945-21.5Zm30.074,22.28,6.948-9.794,7.655,6.837c.607,1.252,3.833,7.767,5.992,9.722l-2.478,4.679c-6.62-4-13.507-8.272-18.117-11.445ZM71.283,187.83l-2.355.306c-1.349-.778-9.245-5.343-17.882-10.539l2.445-4.619c5.851,3.357,11.068,4.314,15.52,2.844a13.8,13.8,0,0,0,6.823-5.139l-.275,9.056Zm5.192,12.187L71.852,196.8l.547-8.14,4.523-8.556,1.128-37.168L87.2,131.358l5.836,5.883c-2.078,2.946-3.152,7.319-3.736,9.7-.087.352-.162.659-.229.91-.781,2.967-3.367,24.809-3.684,30.312-.208,3.626-2.265,7.268-4.08,10.479-.757,1.34-1.472,2.607-2.026,3.811a55.844,55.844,0,0,0-2.8,7.565ZM260.615,0c-1.3,1.438-3.534,4.016-7.526,8.616-7.055,8.131-18.865,21.74-20.11,22.458-1.557.68-7.6.326-9.012-.022-1.763-.786-19.072-17.693-19.713-18.7-.073-.22-.162-1.251.559-6.083l.037-.275A54.957,54.957,0,0,1,209.654,0h-1.82c-2.143,2.484-4.232,5.052-4.331,5.741l-.048.324c-.612,4.1-.753,6.058-.487,6.766.361.961,18.838,19.093,20.62,19.539a33.28,33.28,0,0,0,5.814.467,12.055,12.055,0,0,0,4.128-.505c1.094-.478,7.514-7.739,20.6-22.817,3.611-4.161,7.045-8.121,8.327-9.515Z" transform="translate(0.002 0.007)"/>
    <path id="Path_406" data-name="Path 406" class="cls-4" d="M324.444,69.984c-2.971-.15-8.058-.639-9.053-1.311-1.016-.684-5.562-5.682-8.65-9.184,5.032-4.457,11.05-10.618,10.934-12.242-.159-2.237-11.415-13.165-14.861-16.46a.687.687,0,0,0-.95.993C308.8,38.412,316.1,46.05,316.3,47.318c-.156,1.387-6.267,7.424-10.966,11.58-.006,0-.013.005-.018.011s-.009.012-.015.018a31.057,31.057,0,0,1-5.121,4.01c-.866-.325-3.681-3.368-6.464-6.541a.685.685,0,0,0-.064-.263.673.673,0,0,0-.493-.374c-1.568-1.8-3.086-3.584-4.193-4.888-1.676-1.971-3-3.529-3.541-4.065-1.608-1.6-11.357-13.883-13.325-16.367C282.568,18.354,298.211,3.1,301.416-.007h-1.974c-7.258,7.053-36.142,35.515-38.206,43.631A128.372,128.372,0,0,0,259.443,57.7c-9.08-.344-15.954-.568-16.846-.471-1.8.2-4.135,3.44-6.776,7.334-.465.683-.856,1.262-1.137,1.635-1.551,2.067-5.2,24.649-6.086,33.649-.018.192-.039.4-.06.6l-18.217-.985a.7.7,0,0,0-.723.65.687.687,0,0,0,.648.722l18.146.982c-1.1,9.935-3.925,29.213-4.014,29.834l0,.012,0,.013-1.041,14.778a.687.687,0,0,0,.636.733.3.3,0,0,0,.049,0,.687.687,0,0,0,.684-.638l.919-13.071c3.26,3.912,12.892,15.349,17.965,19.942.394.357.775.742,1.143,1.145-13.492,14.8-13.5,15.652-13.5,15.971a3.443,3.443,0,0,0,.952,2.047c-.387.488-.619.808-.754,1.021l-.007.006-17.754,18.605c-3.52-3.931-7.113-7.673-8.085-7.822-1.932-.293-17.038,13.676-19.692,16.586-.894.98-1.1,1.344-.992,1.769.236.943,12.883,18.528,18.308,26.044a.687.687,0,1,0,1.113-.8c-6.757-9.363-16.85-23.481-18-25.408,1.566-2.124,16.8-15.941,19.091-16.8,1.877,1.018,13.194,13.927,14.84,16.28a10.234,10.234,0,0,1,1.273,2.9c.423,1.328.82,2.582,2.02,3.159,1.666.8,17.919,8.585,17.919,8.585l.593-1.238s-16.252-7.783-17.917-8.584c-.664-.32-.947-1.211-1.3-2.339a11.472,11.472,0,0,0-1.456-3.273c-.447-.637-3.482-4.285-6.794-8.028l17.166-17.992c.137.194.293.4.473.634a10.612,10.612,0,0,1,1.9,3.2c.375,1.251-.506,3.461-1.09,4.921a5.537,5.537,0,0,0-.65,2.292c.046.38.158,1.27,9.973,6.473a.687.687,0,0,0,.641-1.214c-4.056-2.152-8.5-4.736-9.239-5.516a13.6,13.6,0,0,1,.549-1.526c.694-1.736,1.642-4.116,1.129-5.823a11.7,11.7,0,0,0-2.124-3.648c-.247-.318-.543-.7-.659-.879.119-.174.344-.458.627-.8a2.534,2.534,0,0,0,.721.105c1.7,0,3.935-1.472,6.1-4.1,2.047-2.49,6.475-7.817,8.112-9.784a57.5,57.5,0,0,1,5.106,14.295c.451,2.188-1.212,7.957-4.946,17.15l-.266.655c-.973,2.436.493,7.792.663,8.394a.687.687,0,0,0,.661.5.7.7,0,0,0,.187-.025.687.687,0,0,0,.474-.848c-.428-1.514-1.388-5.814-.71-7.512l.263-.647c2.484-6.112,5.7-14.622,5.018-17.944-.25-1.213-2.2-10.108-6.519-16.8.066-.07.137-.146.2-.218a.685.685,0,0,0-.992-.943,20.512,20.512,0,0,0-2.838-3.236c-5.562-5.036-17.1-18.922-18.724-20.881.143-.989.623-4.3,1.218-8.521,3.732.186,19.144.952,19.677.952a.687.687,0,0,0,0-1.373c-.485,0-13.581-.65-19.484-.943.9-6.4,1.982-14.428,2.573-19.747l26.312,1.423c-.453,7.215-.776,12.718-.888,14.659-8.57-.4-20.913-1-21.657-1.1a.687.687,0,0,0-.3,1.34c.444.11,13.621.744,21.913,1.134v3.357a3.188,3.188,0,0,0-2.228,1.662c-.364.8-.639,4.391-1.051,10.213-.217,3.069-.421,5.97-.606,7.255-.345,2.417-3.749,5.818-5.033,6.925a.687.687,0,1,0,.9,1.04c.2-.176,5.008-4.351,5.5-7.771.19-1.334.4-4.258.615-7.354.271-3.827.641-9.068.932-9.74a1.614,1.614,0,0,1,.925-.782l-1.362,23.044h13.356v6.462a.687.687,0,1,0,1.373,0v-6.462h12.608l.055-.627c.024-.275,2.408-27.72,2.635-37.7.025-1.087.055-2.469.085-4.047l38.4,2.075h.038a.687.687,0,0,0,.037-1.372l-38.449-2.078c.262-13.33.684-38.354.689-38.646a.687.687,0,0,0-.675-.7.7.7,0,0,0-.7.675c0,.293-.426,25.257-.687,38.6l-24.96-1.351c.557-8.749,1.291-19.709,2.067-29.809h17.475l-.079-.758c-.086-.826-.425-3.587-1.192-4.482-.993-1.158-10.621-.65-11.348-.1-.2.149-.65.488-1.013,3.968h-3.736c.322-4.15.652-8.126.978-11.711,5.421.208,11.046.436,15.282.607,5.331.216,8.851.359,9.273.359,1.268,0,5.648-1.932,7.462-2.76,4.609,5.251,6.525,7,7.486,7a.567.567,0,0,0,.069,0c.666-.06,2.843-1.69,5.442-3.928,1.76,2,7.524,8.481,8.916,9.422,1.6,1.08,8.405,1.474,9.751,1.543h.037a.687.687,0,0,0,.033-1.372ZM247.475,158.31c-1.264,1.522-6.235,7.5-8.444,10.185-1.822,2.219-3.534,3.353-4.651,3.564,2.862-3.321,8.493-9.532,12.8-14.222.1.158.2.315.295.474Zm-1.852-2.688c.266.336.526.679.778,1.035-7.656,8.323-11.451,12.6-13.327,14.837a2.289,2.289,0,0,1-.463-.863c.714-1.313,8.083-9.6,13.011-15.007Zm36.854-50.886c-.033,1.6-.062,2.994-.087,4.091-.207,9.092-2.218,32.818-2.576,36.984H255.19l1.377-23.284-.046,0V118.7c.023-.381.382-6.594.934-15.318Zm-26.309-2.8-26.255-1.419.055-.535c.987-10,4.63-31.38,5.817-32.962.29-.386.7-.982,1.174-1.688,1.339-1.972,4.475-6.592,5.792-6.739.817-.092,8.286.159,16.567.473-1.157,12.677-2.341,30.117-3.15,42.869Zm9.163-33.951c1.432-.309,8.409-.544,9.48-.077a9.832,9.832,0,0,1,.736,2.921H264.838a17.492,17.492,0,0,1,.493-2.846Zm19.919-9.273c-.394,0-4.288-.157-9.217-.357-5.265-.213-10.5-.423-15.212-.6a126.684,126.684,0,0,1,1.746-13.787c.628-2.472,4.045-7.1,8.625-12.462,2.316,2.926,11.626,14.645,13.267,16.28.5.494,1.872,2.111,3.461,3.981,1.447,1.7,2.716,3.18,3.847,4.482-2.542,1.143-5.778,2.468-6.519,2.468ZM361.228,0c-2.287,2.193-6.739,6.249-9.76,8.968a.687.687,0,1,0,.917,1.021c.959-.863,8.513-7.664,10.8-9.989Zm39.207,5.162a.644.644,0,0,0-.053-.079.638.638,0,0,0-.055-.035C398.5,3.1,396.82,1.328,395.547,0H393.7c1.209,1.25,3.113,3.264,5.251,5.558-4.447,4.5-12.507,12.541-13.984,13.563-2.221,1.538-2.61,5.3-2.628,5.5l-1.645,39.692-27.35-1.938,2.89-51.092a.687.687,0,0,0-1.372-.077l-2.888,51.071-26.942-1.909a.687.687,0,1,0-.1,1.37l26.961,1.911-1.41,24.9a.687.687,0,0,0,.648.723l.039,0a.687.687,0,0,0,.687-.648l1.406-24.877L381.3,65.732h.049a.681.681,0,0,0,.256-.05.668.668,0,0,0,.075-.046.381.381,0,0,0,.2-.174.666.666,0,0,0,.086-.123.712.712,0,0,0,.03-.114.652.652,0,0,0,.037-.132l0-.009,0-.011,1.672-40.361c.088-.911.626-3.489,2.039-4.465C387.555,19,397.5,8.972,399.884,6.559c5.263,5.668,11.436,12.5,11.949,13.665v7.808a.687.687,0,0,0,1.373,0V20.143c0-1.1-7.047-8.867-12.773-14.981ZM498.278,0c1.459,1.562,3.377,4.244,3.293,5.26-.3,1.145-6.889,6.845-13.087,11.692a.687.687,0,0,0,.846,1.083C493.369,14.874,502.777,7.32,502.937,5.4c.106-1.286-1.318-3.6-2.832-5.4Zm35.892,0L499.923,29.913a.687.687,0,1,0,.9,1.035L535.666.517A.678.678,0,0,0,535.895,0Zm56.065,10.5c-12.044-.146-25.514-.726-26.7-1.467-.547-.6-.452-4.86-.024-9.035h-1.383c-.343,3.315-.711,8.758.394,9.964,1.319,1.438,19.81,1.816,27.7,1.912h.009a.687.687,0,0,0,.007-1.373Zm104.04,9.18c-7.078,0-15.117-.29-16.131-.831-1.184-.632-12.484-10.52-20.069-17.257.288-.473.6-1.007.948-1.6h-1.6a36.188,36.188,0,0,1-1.99,3.13c-1.511.085-11.813-.586-19.4-1.078-5.619-.363-10.473-.676-11.431-.676-.619,0-1.285-.586-1.894-1.376h-1.685c.9,1.392,2.137,2.75,3.578,2.75.916,0,5.747.311,11.344.673,2.743.178,5.086.326,7.124.454.772,9.468,4.044,49.1,4.954,50.913a22.959,22.959,0,0,0,2.626,3.369c1.636,1.9,4.109,4.774,4.169,5.966-.061,1.278-6.735,6.931-12.883,11.436a.687.687,0,0,0,.812,1.108c4.082-2.991,13.562-10.206,13.441-12.606-.076-1.547-1.914-3.794-4.5-6.8a24.125,24.125,0,0,1-2.432-3.073c-.449-1.126-1.772-14.917-3.075-29.785l25.33.493h.015a.687.687,0,0,0,.013-1.373l-25.478-.494c-.57-6.547-1.131-13.222-1.608-19.068,6.451.4,9.251.535,10.516.535.8,0,.989-.055,1.115-.13a6.486,6.486,0,0,0,1.251-1.593c3.6,3.2,18.543,16.426,20.162,17.291,1.767.941,14.174.993,16.8.993a.69.69,0,0,0,.74-.687.723.723,0,0,0-.757-.687Z" transform="translate(-15.597 0.007)"/>
    <path id="Path_407" data-name="Path 407" class="cls-4" d="M822.581,6.254,808.141,3.175,808.906,0h-1.412l-.7,2.889L795.38.455,795.474,0h-1.4L793.9.842l-.891,4.324L770.654,1.458,770.932,0h-1.4l-2.368,12.44-25.23-5.173a.687.687,0,0,0-.275,1.346l25.248,5.176-2.514,13.2-23.3-4.776a.687.687,0,0,0-.275,1.346l23.321,4.78-2.582,13.573v.007l-.544,2.852-7.948,5.445-13.281-3.868a.687.687,0,1,0-.385,1.319l13.386,3.9,5.6,6.887-5.177,19.708A.687.687,0,0,0,753.7,79a.7.7,0,0,0,.174.023.687.687,0,0,0,.665-.513l4.489-17.1,21.424,4.638-3.191,15.47a.687.687,0,0,0,.534.811.678.678,0,0,0,.139.015.687.687,0,0,0,.672-.549L781.79,66.34l27.874,6.034a.687.687,0,0,0,.29-1.342L782.067,65l.229-1.106,27.877,5.891a.712.712,0,0,0,.143.015.687.687,0,0,0,.14-1.359l-27.881-5.89,2.469-11.981,27.8,5.561a.665.665,0,0,0,.137.013.687.687,0,0,0,.133-1.36l-27.791-5.561.306-1.483,27.7,5.887a.687.687,0,1,0,.284-1.341l-27.7-5.889,2.689-13.038,27.583,5.655a.687.687,0,1,0,.275-1.347l-12.5-2.561,1.512-11.393c1.056.216,2.132.436,3.214.659h0c3.437.705,6.922,1.428,9.944,2.057a.687.687,0,1,0,.279-1.344c-.971-.2-4.768-.993-9.218-1.908l4.345-17.336,8.259,1.76a.687.687,0,0,0,.288-1.342ZM795.1,1.8l11.372,2.425-4.2,17.433c-5.183-1.051-9.7-1.941-10.289-1.975a1.791,1.791,0,0,1-.536-.174ZM770.4,2.805l22.332,3.706-2.536,12.293c-.729-.461-1.526-1.019-2.165-1.468a24.162,24.162,0,0,0-2.49-1.622c-1.447-.723-13.728-2.556-17.02-3.037ZM758.737,56.717l-4.551-5.6,6.46-4.425Zm21.989,7.99-21.352-4.622.258-.984,21.321,4.507Zm.5-2.445-21.294-4.5,2.241-11.771,21.524,4.3Zm2.747-13.311-21.543-4.31.336-1.763,21.514,4.574Zm.586-2.844-21.536-4.578,2.457-12.91L787.25,33.08Zm4.152-20.135v0l-1.187,5.759-21.786-4.466,2.521-13.242c6.18.9,15.657,2.414,16.663,2.915a24.257,24.257,0,0,1,2.315,1.52c1.035.725,1.914,1.328,2.66,1.773l-1.184,5.736Zm13.892,8.854L788.872,32.01l1.047-5.075,13.354,2.871Zm.848-6.386L790.2,25.591l.972-4.715a2.612,2.612,0,0,0,.737.179c.554.033,5.862,1.086,12.215,2.381Zm4.888-5.544c-1.551-.319-3.152-.646-4.72-.965l4.2-17.419,4.871,1.038Zm426,1.682c-3.54-.852-7.49-1.859-8.566-2.266a8.281,8.281,0,0,1,.884-2.653,46.609,46.609,0,0,1,7.682,1.309V19.556c-7.783-1.747-8.311-1.227-8.573-.965-.727.727-1.646,3.637-1.267,4.441.156.334.336.711,9.84,2.963Z" transform="translate(-62.346 0.006)"/>
  </g>
  <g id="основные_дороги" data-name="основные дороги" transform="translate(0.002 0.003)">
    <path id="Path_408" data-name="Path 408" class="cls-4" d="M634.616,0l-66.7,59.633a91.151,91.151,0,0,0-21.1,27.977L447.276,291.8A2.734,2.734,0,0,0,447,293h5.8L551.756,90.017a85.674,85.674,0,0,1,19.826-26.294L642.859,0Z" transform="translate(-37.717 0.004)"/>
    <path id="Path_409" data-name="Path 409" class="cls-4" d="M479.684,0a2.738,2.738,0,0,0,.69,1.822c.852.961,85.27,96.268,94.333,106.238,9.248,10.173,74.773,92.072,78.491,97.647a136.959,136.959,0,0,1,15.23,32.257C672.188,250,681.646,282.271,684.781,293h5.724c-2.554-8.735-12.857-43.943-16.835-56.672a142.94,142.94,0,0,0-15.9-33.667c-3.747-5.62-69.7-88.066-79-98.295C570.43,95.188,497.893,13.313,486.1,0ZM618.857,284.758a2.734,2.734,0,0,1-1.206-.28L361.3,158.955a44.357,44.357,0,0,0-18.279-4.527l-48.579-1.471a2.747,2.747,0,1,1,.168-5.491l48.578,1.472a49.812,49.812,0,0,1,20.53,5.085L620.069,279.545a2.747,2.747,0,0,1-1.211,5.213ZM458.051,0,425.51,28.259l6,6.913L472.017,0H458.051Z" transform="translate(-24.62 0.004)"/>
    <path id="Path_410" data-name="Path 410" class="cls-4" d="M201.155,297.008c5.112-9.964,34.524-67.341,39.482-78.084,5.2-11.258,17.362-37.617,27.8-50.907C275.057,159.6,397.424,52.488,402.629,47.931a2.747,2.747,0,1,1,3.617,4.135C362.281,90.539,277.8,164.994,272.761,171.412c-10.044,12.782-22.021,38.731-27.135,49.813-4.745,10.281-30.675,60.923-38.285,75.761ZM418.785,51.833l4.157-3.589,82.131,95.173-4.16,3.589ZM407.945,118.44l-.1,0a1.831,1.831,0,0,1-1.726-1.932l3.435-60.978a1.831,1.831,0,0,1,3.657.205l-3.436,60.979a1.831,1.831,0,0,1-1.827,1.729Z" transform="translate(-16.973 -3.983)"/>
    <path id="Path_411" data-name="Path 411" class="cls-4" d="M314.158,0,305.13,151.08l5.485.328,8.9-148.963,69.21,33.762,2.408-4.937L327.036,0ZM45.942,0C58.713,10.308,226.034,145.366,236.518,154.1c11.7,9.753,20.739,22.316,24.79,34.468,2.256,6.766,2.1,11.836-.455,15.066-3.77,4.761-11.736,4.435-14.088,4.219-11.363-1.035-19.653,8.531-20,8.938a2.747,2.747,0,1,0,4.175,3.571c.068-.079,6.829-7.81,15.33-7.037,3.9.354,13.558.453,18.889-6.281,3.781-4.774,4.239-11.575,1.361-20.214-4.365-13.093-14.018-26.56-26.485-36.95C230.3,141.772,86.212,25.447,54.687,0Z" transform="translate(-3.876 0.004)"/>
    <path id="Path_412" data-name="Path 412" class="cls-4" d="M251.226,211.566a15.492,15.492,0,0,1-13.689-7.8c-3.119-5.2-1.792-14.586-.555-16l1.314-1.505,1.84.786a2.747,2.747,0,0,1,1.506,3.446c-.4,1.59-1.166,7.5.606,10.452,1.258,2.1,5.033,6.739,12.915,4.571a2.747,2.747,0,1,1,1.456,5.3,20.366,20.366,0,0,1-5.393.758Zm-10.972-19.53v0Zm0,0h0Zm.565-.366a2.759,2.759,0,0,1-.564.366,2.738,2.738,0,0,0,.563-.366ZM0,171.673l110.237,80.046a102.57,102.57,0,0,0,16.976,9.984L194.506,293h13.029L129.53,256.722a97.031,97.031,0,0,1-16.065-9.449L0,164.883ZM956.3,293l61.75-293h5.624L961.921,293h-5.615Z" transform="translate(0 0.004)"/>
    <path id="Path_413" data-name="Path 413" class="cls-4" d="M702.9,248.056a2.747,2.747,0,0,1-.885-5.347l161.464-54.892a55.37,55.37,0,0,1,28.446-1.907l146.042,28.659a2.748,2.748,0,0,1-1.061,5.393L890.875,191.3a49.877,49.877,0,0,0-25.621,1.718L703.789,247.907a2.744,2.744,0,0,1-.884.146Z" transform="translate(-59.078 -15.596)"/>
    <path id="Path_414" data-name="Path 414" class="cls-4" d="M992.155,0,955.768,187.363a2.747,2.747,0,1,0,5.391,1.047L997.758,0ZM898.232,0,878.564,93.32a47.948,47.948,0,0,0-.854,14.032l5.625,65.025a2.29,2.29,0,0,0,2.278,2.091c.067,0,.133,0,.2-.009a2.289,2.289,0,0,0,2.082-2.477l-5.626-65.024a43.355,43.355,0,0,1,.773-12.693L902.909,0ZM826.513,0,798.876,141.788a2.289,2.289,0,1,0,4.493.876L831.176,0Z" transform="translate(-67.404 0.004)"/>
    <path id="Path_415" data-name="Path 415" class="cls-4" d="M712.875,0,708.6,75.722l318.486,62.347,4.411.837a2.289,2.289,0,1,0,.854-4.5l-4.4-.833L713.4,71.995,717.46,0Zm481.663,293.024-83.283-17.248a2.747,2.747,0,1,1,1.113-5.379l82.557,17.1,12.34-12.339v7.768L1197.183,293ZM430.941,51.815A12.958,12.958,0,1,1,443.9,38.857a12.958,12.958,0,0,1-12.958,12.957Zm0-21.795a8.838,8.838,0,1,0,8.838,8.838,8.838,8.838,0,0,0-8.838-8.838Z" transform="translate(-35.269 0.004)"/>
    <path id="Path_416" data-name="Path 416" class="cls-4" d="M411.239,47.843a1.831,1.831,0,0,1-1.2-3.214l16.426-14.3a1.831,1.831,0,1,1,2.4,2.763l-16.427,14.3a1.825,1.825,0,0,1-1.2.45Zm-93.3,83.261a2.747,2.747,0,0,1-2.747-2.747v-4.15l42.782-38.079L363.76,84.4a2.747,2.747,0,1,1,1.57,5.265l-4.611,1.375-40.031,35.629v1.685a2.747,2.747,0,0,1-2.747,2.747ZM981.87,0,1045.2,12.549a1.831,1.831,0,1,1-.712,3.592L963.018,0ZM282.246,188.613c-1.135-24.676-.039-26.266.323-26.787.778-1.126,3.914-2.79,19.988-9.9,2.06-.911,4.173-1.846,5.343-2.384a53.148,53.148,0,0,0-4.8-8.186l3.014-2.081c4.074,5.9,5.949,9.774,5.573,11.509a2.258,2.258,0,0,1-1.038,1.481c-.511.307-2.126,1.028-6.611,3.012-5.369,2.374-16.3,7.208-18.38,8.636-.441,2.411-.232,14.093.249,24.53ZM285.434,164.083ZM534.45,92.474a1.831,1.831,0,0,1-1.644-2.637c.179-.364,4.459-8.941,12.462-9.9,5.585-.666,11.357,2.541,17.156,9.532a1.832,1.832,0,0,1-2.82,2.339c-4.953-5.974-9.632-8.741-13.9-8.233-6.043.722-9.568,7.8-9.6,7.869a1.831,1.831,0,0,1-1.646,1.027Z" transform="translate(-23.773 0.004)"/>
    <path id="Path_417" data-name="Path 417" class="cls-4" d="M588.123,98.769a1.827,1.827,0,0,1-1.37-.615c-16.607-18.693-2.253-37.012-2.106-37.2a1.832,1.832,0,1,1,2.857,2.294c-.542.681-12.517,16.142,1.987,32.47a1.831,1.831,0,0,1-1.367,3.046Z" transform="translate(-48.834 -5.082)"/>
    <path id="Path_418" data-name="Path 418" class="cls-4" d="M569.416,68.9A26.174,26.174,0,0,1,554.7,64.2a1.831,1.831,0,0,1,2.254-2.886c.558.432,13.56,10.209,27.856-2.576a1.832,1.832,0,0,1,2.441,2.731c-6.345,5.672-12.565,7.432-17.839,7.432Z" transform="translate(-46.745 -4.914)"/>
    <path id="Path_419" data-name="Path 419" class="cls-4" d="M556.68,93.683a1.831,1.831,0,0,1-1.735-2.42c.079-.227,7.6-22.913-2.319-34.1a1.832,1.832,0,1,1,2.74-2.432c11.335,12.782,3.391,36.7,3.049,37.707A1.831,1.831,0,0,1,556.68,93.683ZM619.059,0l-1.27,24.064a2.747,2.747,0,0,0,2.6,2.888c.05,0,.1,0,.147,0a2.747,2.747,0,0,0,2.741-2.6L624.559,0Z" transform="translate(-46.591 0.004)"/>
    <circle id="Ellipse_2" data-name="Ellipse 2" class="cls-4" cx="5.151" cy="5.151" r="5.151" transform="translate(429.162 242.143)"/>
    <path id="Path_420" data-name="Path 420" class="cls-4" d="M273.934,172.581c-11.729,0-21.357-7.09-21.5-7.2l2.2-2.927h0c.818.613,19.588,14.343,35.347.105l2.457,2.719a26.9,26.9,0,0,1-18.5,7.3Z" transform="translate(-21.3 -13.704)"/>
  </g>
</svg>
