<svg xmlns="http://www.w3.org/2000/svg" viewBox="0 0 17 16">
  <defs>
    <style>
      .cls-1 {
        fill: #fff;
      }

      .cls-2, .cls-4 {
        fill: #6a7b87;
      }

      .cls-3, .cls-4 {
        stroke: none;
      }
    </style>
  </defs>
    <g id="grey" transform="translate(-716.002 -733)">
    <g id="Union_40" data-name="Union 40" class="cls-1" transform="translate(-4882 5465)">
      <path class="cls-3" d="M 5600.10107421875 -4716.50048828125 C 5600.01513671875 -4716.50048828125 5599.9345703125 -4716.50244140625 5599.859375 -4716.505859375 C 5600.0556640625 -4717.0390625 5600.33203125 -4717.90771484375 5600.5869140625 -4719.126953125 L 5600.64111328125 -4719.3857421875 L 5600.4580078125 -4719.576171875 C 5599.19677734375 -4720.88623046875 5598.501953125 -4722.56298828125 5598.501953125 -4724.2978515625 C 5598.501953125 -4728.26953125 5602.09033203125 -4731.50048828125 5606.5009765625 -4731.50048828125 C 5610.91259765625 -4731.50048828125 5614.501953125 -4728.26953125 5614.501953125 -4724.2978515625 C 5614.501953125 -4720.32470703125 5610.91259765625 -4717.09228515625 5606.5009765625 -4717.09228515625 C 5605.5361328125 -4717.09228515625 5604.591796875 -4717.24609375 5603.693359375 -4717.548828125 L 5603.4560546875 -4717.62890625 L 5603.25 -4717.48681640625 C 5602.0673828125 -4716.67138671875 5600.884765625 -4716.50048828125 5600.10107421875 -4716.50048828125 Z"/>
      <path class="cls-4" d="M 5600.56103515625 -4717.02197265625 C 5601.2373046875 -4717.08447265625 5602.1015625 -4717.30224609375 5602.9658203125 -4717.8984375 L 5603.37841796875 -4718.18310546875 L 5603.853515625 -4718.02294921875 C 5604.69970703125 -4717.7373046875 5605.5908203125 -4717.59228515625 5606.5009765625 -4717.59228515625 C 5610.63720703125 -4717.59228515625 5614.001953125 -4720.6005859375 5614.001953125 -4724.2978515625 C 5614.001953125 -4727.99365234375 5610.63720703125 -4731.00048828125 5606.5009765625 -4731.00048828125 C 5602.3662109375 -4731.00048828125 5599.001953125 -4727.99365234375 5599.001953125 -4724.2978515625 C 5599.001953125 -4722.69287109375 5599.64697265625 -4721.13916015625 5600.81787109375 -4719.92333984375 L 5601.1845703125 -4719.54248046875 L 5601.07666015625 -4719.02490234375 C 5600.90576171875 -4718.20849609375 5600.72412109375 -4717.54150390625 5600.56103515625 -4717.02197265625 M 5600.10107421875 -4716.00048828125 C 5599.5166015625 -4716.00048828125 5599.14794921875 -4716.08837890625 5599.14794921875 -4716.08837890625 C 5599.14794921875 -4716.08837890625 5599.65478515625 -4717.11083984375 5600.09765625 -4719.2294921875 C 5598.79296875 -4720.58447265625 5598.001953125 -4722.357421875 5598.001953125 -4724.2978515625 C 5598.001953125 -4728.55224609375 5601.806640625 -4732.00048828125 5606.5009765625 -4732.00048828125 C 5611.19482421875 -4732.00048828125 5615.001953125 -4728.55224609375 5615.001953125 -4724.2978515625 C 5615.001953125 -4720.04150390625 5611.19482421875 -4716.59228515625 5606.5009765625 -4716.59228515625 C 5605.45751953125 -4716.59228515625 5604.45849609375 -4716.76318359375 5603.53369140625 -4717.0751953125 C 5602.2392578125 -4716.1826171875 5600.9443359375 -4716.00048828125 5600.10107421875 -4716.00048828125 Z"/>
    </g>
    <circle id="Ellipse_243" data-name="Ellipse 243" class="cls-2" cx="1" cy="1" r="1" transform="translate(719.6 739.7)"/>
    <circle id="Ellipse_244" data-name="Ellipse 244" class="cls-2" cx="1" cy="1" r="1" transform="translate(723.401 739.7)"/>
    <circle id="Ellipse_245" data-name="Ellipse 245" class="cls-2" cx="1" cy="1" r="1" transform="translate(727.201 739.7)"/>
  </g>
</svg>
