<svg xmlns="http://www.w3.org/2000/svg" viewBox="1757 -63 12 14">
  <defs>
    <style>
      .cls-1 {
        fill: #fff;
      }

      .cls-2, .cls-3 {
        stroke: none;
      }

      .cls-3 {
        fill: #669ed9;
      }
    </style>
  </defs>
  <g id="Path_589" data-name="Path 589" class="cls-1" transform="translate(1667.8 -950.3)">
    <path class="cls-2" d="M 96.50951385498047 900.1784057617188 L 93.79523468017578 897.7392578125 L 93.79523468017578 893.511962890625 L 93.79523468017578 893.278564453125 L 93.61631774902344 893.128662109375 L 89.69999694824219 889.8480224609375 L 89.69999694824219 887.7999267578125 L 100.6999969482422 887.7999267578125 L 100.6999969482422 889.8445434570313 L 96.69278717041016 893.1250610351563 L 96.50951385498047 893.275146484375 L 96.50951385498047 893.511962890625 L 96.50951385498047 900.1784057617188 Z"/>
    <path class="cls-3" d="M 96.00951385498047 899.0568237304688 L 96.00951385498047 893.511962890625 L 96.00951385498047 893.0382690429688 L 96.37606048583984 892.7381591796875 L 100.1999969482422 889.6077270507813 L 100.1999969482422 888.2999267578125 L 90.19999694824219 888.2999267578125 L 90.19999694824219 889.6146240234375 L 93.93738555908203 892.745361328125 L 94.29523468017578 893.045166015625 L 94.29523468017578 893.511962890625 L 94.29523468017578 897.516357421875 L 96.00951385498047 899.0568237304688 M 97.00951385498047 901.2999267578125 L 93.29523468017578 897.962158203125 L 93.29523468017578 893.511962890625 L 89.19999694824219 890.0814208984375 L 89.19999694824219 887.2999267578125 L 101.1999969482422 887.2999267578125 L 101.1999969482422 890.0814208984375 L 97.00951385498047 893.511962890625 L 97.00951385498047 901.2999267578125 Z"/>
  </g>
</svg>
