<svg xmlns="http://www.w3.org/2000/svg" width="38" height="44" viewBox="0 0 6243 7248" shape-rendering="geometricPrecision" text-rendering="geometricPrecision" image-rendering="optimizeQuality" fill-rule="evenodd" clip-rule="evenodd"><defs><style>.str0{stroke:#aaacae;stroke-width:329.218}.fil2{fill:none}.fil0,.fil1{fill:#aaacae}.fil1{fill-opacity:.501961}</style></defs><g id="Слой_x0020_1"><g id="_2686052231376"><path class="fil0" d="M3608 3932c6-44 10-88 10-135s-4-91-10-135l290-227c26-20 33-57 17-88l-275-475c-17-31-54-42-84-31l-343 138c-71-55-148-101-232-135l-52-364c-5-34-34-58-68-58h-550c-34 0-63 24-67 58l-53 364c-83 34-160 81-232 135l-342-138c-32-12-68 0-84 31l-275 475c-18 31-10 68 16 88l290 227c-5 44-9 90-9 135 0 46 4 91 9 135l-290 227c-26 20-33 58-16 88l275 476c16 30 53 41 84 30l342-138c72 56 149 101 232 135l53 365c4 33 33 58 67 58h550c34 0 63-25 68-58l52-365c84-34 161-81 232-135l343 138c31 12 67 0 84-30l275-476c16-30 9-68-17-88l-290-227zm-1022 346c-265 0-481-215-481-481 0-265 216-481 481-481 266 0 481 216 481 481 0 266-215 481-481 481z"/><path class="fil1" d="M2482 1377c5-40 9-80 9-123s-4-83-9-123l265-207c24-19 30-52 15-80l-251-434c-15-28-49-38-76-28l-313 126c-65-50-135-92-212-123l-47-332c-4-30-30-53-62-53h-501c-32 0-58 23-62 53l-48 332c-76 31-146 74-211 123L666 382c-28-11-61 0-76 28L339 844c-16 28-9 61 15 80l265 207c-5 40-9 82-9 123s4 83 9 123l-265 207c-24 19-30 53-15 80l251 434c15 28 49 38 76 28l313-126c65 50 135 92 211 123l48 332c4 30 30 53 62 53h501c32 0 58-23 62-53l47-332c77-31 147-74 212-123l312 126c29 11 62 0 77-28l251-434c15-27 9-61-15-80l-265-207zm-932 316c-241 0-438-197-438-439s197-439 438-439c243 0 439 197 439 439s-196 439-439 439z"/><path class="fil2 str0" d="M6130 7129L4448 5537M2586 1376c1337 0 2421 1084 2421 2421S3923 6218 2586 6218 165 5134 165 3797s1084-2421 2421-2421z"/></g></g></svg>