<?xml version="1.0" encoding="UTF-8"?>
<!DOCTYPE svg PUBLIC "-//W3C//DTD SVG 1.1//EN" "http://www.w3.org/Graphics/SVG/1.1/DTD/svg11.dtd">
<!-- Creator: CorelDRAW X8 -->
<svg xmlns="http://www.w3.org/2000/svg" xml:space="preserve" width="25px" height="16px" version="1.1" style="shape-rendering:geometricPrecision; text-rendering:geometricPrecision; image-rendering:optimizeQuality; fill-rule:evenodd; clip-rule:evenodd"
viewBox="0 0 20417 12847"
 xmlns:xlink="http://www.w3.org/1999/xlink">
 <defs>
  <style type="text/css">
   <![CDATA[
    .fil0 {fill:#5A506B}
    .fil1 {fill:#5A506B;fill-rule:nonzero}
   ]]>
  </style>
 </defs>
 <g id="Слой_x0020_1">
  <metadata id="CorelCorpID_0Corel-Layer"/>
  <g id="_3122316079936">
   <g>
    <path class="fil0" d="M3592 6117c1733,0 3138,1405 3138,3138 0,1733 -1405,3138 -3138,3138 -1733,0 -3138,-1405 -3138,-3138 0,-1733 1405,-3138 3138,-3138zm0 972c1196,0 2166,970 2166,2166 0,1196 -970,2166 -2166,2166 -1196,0 -2166,-970 -2166,-2166 0,-1196 970,-2166 2166,-2166z"/>
    <path class="fil1" d="M3592 5663c991,0 1890,402 2540,1052 649,650 1052,1548 1052,2540 0,990 -402,1887 -1052,2538 -653,652 -1550,1054 -2540,1054 -992,0 -1890,-403 -2540,-1053 -650,-649 -1052,-1548 -1052,-2539 0,-991 402,-1889 1052,-2538 652,-652 1549,-1054 2540,-1054zm1898 1694c-485,-485 -1157,-786 -1898,-786 -742,0 -1414,301 -1899,785 -484,485 -785,1157 -785,1899 0,741 301,1412 786,1897 486,486 1157,787 1898,787 742,0 1413,-300 1898,-785 486,-486 786,-1157 786,-1899 0,-741 -301,-1412 -786,-1898zm-1898 -722c721,0 1376,293 1850,768 476,476 770,1131 770,1852 0,721 -294,1376 -768,1850 -476,476 -1131,770 -1852,770 -721,0 -1376,-294 -1851,-768 -476,-476 -769,-1131 -769,-1852 0,-721 293,-1376 768,-1851 476,-476 1131,-769 1852,-769zm1211 1408c-309,-309 -737,-500 -1211,-500 -474,0 -902,191 -1210,500 -311,310 -502,738 -502,1212 0,473 191,902 500,1210 310,310 738,502 1212,502 474,0 902,-192 1210,-500 310,-310 502,-739 502,-1212 0,-474 -192,-902 -501,-1212z"/>
   </g>
   <g>
    <path class="fil0" d="M16825 6117c1733,0 3138,1405 3138,3138 0,1733 -1405,3138 -3138,3138 -1733,0 -3138,-1405 -3138,-3138 0,-1733 1405,-3138 3138,-3138zm0 972c1196,0 2165,970 2165,2166 0,1196 -969,2166 -2165,2166 -1196,0 -2166,-970 -2166,-2166 0,-1196 970,-2166 2166,-2166z"/>
    <path class="fil1" d="M16825 5663c991,0 1890,402 2539,1052 650,650 1053,1548 1053,2540 0,990 -403,1887 -1053,2538 -652,652 -1550,1054 -2539,1054 -992,0 -1890,-403 -2540,-1053 -650,-649 -1052,-1548 -1052,-2539 0,-991 402,-1889 1052,-2538 651,-652 1549,-1054 2540,-1054zm1897 1694c-485,-485 -1156,-786 -1897,-786 -742,0 -1414,301 -1899,785 -484,485 -785,1157 -785,1899 0,741 301,1412 786,1897 485,486 1157,787 1898,787 742,0 1413,-300 1897,-785 486,-486 787,-1157 787,-1899 0,-741 -301,-1412 -787,-1898zm-1897 -722c721,0 1375,293 1850,768 476,476 769,1131 769,1852 0,721 -293,1376 -767,1850 -477,476 -1131,770 -1852,770 -722,0 -1376,-294 -1851,-768 -476,-476 -769,-1131 -769,-1852 0,-721 293,-1376 767,-1851 477,-476 1131,-769 1853,-769zm1211 1408c-309,-309 -738,-500 -1211,-500 -474,0 -902,191 -1211,500 -310,310 -501,738 -501,1212 0,473 191,902 500,1210 310,310 738,502 1212,502 473,0 902,-192 1210,-500 310,-310 501,-739 501,-1212 0,-474 -191,-902 -500,-1212z"/>
   </g>
   <path class="fil0" d="M20062 8549l0 368c-22,413 -120,812 -299,1145 -584,1088 -1539,1667 -2524,1763l-591 0c-697,-68 -1375,-376 -1911,-915 -1051,-1055 -1226,-2704 -407,-3931 344,-515 571,-674 1071,-1009 -46,-197 -624,-1616 -732,-1695 -41,157 -715,925 -842,1084 -660,829 -1301,1724 -1942,2487 -422,502 -987,768 -1614,929 -429,111 -2054,46 -2535,46 0,-954 -385,-1888 -838,-2398 -1631,-1836 -3468,-844 -5051,-1343 -728,-230 -1506,-948 -1506,-1691l8204 0c201,0 1369,-1738 1597,-1830 131,-52 3008,-18 3410,-18 -61,-267 -288,-607 -308,-848 -971,0 -1942,0 -2913,0 -524,0 -565,-693 0,-693l3144 0c205,0 285,133 343,273l505 1229 2118 0 0 2465 -1078 0 346 848c62,154 117,271 182,434 54,136 178,364 207,485 442,0 1427,-315 2685,656 337,259 650,366 878,752 237,401 374,902 401,1407zm-3212 2717c-847,0 -1863,-1299 -2093,-1939 -258,-722 353,-2224 1005,-2661l313 853 289 724c204,515 256,808 655,808 100,0 270,-117 270,-346 0,-210 -391,-1034 -512,-1337 -36,-89 -65,-142 -98,-219 -19,-45 -181,-404 -160,-428 1003,-1103 5592,3655 331,4545zm-3644 -5912l-4276 0 0 -809 4969 0c-103,153 -197,268 -317,415l-260 318c-53,53 2,76 -116,76zm886 -1117l-5046 0c-154,0 -116,-109 -116,-386l5547 0c-59,88 -269,386 -385,386zm-308 -2234c80,345 567,1330 616,1541l-5316 0 1030 -1282c215,-242 96,-265 549,-260 1038,11 2082,1 3121,1z"/>
  </g>
 </g>
</svg>
