<svg xmlns="http://www.w3.org/2000/svg" width="33" height="14" viewBox="0 0 31871 13644" shape-rendering="geometricPrecision" text-rendering="geometricPrecision" image-rendering="optimizeQuality" fill-rule="evenodd" clip-rule="evenodd"><defs><style>.fil0,.fil1{fill:#5a506b}.fil1{fill-rule:nonzero}</style></defs><g id="Слой_x0020_1"><g id="_3122310671152"><path class="fil0" d="M24530 8980c1200 0 2174 974 2174 2174s-974 2173-2174 2173-2173-973-2173-2173 973-2174 2173-2174zm0 674c829 0 1500 671 1500 1500 0 828-671 1500-1500 1500-828 0-1500-672-1500-1500 0-829 672-1500 1500-1500z"/><path class="fil1" d="M24530 8663c688 0 1311 279 1761 730 450 450 730 1073 730 1761 0 686-280 1309-730 1759-452 452-1075 731-1761 731-687 0-1310-279-1761-730-450-450-729-1073-729-1760s279-1310 729-1760c452-452 1075-731 1761-731zm1313 1178c-336-335-800-544-1313-544-512 0-976 208-1312 543-337 337-544 801-544 1314 0 512 208 977 544 1312 335 336 800 544 1312 544 513 0 978-208 1313-543 336-336 544-800 544-1313s-209-977-544-1313zm-1313-504c501 0 955 203 1284 532 330 330 533 784 533 1285 0 500-203 955-532 1283-330 330-784 534-1285 534s-955-204-1283-532c-330-330-534-785-534-1285 0-501 204-955 532-1284 330-330 784-533 1285-533zm838 980c-215-214-511-346-838-346-326 0-622 132-836 345-215 215-347 511-347 838 0 326 132 622 345 836 216 215 512 347 838 347 327 0 623-133 837-345 214-216 346-512 346-838 0-327-132-623-345-837z"/><path class="fil0" d="M5958 8980c1201 0 2174 974 2174 2174s-973 2173-2174 2173c-1200 0-2173-973-2173-2173s973-2174 2173-2174zm0 674c829 0 1501 671 1501 1500 0 828-672 1500-1501 1500-828 0-1500-672-1500-1500 0-829 672-1500 1500-1500z"/><path class="fil1" d="M5958 8663c688 0 1311 279 1761 730 451 450 730 1073 730 1761 0 686-280 1309-730 1759-452 452-1074 731-1761 731s-1310-279-1760-730c-451-450-730-1073-730-1760s279-1310 730-1760c451-452 1074-731 1760-731zm1313 1178c-336-335-800-544-1313-544-512 0-976 208-1312 543-336 337-544 801-544 1314 0 512 208 977 544 1312 336 336 800 544 1312 544 514 0 978-208 1313-543 336-336 544-800 544-1313s-208-977-544-1313zm-1313-504c501 0 955 203 1284 532 330 330 534 784 534 1285 0 500-204 955-533 1283-330 330-784 534-1285 534-500 0-955-204-1283-532-330-330-534-785-534-1285 0-501 204-955 533-1284 329-330 784-533 1284-533zm838 980c-215-214-511-346-838-346-326 0-622 132-836 345-215 215-347 511-347 838 0 326 133 622 346 836 215 215 511 347 837 347 327 0 623-133 837-345 214-216 347-512 347-838 0-327-132-623-346-837z"/><path class="fil0" d="M1926 4974C3553 2769 5578 1371 7997 635c2426-737 5241-803 8443-349 1289 182 2866 781 4333 1531 1579 808 3042 1796 3883 2632 1610 302 3337 692 4698 1450 1440 802 2464 2004 2515 3913l2 85h-4612c-232-503-600-932-1057-1239-477-320-1052-507-1672-507-611 0-1178 181-1650 492-450 296-816 712-1053 1202h-6792V4586l4951 112c54 1 112-8 170-25 107-32 206-91 278-166 58-60 95-128 96-191 1-17-2-37-8-57-137-458-407-1017-1155-1464-796-475-2118-831-4350-839l-2 2c-143 0-274 59-370 154-96 96-157 228-157 371l1 1573c0 1928 11 3859 11 5789H8662c-238-490-604-906-1053-1202-404-266-877-437-1388-481V4749l7-1 5007-163c150-4 288-67 386-166 94-93 152-221 152-363V2483c1-143-60-275-156-371-95-95-227-154-369-154l-3-1c-2230 7-3563 375-4371 863-761 461-1036 1031-1173 1489-14 50-13 69-13 119v3735c-516 46-995 222-1401 495-457 307-826 736-1058 1239H26v-16c3-434-6-846-14-1228-25-1219-45-2157 309-2784 227-400 534-506 1011-671 172-60 371-129 594-224zm1113 5473l-15 67c-23 107-41 213-52 317-10 102-16 209-16 323 0 81 3 158 8 231 6 75 15 151 26 227l57 369-375-6c-556-10-1101-56-1554-245-499-207-876-572-1026-1211l-16-72h2963zm28816 0l-1 24c-28 364-86 694-162 933-107 338-283 551-516 567-612 41-727 40-2497 29l-1240-8 57-362c11-69 20-148 27-236 6-77 10-157 10-240 0-114-6-221-17-323-11-104-28-210-51-317l-15-67h4405zm-2896-1957h2339v551h-2339v-551zM643 8598h383V7125H392v1473h251zm20942 1963c-19 95-34 193-43 293-9 92-14 193-14 300 0 86 4 170 10 251 7 88 18 171 31 249l61 367-373 1c-1969 7-4036 12-6080 14s-4066 1-5947-5l-374-1 62-366c14-80 25-165 32-255 7-82 11-168 11-255 0-107-5-208-14-299-10-101-24-199-43-294l-13-62h12706l-12 62z"/></g></g></svg>