<svg xmlns="http://www.w3.org/2000/svg" width="143" height="143" viewBox="0 0 143 143" data-livestyle-extension="available"><defs><style>.cls-1 {fill: #eef3f6;}.cls-2 {fill: none;stroke: #669ed9;stroke-miterlimit: 10;stroke-width: 2px;}.cls-3 {fill: #669ed9;}</style></defs><circle class="cls-1" cx="71.5" cy="71.5" r="71.5"/><line class="cls-2" x1="86.55258" y1="50.74377" x2="92.44559" y2="50.74377"/><path class="cls-2" d="M92.44559,50.74377h5.95495a2.858,2.858,0,0,1,2.858,2.858V91.46959a2.858,2.858,0,0,1-2.858,2.858H44.81393a2.858,2.858,0,0,1-2.858-2.858V53.60172a2.858,2.858,0,0,1,2.858-2.858H56.81627"/><polyline class="cls-2" points="101.098 51.871 71.702 76.853 42.36 51.871"/><line class="cls-2" x1="98.03994" y1="90.06516" x2="76.98533" y2="72.3628"/><line class="cls-2" x1="45.36442" y1="90.06516" x2="66.42873" y2="72.3628"/><path class="cls-3" d="M71.72907,35.66553l3.26282,6.61118a3.859,3.859,0,0,0,2.90637,2.11169l7.29614,1.06018-5.27954,5.14624a3.85951,3.85951,0,0,0-1.11011,3.41656l1.24634,7.26654-6.52563-3.43069a3.85986,3.85986,0,0,0-3.59253-.00009L63.40705,61.278l1.24634-7.26654a3.859,3.859,0,0,0-1.11011-3.41663l-5.27942-5.14624,7.2959-1.06018a3.8588,3.8588,0,0,0,2.90637-2.11154l3.26294-6.61133m0-2.17648a1.83811,1.83811,0,0,0-1.66785,1.0368l-3.38855,6.86588a1.85971,1.85971,0,0,1-1.40039,1.01746l-7.5769,1.101a1.85985,1.85985,0,0,0-1.03076,3.17245L62.14729,52.027a1.85989,1.85989,0,0,1,.53491,1.6463L61.38789,61.2196a1.855,1.855,0,0,0,2.69873,1.96069l6.777-3.5629a1.85979,1.85979,0,0,1,1.731,0l6.7771,3.5629a1.855,1.855,0,0,0,2.69861-1.96069l-1.29431-7.54633a1.86023,1.86023,0,0,1,.53491-1.6463l5.48279-5.34433a1.85992,1.85992,0,0,0-1.03076-3.17245l-7.577-1.101a1.85971,1.85971,0,0,1-1.40039-1.01746l-3.38855-6.86588a1.83811,1.83811,0,0,0-1.66785-1.0368Z"/></svg>