<svg xmlns="http://www.w3.org/2000/svg" viewBox="866 4757 19 12">
  <defs>
    <style>
      .cls-1 {
        fill: #669ed9;
      }
    </style>
  </defs>
  <g id="Group_2344" data-name="Group 2344" transform="translate(-2222 6340)">
    <circle id="Ellipse_38" data-name="Ellipse 38" class="cls-1" cx="2" cy="2" r="2" transform="translate(3100 -1575)"/>
    <circle id="Ellipse_37" data-name="Ellipse 37" class="cls-1" cx="2" cy="2" r="2" transform="translate(3090 -1575)"/>
    <path id="Path_178" data-name="Path 178" class="cls-1" d="M3079-1581.1v6.3a4.719,4.719,0,0,1,2.9.6,3.368,3.368,0,0,1,1,2.3h2.1v-5.839c0-1.575-.525-2.736-1.9-3.062A23.58,23.58,0,0,0,3079-1581.1Z" transform="translate(22 -1)"/>
    <path id="Path_179" data-name="Path 179" class="cls-1" d="M3066-1572v-10h12.1v8.1l-1.3,1.9h-4s-.2-2.1-1.874-2.57a2.868,2.868,0,0,0-3.126.87,3.671,3.671,0,0,0-.6,1.7" transform="translate(22 -1)"/>
  </g>
</svg>
