<svg xmlns="http://www.w3.org/2000/svg" width="37" height="44" viewBox="0 0 6198 7401" shape-rendering="geometricPrecision" text-rendering="geometricPrecision" image-rendering="optimizeQuality" fill-rule="evenodd" clip-rule="evenodd"><defs><style>.fil0{fill:#acd4f8;fill-rule:nonzero}</style></defs><g id="Слой_x0020_1"><g id="_2684450875648"><path class="fil0" d="M956 4453h458l335 935 335-935h449l-598 1486h-380L956 4453zm1904 1476V4453h409v1476h-409zm855 0V4453h382l607 780v-780h404v1476h-357l-631-809v809h-405zM5105 134c178-178 467-178 645 0 177 177 177 466 0 644L3899 2628c-177 178-872 233-874 230-3-1 52-697 230-874L5105 134z"/><path class="fil0" d="M3224 3676l-145 27-52-299 145-27c1295-241 2183 123 2647 714 227 289 352 632 375 986s-57 717-238 1048c-396 722-1281 1296-2663 1275-1227-19-2117-396-2659-949-324-330-525-724-600-1143-75-418-25-859 152-1284 269-645 1279-1543 2284-1641l-136 57C1356 2857 733 3484 458 4144c-154 370-199 751-134 1109 64 357 237 695 518 981 492 502 1312 844 2454 862 1259 20 2055-485 2403-1121 153-278 220-582 201-876s-123-577-311-816c-402-513-1192-825-2365-607z"/></g></g></svg>