<?xml version="1.0" encoding="UTF-8"?>
<!DOCTYPE svg PUBLIC "-//W3C//DTD SVG 1.1//EN" "http://www.w3.org/Graphics/SVG/1.1/DTD/svg11.dtd">
<!-- Creator: CorelDRAW X8 -->
<svg xmlns="http://www.w3.org/2000/svg" xml:space="preserve" width="25px" height="16px" version="1.1" style="shape-rendering:geometricPrecision; text-rendering:geometricPrecision; image-rendering:optimizeQuality; fill-rule:evenodd; clip-rule:evenodd"
viewBox="0 0 20572 12945"
 xmlns:xlink="http://www.w3.org/1999/xlink">
 <defs>
  <style type="text/css">
   <![CDATA[
    .fil0 {fill:#C8C8C8}
    .fil1 {fill:#C8C8C8;fill-rule:nonzero}
   ]]>
  </style>
 </defs>
 <g id="Слой_x0020_1">
  <metadata id="CorelCorpID_0Corel-Layer"/>
  <g id="_3122310682640">
   <g>
    <path class="fil0" d="M3619 6164c1746,0 3162,1415 3162,3161 0,1747 -1416,3162 -3162,3162 -1746,0 -3162,-1415 -3162,-3162 0,-1746 1416,-3161 3162,-3161zm0 979c1205,0 2183,977 2183,2182 0,1206 -978,2183 -2183,2183 -1205,0 -2182,-977 -2182,-2183 0,-1205 977,-2182 2182,-2182z"/>
    <path class="fil1" d="M3619 5706c999,0 1905,406 2559,1060 655,655 1061,1560 1061,2559 0,998 -406,1902 -1061,2558 -657,657 -1561,1062 -2559,1062 -999,0 -1904,-406 -2559,-1061 -654,-654 -1060,-1559 -1060,-2559 0,-998 406,-1902 1060,-2557 657,-656 1561,-1062 2559,-1062zm1912 1707c-488,-489 -1165,-792 -1912,-792 -747,0 -1424,303 -1913,791 -488,489 -791,1166 -791,1913 0,747 303,1424 792,1913 489,489 1166,792 1912,792 748,0 1424,-303 1912,-791 490,-489 793,-1166 793,-1914 0,-746 -303,-1423 -793,-1912zm-1912 -727c727,0 1387,295 1865,773 480,480 775,1140 775,1866 0,727 -295,1387 -773,1865 -480,480 -1140,775 -1867,775 -727,0 -1386,-295 -1864,-773 -480,-480 -775,-1140 -775,-1867 0,-726 295,-1386 773,-1864 480,-480 1139,-775 1866,-775zm1221 1419c-312,-312 -743,-504 -1221,-504 -477,0 -909,192 -1219,503 -313,312 -506,744 -506,1221 0,478 193,909 504,1220 312,313 744,505 1221,505 478,0 909,-192 1220,-503 312,-313 505,-744 505,-1222 0,-477 -193,-909 -504,-1220z"/>
   </g>
   <g>
    <path class="fil0" d="M16953 6164c1746,0 3162,1415 3162,3161 0,1747 -1416,3162 -3162,3162 -1746,0 -3162,-1415 -3162,-3162 0,-1746 1416,-3161 3162,-3161zm0 979c1205,0 2182,977 2182,2182 0,1206 -977,2183 -2182,2183 -1205,0 -2182,-977 -2182,-2183 0,-1205 977,-2182 2182,-2182z"/>
    <path class="fil1" d="M16953 5706c999,0 1905,406 2559,1060 655,655 1060,1560 1060,2559 0,998 -405,1902 -1060,2558 -657,657 -1562,1062 -2559,1062 -999,0 -1905,-406 -2559,-1061 -655,-654 -1060,-1559 -1060,-2559 0,-998 405,-1902 1060,-2557 656,-656 1561,-1062 2559,-1062zm1912 1707c-489,-489 -1165,-792 -1912,-792 -747,0 -1424,303 -1913,791 -488,489 -791,1166 -791,1913 0,747 303,1424 792,1913 489,489 1165,792 1912,792 748,0 1424,-303 1912,-791 490,-489 793,-1166 793,-1914 0,-746 -303,-1423 -793,-1912zm-1912 -727c727,0 1386,295 1865,773 479,480 775,1140 775,1866 0,727 -296,1387 -774,1865 -480,480 -1139,775 -1866,775 -727,0 -1386,-295 -1865,-773 -479,-480 -775,-1140 -775,-1867 0,-726 296,-1386 774,-1864 480,-480 1139,-775 1866,-775zm1220 1419c-311,-312 -743,-504 -1220,-504 -477,0 -909,192 -1219,503 -313,312 -506,744 -506,1221 0,478 193,909 504,1220 312,313 744,505 1221,505 477,0 909,-192 1220,-503 312,-313 505,-744 505,-1222 0,-477 -193,-909 -505,-1220z"/>
   </g>
   <path class="fil0" d="M20215 8614l0 371c-22,416 -121,818 -301,1154 -589,1096 -1551,1679 -2544,1776l-595 0c-702,-68 -1385,-379 -1926,-922 -1058,-1063 -1235,-2725 -409,-3961 346,-519 575,-679 1079,-1017 -47,-198 -630,-1628 -738,-1707 -42,158 -721,932 -848,1092 -666,835 -1311,1737 -1957,2506 -425,505 -995,774 -1626,936 -433,111 -2070,46 -2555,46 0,-961 -387,-1902 -844,-2416 -1644,-1850 -3495,-850 -5090,-1353 -733,-232 -1518,-956 -1518,-1704l8267 0c203,0 1379,-1752 1610,-1844 131,-53 3030,-19 3436,-19 -63,-268 -291,-611 -311,-854 -978,0 -1957,0 -2935,0 -528,0 -569,-698 0,-698l3168 0c206,0 287,134 345,276l509 1237 2135 0 0 2484 -1087 0 349 854c62,156 118,273 183,438 54,137 180,367 209,489 445,0 1438,-318 2705,660 340,262 655,370 885,758 239,405 377,910 404,1418zm-3236 2738c-854,0 -1878,-1309 -2109,-1954 -261,-727 355,-2241 1013,-2681l314 859 292 729c205,520 258,815 660,815 101,0 272,-118 272,-349 0,-211 -394,-1041 -516,-1347 -36,-90 -66,-143 -99,-221 -19,-44 -182,-407 -161,-431 1011,-1112 5635,3683 334,4580zm-3673 -5957l-4308 0 0 -815 5007 0c-103,154 -198,270 -319,418l-262 320c-54,54 2,77 -118,77zm893 -1126l-5084 0c-155,0 -117,-110 -117,-388l5589 0c-59,88 -270,388 -388,388zm-310 -2251c81,348 571,1341 621,1553l-5356 0 1038 -1292c216,-244 96,-267 552,-262 1046,12 2098,1 3145,1z"/>
  </g>
 </g>
</svg>
