<svg xmlns="http://www.w3.org/2000/svg" viewBox="969.455 998.446 13.42 15.754"><style>.review__like-ico-path{stroke: #8798A4;fill:#ffffff;}</style><path class="review__like-ico-path" d="M1074.15,219.62a1.329,1.329,0,0,1-.38.93,1.281,1.281,0,0,1-.55.33,1.34,1.34,0,0,1,0,1.88,1.272,1.272,0,0,1-.38.27,1.34,1.34,0,0,1-.21,1.59,1.27,1.27,0,0,1-.91.39h-4.5a10.475,10.475,0,0,1-1.78-.59,1.75,1.75,0,0,0-.8-.31h-.94a1.74,1.74,0,0,1-1.74-1.74v-4.83a.62.62,0,0,1,.62-.62h1.17c.21-.35,1.43-1.27,2.75-2.61a6.61,6.61,0,0,0,1.47-4s2,.21,2.43,1.14a2.7,2.7,0,0,1-.36,2.75,4,4,0,0,0-.28,1.37l.24.43s4.38-.36,4.38,1.27c0,1.08-.61,1.18-.81,1.25A1.32,1.32,0,0,1,1074.15,219.62Z" transform="translate(-92.005 788.69)"></path></svg>
