<svg xmlns="http://www.w3.org/2000/svg" width="42" height="36" viewBox="0 0 9443 8072" shape-rendering="geometricPrecision" text-rendering="geometricPrecision" image-rendering="optimizeQuality" fill-rule="evenodd" clip-rule="evenodd"><defs><style>.fil0,.fil1{fill:#fefefe}.fil1{fill-rule:nonzero}</style></defs><g id="Слой_x0020_1"><g id="_1576978030240"><rect class="fil0" x="396" y="3385" width="3615" height="801" rx="679" ry="902"/><path class="fil1" d="M946 2632l324 2573 5471 1 409-3530c512-518 1024-1036 1535-1554h1c80-76 188-122 307-122 248 0 450 201 450 449 0 116-45 222-117 302v1L8009 2086l-465 4018-7066-1L6 2353c-6-52-7-79-5-122l1-24 3-34c28-193 181-342 382-342h3999c220 0 400 180 400 400 0 221-180 401-400 401H946z"/><circle class="fil0" cx="2373" cy="7395" r="677"/><circle class="fil0" cx="5658" cy="7395" r="668"/></g></g></svg>