<?xml version="1.0" encoding="UTF-8"?>
<!DOCTYPE svg PUBLIC "-//W3C//DTD SVG 1.1//EN" "http://www.w3.org/Graphics/SVG/1.1/DTD/svg11.dtd">
<!-- Creator: CorelDRAW X8 -->
<svg xmlns="http://www.w3.org/2000/svg" xml:space="preserve" width="20px" height="26px" version="1.1" style="shape-rendering:geometricPrecision; text-rendering:geometricPrecision; image-rendering:optimizeQuality; fill-rule:evenodd; clip-rule:evenodd"
viewBox="0 0 7341 9705"
 xmlns:xlink="http://www.w3.org/1999/xlink">
 <defs>
  <style type="text/css">
   <![CDATA[
    .str0 {stroke:#ffe25d;stroke-width:622.555;stroke-linecap:round;stroke-linejoin:round}
    .fil0 {fill:none}
    .fil1 {fill:#ffe25d}
   ]]>
  </style>
 </defs>
 <g id="Слой_x0020_1">
  <metadata id="CorelCorpID_0Corel-Layer"/>
  <g id="_2684658019888">
   <g>
    <line class="fil0 str0" x1="3655" y1="4881" x2="3655" y2= "2505" />
    <line class="fil0 str0" x1="4664" y1="3384" x2="3654" y2= "2501" />
    <line class="fil0 str0" x1="2636" y1="3382" x2="3646" y2= "2499" />
   </g>
   <path class="fil1" d="M5106 7564l394 -308c37,-29 46,-81 23,-124l-388 -671c-23,-42 -75,-57 -118,-42l-464 186c-106,-82 -223,-150 -349,-201l-71 -495c-6,-47 -47,-81 -95,-81l-776 0c-48,0 -89,34 -94,81l-71 495c-126,51 -244,119 -349,201l-464 -186c-45,-18 -95,0 -118,42l-388 671c-25,43 -14,95 23,124l393 308c-9,66 -14,133 -14,202 0,69 4,137 14,203l-393 307c-37,29 -47,82 -23,124l388 671c23,43 75,58 118,43l464 -187c106,82 223,150 349,201l71 495c5,47 46,82 94,82l776 0c48,0 89,-35 95,-82l71 -495c126,-51 243,-119 348,-201l465 187c45,17 95,0 118,-43l388 -671c23,-42 14,-95 -23,-124l-394 -308c9,-66 14,-133 14,-202 0,-68 -4,-136 -14,-202zm-1456 881c-374,0 -678,-304 -678,-679 0,-374 304,-678 678,-678 375,0 679,304 679,678 0,375 -304,679 -679,679z"/>
   <path class="fil0 str0" d="M1988 4742c-2196,85 -2255,-3055 -63,-3088 784,-2040 3778,-1678 3885,551 1794,30 1564,2572 -381,2221"/>
  </g>
 </g>
</svg>
