<svg xmlns="http://www.w3.org/2000/svg" width="141" height="141"><defs><style>.cls-1{fill: #eef3f6;}.cls-2{fill: #669ed9;}.cls-3{fill: none;stroke: #669ed9;stroke-miterlimit: 10;stroke-width: 2px;}</style></defs><circle class="cls-1" cx="70.5" cy="70.5" r="70.5"/><g><path class="cls-2" d="M60,55v2H58V55h2m2-2H56v6h6V53Z"/><path class="cls-2" d="M60,63v2H58V63h2m2-2H56v6h6V61Z"/><path class="cls-2" d="M60,71v2H58V71h2m2-2H56v6h6V69Z"/><path class="cls-2" d="M60,79v2H58V79h2m2-2H56v6h6V77Z"/><line class="cls-3" x1="66" y1="56" x2="88" y2="56"/><line class="cls-3" x1="66" y1="64" x2="88" y2="64"/><line class="cls-3" x1="66" y1="72" x2="88" y2="72"/><polygon class="cls-2" points="103.205 75.813 101.696 74.304 86.852 89.148 80.009 82.304 78.5 83.813 86.844 92.156 87 92 87.009 92.009 103.205 75.813"/><path class="cls-2" d="M94,88.01776V100a1.00115,1.00115,0,0,1-1,1H51a1.00115,1.00115,0,0,1-1-1V42a1.00115,1.00115,0,0,1,1-1H93a1.00115,1.00115,0,0,1,1,1V79l2-2.00006V42a3,3,0,0,0-3-3H51a3,3,0,0,0-3,3v58a3,3,0,0,0,3,3H93a3,3,0,0,0,3-3V86.01776Z"/></g></svg>
