<svg xmlns="http://www.w3.org/2000/svg" viewBox="4024.028 6378.366 12.728 12.728">
  <defs>
    <style>
      .cls-1 {
        fill: none;
      }

      .cls-2, .cls-3 {
        stroke: none;
      }

      .cls-3 {
        fill: #669ed9;
      }
    </style>
  </defs>
  <g id="Group_2284" data-name="Group 2284" transform="translate(4033.928 6378.366) rotate(45)">
    <g id="Path_1376" data-name="Path 1376" class="cls-1" transform="translate(0 0)">
      <path class="cls-2" d="M2,0A2,2,0,0,1,4,2v8H0V2A2,2,0,0,1,2,0Z"/>
      <path class="cls-3" d="M 3.000000238418579 9 L 3.000000238418579 2 C 3.000000238418579 1.448600053787231 2.551400184631348 1 2.000000238418579 1 C 1.448600292205811 1 1.000000238418579 1.448600053787231 1.000000238418579 2 L 1.000000238418579 9 L 3.000000238418579 9 M 4 10 L 2.384185791015625e-07 10 L 2.384185791015625e-07 2 C 2.384185791015625e-07 0.8954300284385681 0.8954302668571472 0 2.000000238418579 0 C 3.104570150375366 0 4 0.8954300284385681 4 2 L 4 10 Z"/>
    </g>
    <g id="Path_1375" data-name="Path 1375" class="cls-1" transform="translate(0 11)">
      <path class="cls-2" d="M0,0H4S2,3,2,3Z"/>
      <path class="cls-3" d="M 2.000980138778687 3 L 2.384185791015625e-07 1.192092895507813e-07 L 4 1.192092895507813e-07 C 3.996350288391113 0.004090119153261185 2.000980138778687 3 2.000980138778687 3 Z"/>
    </g>
  </g>
</svg>
