<?xml version="1.0" encoding="UTF-8"?><!DOCTYPE svg PUBLIC "-//W3C//DTD SVG 1.0//EN" "http://www.w3.org/TR/2001/REC-SVG-20010904/DTD/svg10.dtd"><!-- Creator: CorelDRAW X7 --><svg xmlns="http://www.w3.org/2000/svg" xml:space="preserve" width="750px" height="419px" version="1.0" style="shape-rendering:geometricPrecision; text-rendering:geometricPrecision; image-rendering:optimizeQuality; fill-rule:evenodd; clip-rule:evenodd" viewBox="0 0 434 243" xmlns:xlink="http://www.w3.org/1999/xlink"><defs><style type="text/css"><![CDATA[.fil1 {fill:#FEFEFE} .fil2 {fill:#FFE25D} .fil0 {fill:#FEFEFE;fill-rule:nonzero}]]></style></defs><g id="Слой_x0020_1"><metadata id="CorelCorpID_0Corel-Layer"/><path class="fil0" d="M0 240l8 0 49 -114 -9 0 -48 114zm20 0l11 0 23 -54 9 -22 6 14 0 1 0 0 7 17 -14 0 -10 24 33 0 8 20 34 0 -48 -114 -10 0 -49 114 0 0zm151 3c32,0 53,-16 53,-53l0 -35 33 0 0 85 31 0 0 -85 34 0 0 -28c-43,0 -86,0 -130,0l0 64c0,16 -8,23 -21,23 -12,0 -21,-7 -21,-24l0 -63 -31 0 0 64c0,35 20,52 52,52z"/><path class="fil1" d="M376 127c-32,0 -58,26 -58,58 0,32 26,58 58,58 32,0 58,-26 58,-58 0,-32 -26,-58 -58,-58zm0 28c-17,0 -30,13 -30,30 0,17 13,30 30,30 17,0 30,-13 30,-30 0,-17 -13,-30 -30,-30z"/><path class="fil2" d="M65 118c21,0 37,-8 49,-18l0 -51 -33 0 -10 23 13 0 0 14c-4,3 -10,5 -18,5 -2,0 -4,0 -5,-1l-11 26c5,1 10,2 15,2l0 0zm-15 -31c-3,-2 -6,-4 -8,-7l-12 29c3,1 6,3 9,4l11 -26 0 0zm-14 -21c0,-2 -1,-4 -1,-7 0,-17 13,-31 29,-31 9,0 17,3 23,7l12 -27c-10,-5 -21,-8 -35,-8 -4,0 -7,0 -11,1l-39 92c2,3 4,6 7,9l15 -36 0 0zm3 -61c-5,2 -10,5 -15,9l-21 49c1,6 2,12 4,18l32 -76zm138 86l29 0 0 0c7,0 10,-3 10,-8 0,-4 -3,-7 -19,-10 -24,-6 -42,-13 -42,-36 0,-21 16,-37 43,-37 17,0 30,4 41,11l-10 26c-11,-7 -22,-11 -31,-11 -8,0 -12,4 -12,8 0,5 4,8 20,11 26,6 42,14 42,36 0,26 -22,36 -45,37l-37 0 11 -27 0 0zm-58 26l31 0 0 -115 -31 0 0 115z"/></g></svg>